<svg width="45" height="106" viewBox="0 0 45 106" fill="none" xmlns="http://www.w3.org/2000/svg">
<path d="M9.23833 32.5707C8.9758 33.1554 8.85641 33.036 8.51035 33.7997C7.41249 36.1625 8.10464 38.2031 7.41251 38.5014C6.89939 38.7162 5.86121 37.8571 5.49129 37.4991C4.73949 36.7712 2.35287 31.2818 2.60347 21.5682C2.6154 20.9238 2.67503 19.6709 2.3409 18.0837C2.11417 17.0097 1.66071 16.0193 1.37432 14.9572C0.908921 13.2747 0.873101 11.4489 1.27883 9.74244C1.85162 11.5682 2.67503 12.7854 3.30749 12.678C3.83255 12.5825 4.17864 11.5921 4.60824 10.4226C4.90657 9.58732 5.06166 8.84744 5.15712 8.31044C5.76571 8.78777 5.78964 9.81404 6.48176 10.1124C7.04262 10.351 7.60349 9.74244 7.90182 9.14578C8.12855 8.69232 8.3075 8.21499 8.4507 7.72573C8.4865 7.59446 8.5223 7.45127 8.60583 7.3558C8.7729 7.15294 9.08315 7.20063 9.26215 7.39156C9.44114 7.58249 9.50085 7.8689 9.52471 8.14336C9.56051 8.71615 9.4054 9.289 9.25027 9.83793C8.73714 11.7353 8.22396 13.6326 7.6989 15.53C7.43637 16.4966 7.17386 17.4752 7.12613 18.4776C7.05453 19.9931 7.34091 21.1386 7.55571 21.9501C9.28602 28.6207 10.1213 30.6972 9.26215 32.5826L9.23833 32.5707Z" fill="#C7B299" stroke="black" stroke-width="0.75" stroke-linecap="round" stroke-linejoin="round"/>
<path d="M11.9343 6.15061C11.815 6.60407 13.3305 7.66611 14.3806 8.22697C15.5262 8.83557 16.3018 8.95488 16.9343 9.92147C17.0059 10.0169 17.1491 10.3631 17.4355 11.0313C17.9128 12.165 18.4259 13.2867 18.9152 14.4203C19.0942 14.826 19.297 15.2676 19.6431 15.4943C19.9056 15.6614 20.204 15.6972 20.5023 15.7211C21.3018 15.7807 22.1133 15.7807 22.9128 15.7449C23.056 15.184 22.8531 14.5874 22.686 14.0265C22.2087 12.4274 21.9581 10.7329 21.9701 9.03842C21.9701 7.8451 22.161 6.5205 22.9606 5.74485C23.2231 5.48232 23.581 5.23177 23.581 4.82604C23.581 4.51578 23.3543 4.25325 23.0918 4.15778C22.8293 4.06232 22.5548 4.08615 22.2804 4.12195C22.1252 3.22696 21.9701 2.32002 21.8149 1.42503C21.4808 -0.508146 20.8842 0.888036 20.2756 1.79496C19.6789 2.67802 18.9749 3.45368 18.1992 4.11C17.8412 4.40833 16.9462 5.20785 15.7051 5.67325C13.6168 6.44891 12.0297 5.73291 11.9104 6.18637L11.9343 6.15061Z" fill="#C7B299" stroke="black" stroke-width="0.75" stroke-linecap="round" stroke-linejoin="round"/>
<path d="M18.4279 18.7639C17.4136 20.5778 15.91 20.1601 15.4804 21.5205C15.0866 22.7616 15.9696 24.3606 16.6856 25.6494C17.521 27.1649 18.2489 27.6303 18.1653 28.6565C18.1415 28.9907 17.879 29.4919 17.3778 30.4943C16.6737 31.8786 16.256 32.4513 16.435 32.7139C16.6498 33.0361 17.6045 32.8809 17.6045 32.8809C17.6045 32.8809 19.299 32.2723 22.8193 30.9955C22.1511 30.0289 21.7692 28.8236 21.7453 27.5945C23.0699 27.5945 24.299 26.3296 24.4422 24.8141C24.6093 23.0241 23.4398 21.437 23.237 19.6589C23.1296 18.752 23.2847 17.8451 23.4279 16.9501C23.6665 15.4823 20.4207 15.2078 19.3467 16.2818C18.6904 16.9381 19.0962 17.5826 18.4279 18.7759V18.7639Z" fill="#C7B299" stroke="black" stroke-width="0.75" stroke-linecap="round" stroke-linejoin="round"/>
<path d="M40.8736 52.9645C39.5609 49.122 38.2482 45.2437 36.3747 41.7234C34.5012 38.1912 32.0191 34.9931 28.8449 33.0242C26.8401 31.7831 24.5489 30.9955 22.9499 29.1339C22.6157 28.7521 22.3055 28.2866 22.2697 27.7496C22.1742 26.3177 23.8329 25.6852 24.537 24.48C25.8974 22.1291 23.3436 19.3368 23.9642 16.6041C24.2744 15.2556 25.7064 14.7544 26.9117 14.5754C27.4487 14.4919 27.9976 14.4442 28.4988 14.6709C28.8687 14.838 29.179 15.1482 29.4654 15.4585C30.4917 16.5205 31.5179 17.6065 32.5322 18.6924C33.8568 20.1244 34.6802 21.4609 34.8592 21.7234C34.8592 21.7234 35.9929 23.3225 36.9953 25.0289C41.339 32.4275 43.9404 46.4848 44.0001 49.0624C44.0001 49.5159 43.9642 50.0648 43.9642 51.5922C43.9642 51.998 43.9642 52.4156 43.8807 52.8213C43.8329 53.048 43.5346 54.2175 42.7948 54.4323C42.1504 54.6233 41.3032 54.0504 40.8736 52.9645Z" fill="#C69C6D" stroke="black" stroke-width="0.75" stroke-linecap="round" stroke-linejoin="round"/>
<path d="M11.9112 80.6615C11.4696 81.3536 11.2668 81.3894 10.873 81.9741C10.0018 83.2629 10.0735 85.1484 10.6582 86.64C11.2548 88.1317 12.2811 89.325 13.2596 90.5064C15.2286 92.8691 17.114 95.3274 18.892 97.8811C19.071 98.1317 19.262 98.3942 19.5126 98.5493C19.7274 98.6806 19.9899 98.7283 20.2286 98.7641C21.4815 98.9551 22.7584 99.0266 24.0233 98.9789C24.3097 98.9789 24.62 98.9431 24.8348 98.7164C25.0377 98.5016 25.0973 98.1675 25.1093 97.8572C25.1331 97.4515 25.0973 97.0338 25.0138 96.6401C24.9064 96.1508 24.7274 95.6854 24.5484 95.2319C23.5699 92.7618 22.6033 90.2916 21.3981 87.9526C21.0162 87.2128 20.6105 86.4848 20.0496 85.924C19.6081 85.4825 19.095 85.1722 18.6415 84.7426C17.9016 84.0624 17.4839 83.418 17.1617 82.9526C16.3741 81.7951 14.978 79.9455 12.8419 77.177C12.83 78.1197 12.6749 79.4682 11.8992 80.6615H11.9112Z" fill="#C7B299" stroke="black" stroke-width="0.75" stroke-linecap="round" stroke-linejoin="round"/>
<path d="M23.5579 84.6236C23.6892 84.552 24.3216 84.2298 24.978 84.3133C28.2715 84.7429 29.1665 95.1606 30.145 97.6904C30.2047 97.8575 30.4195 98.3826 30.2285 98.8122C30.1211 99.0627 29.8825 99.2179 29.6558 99.3133C28.6295 99.731 27.46 99.2417 26.6486 98.4064C25.8371 97.5711 25.3121 96.4493 24.8109 95.3515C24.2381 94.0985 23.6534 92.8336 23.0806 91.5806C21.6366 88.4422 21.5293 88.0245 21.6247 87.3562C21.8037 86.1868 22.5913 85.1009 23.546 84.6116L23.5579 84.6236Z" fill="#C7B299" stroke="black" stroke-width="0.75" stroke-linecap="round" stroke-linejoin="round"/>
<path d="M14.2747 102.511C14.0838 102.941 14.036 103.43 14.036 103.908C14.036 104.015 14.0361 104.134 14.0957 104.218C14.1673 104.361 14.3105 104.421 14.4418 104.468C14.8117 104.612 15.1697 104.743 15.5396 104.874C18.4632 105.841 21.6733 105.662 24.5014 104.361C24.7878 104.23 25.0862 104.075 25.3129 103.836C25.8738 103.263 25.9573 102.249 25.6709 101.449C25.289 100.411 24.5253 99.886 24.1196 99.6474C22.8547 98.9075 21.554 99.1462 20.5158 99.3372C19.5492 99.5162 18.7496 99.8622 17.8427 100.244C17.3057 100.471 16.9835 100.686 16.4942 100.888C15.6589 101.223 14.6923 101.545 14.2627 102.511H14.2747Z" fill="#6A4C46" stroke="black" stroke-width="0.75" stroke-linecap="round" stroke-linejoin="round"/>
<path d="M29.6431 99.7187C30.0727 99.659 30.6096 99.6352 30.8125 100.077C30.8841 100.22 30.8961 100.375 30.908 100.542C30.9557 101.58 30.7648 102.642 30.3472 103.561C30.1324 104.027 29.8579 104.48 29.4522 104.731C28.9987 105.017 28.414 105.005 27.9486 104.731C27.4832 104.468 27.1252 103.967 26.9581 103.406C26.803 102.869 26.791 102.296 26.791 101.735C26.791 101.091 26.5882 100.136 27.1729 99.8381C27.7576 99.5397 28.9868 99.8142 29.655 99.7187H29.6431Z" fill="#6A4C46" stroke="black" stroke-width="0.75" stroke-linecap="round" stroke-linejoin="round"/>
<path d="M31.363 78.9792C26.6374 83.2154 27.4847 82.1415 25.1696 84.0269C24.4417 84.6236 23.6899 85.2322 22.8426 85.5782C21.9954 85.9243 21.0169 85.972 20.2174 85.4828C19.7281 85.1725 18.6064 83.7405 18.9763 84.2059C17.4608 82.4995 16.1123 80.626 14.5968 78.9314C13.487 77.6904 12.4489 76.6164 12.6637 75.4827C12.7114 75.2321 12.7949 75.0532 12.8665 74.9458C13.7257 73.657 14.9787 72.8097 16.1242 71.867C17.6636 70.614 19.0718 69.1462 20.3128 67.4994C21.3868 66.0794 22.3653 64.4445 22.5443 62.5829C24.9309 61.5328 27.4727 60.6975 29.9549 59.9815C30.7902 59.7429 31.6135 59.5042 32.4608 59.3729C33.2961 59.2416 34.1315 59.2178 34.9668 59.2178C35.2174 59.2178 35.4799 59.2178 35.7067 59.3252C35.9811 59.4326 36.1959 59.6474 36.4107 59.886C38.5109 62.213 38.8093 63.8837 38.8093 63.8837C39.4179 66.2345 38.6661 68.2632 37.8905 70.3993C36.9477 72.9888 35.635 74.6474 34.919 75.5543C34.2269 76.4255 33.2603 77.2846 31.351 78.9911L31.363 78.9792Z" fill="#605A63" stroke="black" stroke-width="0.75" stroke-linecap="round" stroke-linejoin="round"/>
<path d="M31.3024 59.1579C32.7344 58.9669 33.498 58.8954 33.9515 58.8954C34.8226 58.8118 35.6699 58.7164 36.4575 58.5851C36.6842 58.5493 36.9348 58.4896 37.0542 58.2629C37.1258 58.1316 37.1258 57.9765 37.1258 57.8333C37.1735 54.6591 35.9802 51.6519 34.8227 48.7641C33.0566 44.3727 31.2785 39.9812 29.5124 35.6017C29.2737 34.9931 29.0112 34.3726 28.5816 33.9192C28.1878 33.5015 27.6866 33.2628 27.1854 33.0361C25.5505 32.2723 23.8083 31.4848 22.0661 31.807C21.2069 31.9621 20.4073 32.3917 19.5601 32.6304C17.078 33.3344 14.5481 32.4037 12.2689 31.3178C11.1591 30.7808 10.5744 30.2079 9.59587 31.27C8.93954 31.974 8.62926 33.1315 8.37866 34.0862L7.56721 37.1292C7.44788 37.5707 7.32858 38.0361 7.37631 38.5015C7.48371 39.4442 8.23549 40.0886 8.92761 40.6137L13.4026 44.0027C13.7725 44.2771 14.1424 44.5636 14.3811 44.9812C14.7152 45.5421 14.763 46.2461 14.8346 46.9263C15.2045 50.8046 16.3262 54.5875 18.0804 57.9407C18.6532 59.0386 19.8465 61.8309 21.0637 62.1054C21.6007 62.2247 21.8155 61.8548 23.0327 61.2462C24.4766 60.5182 25.6221 60.2438 27.257 59.8381C27.4718 59.7903 27.6866 59.7426 27.9014 59.6949C28.9395 59.4681 30.0136 59.325 31.0876 59.1937C31.1472 59.1937 31.2069 59.1817 31.2785 59.1698L31.3024 59.1579Z" fill="#FF8952" stroke="black" stroke-width="0.75" stroke-linecap="round" stroke-linejoin="round"/>
</svg>
