<svg width="65" height="64" viewBox="0 0 65 64" fill="none" xmlns="http://www.w3.org/2000/svg">
<path d="M13.2164 19.9886C8.76253 23.7752 5.53762 29.1835 6.92262 34.6457C7.53933 37.0745 9.00414 39.3228 10.5866 41.4562C14.1367 46.2457 18.4719 50.8116 24.137 53.7857C27.4477 55.5269 31.5266 56.6848 34.9972 55.5938C36.5787 55.0941 37.9008 54.1579 39.1909 53.2529C42.4005 50.9745 45.5994 48.7065 48.8194 46.4388C50.9307 44.9407 53.0633 43.4217 54.7347 41.5589C58.0133 37.896 59.2766 32.9407 58.1257 28.2532C56.8343 22.9297 52.705 19.7514 48.6287 16.5631C45.7154 14.2873 41.9523 11.4411 36.3365 10.5931C35.1543 10.4101 32.0293 9.9718 28.4553 10.8501C26.4403 11.3553 25.1718 12.2182 21.3171 14.4997C18.4847 16.1797 15.6622 17.9128 13.2164 19.9886Z" fill="white" stroke="#2D3648" stroke-miterlimit="10" stroke-linecap="round"/>
<path d="M16.8702 27.0411C13.9326 27.7576 11.4833 30.1295 11.0079 32.8099C10.6678 34.7728 11.4849 36.3368 12.3949 38.1028C14.2977 41.7839 17.9978 44.587 21.5833 47.2514C23.8058 48.9058 26.1757 50.6254 29.0034 51.166C33.4455 52.0109 36.9872 50.2651 37.636 49.9449C38.742 49.4079 39.5291 49.0153 40.0042 48.1748C40.8897 46.599 38.7964 42.9368 38.2564 42.0846C35.2134 37.3433 33.7078 34.9676 30.5323 32.5089C27.0949 29.8463 21.9074 25.8203 16.8702 27.0411Z" fill="#FF6C35" stroke="#2D3648" stroke-miterlimit="10" stroke-linecap="round"/>
<path d="M47.8013 22.9503C51.5582 26.3464 52.0252 31.6395 50.0529 35.7197" stroke="#2D3648" stroke-miterlimit="10" stroke-linecap="round"/>
</svg>
