<svg width="69" height="63" viewBox="0 0 69 63" fill="none" xmlns="http://www.w3.org/2000/svg">
<path d="M39.6085 1.37988C48.1378 1.4631 57.2772 4.36168 62.0341 11.4486C64.1422 14.5968 65.2379 18.2997 66.0978 22.0027C68.0255 30.2962 68.927 39.0335 66.7773 47.2715C65.5291 52.084 62.8802 56.9658 58.3035 58.8935C56.2094 59.7673 53.9071 59.9615 51.6465 60.1279C46.0158 60.5578 40.3713 60.9877 34.7406 61.4315C31.0237 61.7228 27.2791 62.0002 23.59 61.5009C16.3367 60.5162 9.58267 56.3417 5.44979 50.2949C0.762154 43.4438 1.17816 36.3707 1.58036 29.3254C1.85773 24.291 2.30152 17.8976 6.76725 11.9617C7.71032 10.7136 10.2207 7.45438 14.6725 5.22151C17.1689 3.95945 19.3739 3.76529 25.6426 2.75287C30.2609 2.01783 34.907 1.35216 39.5946 1.39377L39.6085 1.37988Z" fill="white" stroke="#2D3648" stroke-miterlimit="10" stroke-linecap="round"/>
<path d="M43.9494 12.1695C47.5831 10.3111 52.6035 10.6717 56.0429 13.1126C58.5671 14.9017 59.5102 17.301 60.6058 20.0054C62.8803 25.6361 62.4365 31.9325 61.951 37.9931C61.6459 41.7515 61.2853 45.6903 59.1634 48.7969C55.821 53.6787 50.4539 54.9546 49.4692 55.2042C47.8049 55.6064 46.5982 55.8977 45.1975 55.4122C42.5902 54.5108 40.5238 48.7414 40.0939 47.3545C37.7362 39.5742 36.5436 35.677 36.8625 30.2266C37.2093 24.3185 37.7224 15.3871 43.9494 12.1834V12.1695Z" fill="#CBDEFF" stroke="#2D3648" stroke-miterlimit="10" stroke-linecap="round"/>
<path d="M9.49945 35.4138C9.66588 42.3898 15.1164 48.4643 21.5931 51.0716" stroke="#2D3648" stroke-miterlimit="10" stroke-linecap="round"/>
</svg>
