<svg width="42" height="42" viewBox="0 0 42 42" fill="none" xmlns="http://www.w3.org/2000/svg">
<path d="M37.8179 24.8968C40.0226 15.556 34.2375 6.19655 24.8967 3.99192C15.5559 1.78729 6.19647 7.57231 3.99184 16.9131C1.78721 26.2539 7.57223 35.6134 16.913 37.818C26.2539 40.0226 35.6133 34.2376 37.8179 24.8968Z" fill="black"/>
<path d="M28.1987 14.9639C28.1987 15.7042 27.5944 16.3047 26.8541 16.3009C26.1138 16.3009 25.5133 15.6966 25.517 14.9563C25.517 14.216 26.1214 13.6155 26.8616 13.6193C27.6019 13.6193 28.2025 14.2236 28.1987 14.9639ZM26.6312 20.905C26.6312 24.0701 24.0705 26.6347 20.9054 26.6347H20.8978C17.7365 26.6347 15.172 24.0663 15.172 20.905C15.172 17.7437 17.7365 15.1829 20.8978 15.1792H20.9054C24.0667 15.1792 26.6275 17.7437 26.6312 20.905ZM24.6106 20.871C24.5917 18.8353 22.9374 17.1998 20.9054 17.1998H20.8978C18.8658 17.1998 17.2115 18.8353 17.1926 20.871C17.1738 22.9181 18.8167 24.5913 20.8638 24.6064H20.9394C22.9865 24.5876 24.6295 22.9144 24.6106 20.871ZM31.8132 26.8688C31.3902 29.4372 29.8719 31.0839 27.3262 31.7411C26.4122 31.979 23.6361 32.0735 20.9092 32.0697C20.9092 32.0697 20.9092 32.0697 20.9054 32.0697C20.9054 32.0697 20.9054 32.0697 20.9016 32.0697C18.1746 32.0735 15.3986 31.9753 14.4846 31.7411C11.9389 31.0839 10.4206 29.4372 9.99755 26.8688C9.68784 24.9917 9.58209 16.2292 10.1146 14.3294C10.8058 11.8592 12.445 10.3976 14.9491 9.98964C16.1427 9.79324 18.5448 9.73281 20.9092 9.74036H20.9167C23.2773 9.73281 25.6794 9.79324 26.8767 9.98964C29.3771 10.3976 31.0163 11.8555 31.7112 14.3294C32.2438 16.2292 32.138 24.9879 31.8283 26.8688H31.8132ZM29.8303 15.2925C29.5357 13.3587 28.2402 12.1501 26.2913 11.9348C25.3244 11.8252 23.1262 11.7648 20.9092 11.7648H20.9016C18.6883 11.7648 16.4901 11.8252 15.5195 11.9348C13.5705 12.1538 12.2751 13.3587 11.9805 15.2925C11.667 17.3471 11.7312 25.0295 11.9805 26.5667C12.2448 28.1757 13.1589 29.2747 14.7603 29.7204C15.6441 29.9659 18.3144 30.0528 20.8978 30.049H20.9054C23.4888 30.049 26.1591 29.9659 27.0429 29.7204C28.6406 29.2747 29.5546 28.1757 29.8228 26.5667C30.0758 25.0295 30.14 17.3509 29.8228 15.2925H29.8303Z" fill="white"/>
</svg>
