<svg width="58" height="80" viewBox="0 0 58 80" fill="none" xmlns="http://www.w3.org/2000/svg">
<path d="M28.91 79.1837C44.8765 79.1837 57.82 74.6215 57.82 68.9937C57.82 63.3659 44.8765 58.8037 28.91 58.8037C12.9434 58.8037 0 63.3659 0 68.9937C0 74.6215 12.9434 79.1837 28.91 79.1837Z" fill="#333333" fill-opacity="0.5"/>
<path d="M27.9501 20.1537C26.4501 20.1737 24.9501 20.1637 23.4501 20.1237L23.8201 19.9537C23.4001 20.3437 22.7201 20.2337 22.2101 19.9737C21.0601 19.3937 20.2401 18.2037 20.1101 16.9237C19.4001 17.0137 18.6601 16.6437 18.3201 16.0137C17.7501 14.9837 18.3201 13.7137 18.8501 12.6737C18.9301 12.5237 19.0001 12.3337 18.8901 12.2037C18.8001 12.1037 18.6401 12.1137 18.5101 12.0637C18.2401 11.9637 18.1601 11.6237 18.1401 11.3337C18.1001 10.6637 18.1601 9.9937 18.3401 9.3437C18.5801 9.3737 18.82 9.39371 19.06 9.42371C19.05 8.88371 19.04 8.34372 19.02 7.80372C19.02 7.67372 19.0201 7.52371 19.1001 7.42371C19.2001 7.31371 19.3601 7.28369 19.4901 7.21369C19.8301 7.03369 19.8701 6.57368 20.1001 6.26368C20.2801 6.02368 20.5601 5.88371 20.8201 5.73371C21.5401 5.31371 22.1701 4.74372 22.6301 4.05372C22.7901 3.82372 22.9601 3.55371 23.2301 3.48371C23.5001 3.41371 23.77 3.56369 24.05 3.58369C24.87 3.66369 25.4401 2.7637 26.2201 2.5337C27.2401 2.2337 28.4101 1.1937 29.4701 1.0337C30.0701 0.943698 30.7601 1.01372 31.1301 1.49372C31.5001 1.97372 31.14 2.88369 30.55 2.77369C31.43 2.08369 32.7401 2.0137 33.6901 2.5937C33.8701 2.7037 34.0501 2.8437 34.2501 2.9137C34.5001 3.0037 34.77 3.00372 35.03 2.99372C35.62 2.98372 36.22 2.97369 36.81 2.96369C36.94 2.96369 37.0901 2.96371 37.2001 3.04371C37.3401 3.15371 37.36 3.35369 37.4 3.52369C37.62 4.37369 38.6301 4.69367 39.4801 4.88367C40.3301 5.07367 41.34 5.41368 41.55 6.26368C41.61 6.53368 41.59 6.84371 41.78 7.04371C42.01 7.28371 42.42 7.24368 42.68 7.45368C43.14 7.82368 42.78 8.55368 42.79 9.14368C42.81 9.94368 43.5901 10.7237 43.2401 11.4437C43.7601 11.7237 43.7901 12.4737 43.6201 13.0337C43.4501 13.5937 43.1401 14.1637 43.2401 14.7537C42.7801 14.8337 42.3201 14.9137 41.8701 14.9937C42.2901 16.1037 40.85 17.4537 41.55 18.4137C41.48 18.4637 41.4201 18.5137 41.3501 18.5737C40.7201 19.0637 39.8501 19.5737 39.1901 19.1237C39.0601 19.2037 38.6901 19.1537 38.5701 19.0637C38.4501 18.9737 38.3501 18.8637 38.2101 18.8037C37.9101 18.6837 37.51 18.9037 37.27 18.6837C37.21 18.6237 37.1601 18.5437 37.0801 18.5137C37.0101 18.4937 36.9401 18.5137 36.8701 18.5337C36.5501 18.6237 36.1501 18.6437 35.9401 18.3937C35.7401 18.1537 35.78 17.7537 35.55 17.5437C35.47 17.4737 35.37 17.4337 35.27 17.4037C34.94 17.3037 34.6001 17.2737 34.2601 17.2937C33.7501 17.3337 33.43 17.9437 33.16 18.3737C32.5 19.3937 31.6701 20.4737 30.4701 20.6737C29.6201 20.8237 28.8201 20.1237 27.9501 20.1337V20.1537Z" fill="#E45C26" stroke="black" stroke-width="0.75" stroke-linecap="round" stroke-linejoin="round"/>
<path d="M30.5199 25.7537C32.6999 26.9637 36.03 26.1737 36.67 24.5237C36.76 24.2937 36.62 23.3237 36.34 21.3737C36.23 20.6137 36.16 20.1837 35.84 19.7137C35.48 19.1737 35.14 19.0937 34.46 18.5837C33.09 17.5537 32.6199 16.5237 32.3999 16.6537C32.0999 16.8137 33.12 18.5737 32.5 19.1837C32.18 19.4937 31.57 19.3937 30.86 19.2637C29.47 19.0237 29.22 18.5937 28.81 18.7637C27.83 19.1537 27.55 22.4237 29.18 24.5637C29.38 24.8237 29.7899 25.3537 30.5299 25.7637L30.5199 25.7537Z" fill="#C7B299" stroke="black" stroke-width="0.75" stroke-linecap="round" stroke-linejoin="round"/>
<path d="M17.89 33.9937C17.63 36.8337 18.29 39.6737 18.94 42.4537C18.97 42.6037 19.01 42.7537 19.12 42.8537C19.24 42.9737 19.43 43.0037 19.6 43.0337C20.29 43.1337 21.16 43.1337 21.47 42.5137C21.59 42.2737 21.59 42.0037 21.59 41.7437C21.59 39.7437 21.66 37.7537 21.83 35.7637C21.91 34.8737 21.9999 33.9737 22.2699 33.1237C22.5199 32.3337 22.93 31.6037 23.21 30.8237C23.49 30.0437 23.67 29.1937 23.45 28.3937C22.73 25.8437 20.71 27.5137 19.75 28.8237C18.65 30.3137 18.05 32.1637 17.89 34.0037V33.9937Z" fill="#C7B299" stroke="black" stroke-width="0.75" stroke-linecap="round" stroke-linejoin="round"/>
<path d="M12.93 64.5338C12.79 58.2638 13.0701 51.9838 13.7501 45.7438C13.8101 45.2438 13.8701 44.7237 14.0801 44.2737C14.2901 43.8337 14.6201 43.4637 15.0001 43.1537C16.6501 41.7737 18.91 41.4438 21.03 41.1138C23.15 40.7838 25.4201 40.3537 26.9501 38.8438C28.1601 39.1937 29.68 39.2237 30.9 39.5737C31.02 39.6037 31.1501 39.6438 31.2201 39.7438C31.4101 39.9738 31.1901 40.3037 30.9701 40.5037C29.4501 41.8537 27.2901 42.1238 25.3101 42.6238C23.3301 43.1238 21.2001 44.1237 20.6101 46.0737C20.4101 46.7437 20.42 47.4537 20.41 48.1437C20.39 52.9237 19.8101 57.7038 18.7001 62.3538C18.5401 63.0038 18.5901 63.7738 18.1001 64.2238C17.8601 64.4438 17.5401 64.5437 17.2301 64.6337C15.9101 65.0037 14.53 65.1737 13.15 65.1537C13 65.1537 12.91 64.6838 12.91 64.5338H12.93Z" fill="#0071BC" stroke="black" stroke-width="0.75" stroke-linecap="round" stroke-linejoin="round"/>
<path d="M9.55002 70.0937C9.55002 70.1937 9.5701 70.3037 9.6401 70.3937C9.6901 70.4737 9.78008 70.5137 9.86008 70.5537C10.4301 70.8237 11.1101 70.7937 11.7201 70.6037C12.3301 70.4137 12.87 70.0837 13.42 69.7537C14.33 69.2037 15.24 68.6537 16.15 68.0937C16.84 67.6737 17.5601 67.2137 17.8601 66.4737C17.9601 66.2237 18.01 65.9437 17.94 65.6837C17.83 65.2737 17.46 64.9837 17.07 64.8037C16.34 64.4637 15.4701 64.4237 14.7201 64.6937C13.6601 65.0737 12.3101 65.8637 11.3601 66.4937C10.1901 67.2637 9.43003 68.6737 9.56003 70.0837L9.55002 70.0937Z" fill="#CCCCCC" stroke="black" stroke-width="0.75" stroke-linecap="round" stroke-linejoin="round"/>
<path d="M28.71 48.7436C28.35 49.5936 28.2199 50.3236 28.1799 50.7936C28.1199 51.4336 28.18 51.8336 28.2 51.9636C28.26 52.3136 28.3599 52.6536 28.5199 53.0136C28.8099 53.6836 29.2 54.4136 28.95 55.1036C28.82 55.4736 28.51 55.7636 28.23 56.0436C27.13 57.1436 26.2199 58.4336 25.5599 59.8436C24.9199 61.1836 24.4999 62.6436 23.6699 63.8736C22.8299 65.1036 21.42 66.1036 19.95 65.8836C18.87 63.7336 18.91 61.1936 19.26 58.8136C19.61 56.4336 20.26 54.0836 20.34 51.6836C20.38 50.3636 20.2599 49.0336 20.2899 47.7136C20.2899 47.3436 20.37 46.5536 20.6 45.9736C21.32 44.1036 23.93 44.1736 28.23 42.2936C30.95 41.1036 30.42 40.8436 31.86 40.4936C33.42 40.1136 35.62 40.3636 39.85 41.5736C40.62 41.7936 41.44 42.0436 41.95 42.6636C42.57 43.4136 42.55 44.5336 42.23 45.4536C41.91 46.3736 41.33 47.1836 40.89 48.0636C40.3 49.2536 39.88 50.6736 38.72 51.3336C38.23 51.6136 37.67 51.6436 36.58 51.6936C35.09 51.7736 33.9399 51.6336 32.4199 51.4236C31.1099 51.2436 29.6999 51.0436 28.1799 50.8036" fill="#0071BC"/>
<path d="M28.71 48.7436C28.35 49.5936 28.2199 50.3236 28.1799 50.7936C28.1199 51.4336 28.18 51.8336 28.2 51.9636C28.26 52.3136 28.3599 52.6536 28.5199 53.0136C28.8099 53.6836 29.2 54.4136 28.95 55.1036C28.82 55.4736 28.51 55.7636 28.23 56.0436C27.13 57.1436 26.2199 58.4336 25.5599 59.8436C24.9199 61.1836 24.4999 62.6436 23.6699 63.8736C22.8299 65.1036 21.42 66.1036 19.95 65.8836C18.87 63.7336 18.91 61.1936 19.26 58.8136C19.61 56.4336 20.26 54.0836 20.34 51.6836C20.38 50.3636 20.2599 49.0336 20.2899 47.7136C20.2899 47.3436 20.37 46.5536 20.6 45.9736C21.32 44.1036 23.93 44.1736 28.23 42.2936C30.95 41.1036 30.42 40.8436 31.86 40.4936C33.42 40.1136 35.62 40.3636 39.85 41.5736C40.62 41.7936 41.44 42.0436 41.95 42.6636C42.57 43.4136 42.55 44.5336 42.23 45.4536C41.91 46.3736 41.33 47.1836 40.89 48.0636C40.3 49.2536 39.88 50.6736 38.72 51.3336C38.23 51.6136 37.67 51.6436 36.58 51.6936C35.09 51.7736 33.9399 51.6336 32.4199 51.4236C31.1099 51.2436 29.6999 51.0436 28.1799 50.8036" stroke="black" stroke-width="0.75" stroke-linecap="round" stroke-linejoin="round"/>
<path d="M17.85 68.0436C17.66 68.2836 17.53 68.5736 17.42 68.8536C17.07 69.7636 16.9 70.7436 16.92 71.7236C16.92 71.9036 16.9401 72.0936 17.0101 72.2636C17.1701 72.6436 17.61 72.8536 18.03 72.8536C18.45 72.8536 18.85 72.7036 19.24 72.5536C20.33 72.1236 21.43 71.7036 22.52 71.2736C22.87 71.1336 23.23 70.9836 23.45 70.6836C23.65 70.3936 23.68 70.0236 23.7 69.6736C23.72 69.2436 23.73 68.8036 23.73 68.3736C23.73 64.8336 19.33 66.2336 17.85 68.0436Z" fill="#CCCCCC" stroke="black" stroke-width="0.75" stroke-linecap="round" stroke-linejoin="round"/>
<path d="M42.0499 52.1337C40.8499 54.6237 40.8699 56.8538 40.9099 59.7438C40.9399 62.0338 40.98 63.8037 41.84 65.9537C42.47 67.5337 43.2 69.3437 44.95 69.9437C46.75 70.5637 48.54 69.5338 48.85 69.3038C49.96 68.4838 50.7399 67.2938 51.4199 66.1038C52.2199 64.7138 53.78 61.7138 53.63 57.7238C53.58 56.5438 53.3999 55.6337 53.2899 55.1537C52.9999 53.7837 52.5399 51.9937 51.2699 50.1937C50.6299 49.2837 49.8699 48.2337 48.5199 47.8937C46.8299 47.4737 45.3199 48.4337 44.7799 48.7737C43.2299 49.7537 42.5399 51.1437 42.0499 52.1437V52.1337Z" stroke="black" stroke-width="0.75" stroke-linecap="round" stroke-linejoin="round"/>
<path d="M50.92 46.5636C54.4 48.5036 55.06 52.6236 55.55 55.6936C55.78 57.1636 56.18 60.8236 54.6 64.9536C53.86 66.8836 52.9801 69.1737 50.6101 70.8537C49.9201 71.3437 46.8801 73.4837 43.6401 72.3737C41.0401 71.4937 39.82 69.0437 39.4 68.2237C38.86 67.1437 38.6901 66.2536 38.3601 64.4536C38.1801 63.4836 37.86 61.7136 37.9 59.3936C37.92 57.9036 37.99 55.4036 39.07 52.5136C40.01 49.9836 40.77 47.9537 42.85 46.6737C45.26 45.1737 48.55 45.2436 50.94 46.5736L50.92 46.5636Z" stroke="black" stroke-width="2" stroke-linecap="round" stroke-linejoin="round"/>
<path d="M48.19 48.4736C47.22 51.3936 46.99 55.1836 47.41 58.2036C47.69 58.0636 48.05 58.2536 48.19 58.5036C48.33 58.7636 48.31 59.0636 48.29 59.3536C48.27 59.6036 48.24 59.8736 48.03 60.0436C47.66 60.3436 47.03 60.0036 46.93 59.5536C46.83 59.1036 47.08 58.6736 47.32 58.2836C48.31 56.6436 51.23 55.8536 53.28 55.8336" stroke="black" stroke-width="0.75" stroke-linecap="round" stroke-linejoin="round"/>
<path d="M48.31 60.4636C49.18 60.7336 49.93 61.3036 50.54 61.9836C51.15 62.6636 51.63 63.4436 52.11 64.2236" stroke="black" stroke-width="0.75" stroke-linecap="round" stroke-linejoin="round"/>
<path d="M47.19 60.4436C47.44 62.5936 47.28 64.8036 46.72 66.8936C46.43 67.9836 45.9601 69.1136 45.0101 69.7036" stroke="black" stroke-width="0.75" stroke-linecap="round" stroke-linejoin="round"/>
<path d="M46.44 60.1936C45.61 60.6436 44.73 61.0036 43.8 61.2536C42.97 61.4836 42.0501 61.6336 41.2401 61.3336" stroke="black" stroke-width="0.75" stroke-linecap="round" stroke-linejoin="round"/>
<path d="M46.69 58.9037C46.12 58.8537 45.0101 58.6738 43.8901 57.8538C42.1201 56.5538 41.63 54.5837 41.52 54.0637" stroke="black" stroke-width="0.75" stroke-linecap="round" stroke-linejoin="round"/>
<path d="M24.93 73.4338C24.39 69.6338 24.4901 65.7538 25.2401 61.9838C25.6301 60.0238 26.32 58.1937 27.98 56.6437C29.14 55.5537 30.16 55.2537 33.35 53.8438C35.64 52.8238 37.48 51.9337 38.71 51.3137C38.85 51.9937 38.92 52.9237 38.46 53.7637C37.64 55.2837 35.73 55.3737 33.47 56.2537C32.1 56.7937 29.52 57.8037 28.21 59.6937C25.53 63.5637 27.36 72.3237 26.58 73.3438C26.4 73.5837 26.16 73.6738 24.93 73.4338Z" fill="#4D4D4D" stroke="black" stroke-width="0.75" stroke-linecap="round" stroke-linejoin="round"/>
<path d="M31.11 68.0136C30.49 68.6136 30.11 69.4236 29.86 70.2536C29.52 71.4036 29.43 72.6437 29.76 73.8037C30.09 74.9637 30.8599 76.0137 31.9299 76.5337C32.9999 77.0537 34.38 77.0036 35.33 76.2636C36.63 75.2536 36.82 73.3837 36.86 71.7337C36.89 70.5737 36.86 69.3137 36.12 68.4337C34.93 67.0337 32.45 66.7036 31.1 68.0036L31.11 68.0136Z" stroke="black" stroke-width="2" stroke-linecap="round" stroke-linejoin="round"/>
<path d="M33.5199 71.5337C33.2699 71.6937 33.02 71.9137 32.95 72.2037C32.88 72.4937 33.08 72.8637 33.38 72.8537C33.65 72.8537 33.85 72.5537 33.82 72.2837C33.79 72.0137 33.6099 71.7837 33.4099 71.6137" stroke="black" stroke-width="0.75" stroke-linecap="round" stroke-linejoin="round"/>
<path d="M25.17 74.1337C25.03 75.1037 24.07 75.8137 23.1 75.9337C22.13 76.0537 21.15 75.6837 20.3 75.1937C17.76 73.7337 15.8301 71.1437 12.9901 70.4237" stroke="black" stroke-width="0.75" stroke-linecap="round" stroke-linejoin="round"/>
<path d="M13.19 52.1637C12.59 52.6037 11.7301 53.3537 11.0001 54.4837C10.7001 54.9437 9.74999 56.5237 9.54999 60.6637C9.46999 62.3437 9.48997 64.7737 10.02 67.6837" stroke="black" stroke-width="0.75" stroke-linecap="round" stroke-linejoin="round"/>
<path d="M29.8 58.1238C30.08 61.6638 30.3501 65.2038 30.6301 68.7338" stroke="black" stroke-width="0.75" stroke-linecap="round" stroke-linejoin="round"/>
<path d="M32.6001 56.7437C32.4701 58.3337 32.4201 60.2837 32.6001 62.4937C32.7501 64.2937 33.0201 65.8736 33.3201 67.2036C33.9001 67.1536 34.5501 67.0136 35.0701 66.6936C35.5801 66.3736 35.91 66.0036 36.03 65.8636C36.42 65.4236 37.0901 64.7737 38.3601 63.8737" stroke="black" stroke-width="0.75" stroke-linecap="round" stroke-linejoin="round"/>
<path d="M26.8801 66.1237C27.7101 65.9637 28.58 65.7437 29.48 65.4737C33.01 64.3937 35.74 62.7537 37.69 61.2837" stroke="black" stroke-width="0.75" stroke-linecap="round" stroke-linejoin="round"/>
<path d="M26.9901 70.0938C27.9301 70.1537 28.5301 70.1737 28.8901 70.1437C28.9701 70.1437 29.16 70.1238 29.33 70.2338C29.46 70.3238 29.52 70.4837 29.54 70.6337C29.63 71.1937 29.34 71.7437 28.94 72.1437C28.34 72.7337 27.72 73.0338 27.56 73.1038C26.77 73.4338 25.65 74.0738 24.28 75.4838" stroke="black" stroke-width="0.75" stroke-linecap="round" stroke-linejoin="round"/>
<path d="M47.72 60.0036C48.0459 60.0036 48.31 59.547 48.31 58.9836C48.31 58.4203 48.0459 57.9636 47.72 57.9636C47.3942 57.9636 47.1301 58.4203 47.1301 58.9836C47.1301 59.547 47.3942 60.0036 47.72 60.0036Z" fill="#1A1A1A" stroke="black" stroke-width="0.75" stroke-linecap="round" stroke-linejoin="round"/>
<path d="M25.91 9.2437C25.29 10.2537 25.12 11.4837 25.17 12.6737C25.22 13.8737 25.4701 15.0737 25.9801 16.1637C26.3801 17.0137 26.9301 17.7837 27.5001 18.5337C28.3601 19.6537 29.6001 20.8537 30.9601 20.4837C31.8001 20.2637 32.3801 19.4836 32.7301 18.6936C33.0801 17.9036 33.3 17.0436 33.77 16.3136C34.15 15.7236 34.6801 15.2437 35.1401 14.7037C35.6001 14.1637 36 13.5337 36.04 12.8337C36.08 12.1337 35.6501 11.3637 34.9601 11.2237C34.7101 11.1737 34.4201 11.1936 34.2601 11.0036C34.1501 10.8736 34.1401 10.6837 34.0901 10.5237C33.9601 10.0937 33.56 9.82367 33.18 9.59367C30.95 8.25367 27.73 6.2737 25.9 9.2437H25.91Z" fill="#C7B299" stroke="black" stroke-width="0.75" stroke-linecap="round" stroke-linejoin="round"/>
<path d="M27.84 12.6937C27.66 12.6937 27.48 12.6837 27.31 12.6837C27.19 12.6837 27.05 12.6937 26.98 12.7937C26.9 12.8937 26.95 13.0537 27.05 13.1437C27.15 13.2337 27.29 13.2437 27.42 13.2437C27.59 13.2437 27.7801 13.2037 27.8801 13.0637C27.9801 12.9237 27.94 12.6837 27.77 12.6537" stroke="black" stroke-width="0.75" stroke-linecap="round" stroke-linejoin="round"/>
<path d="M31.6101 11.7636C31.4301 11.7136 31.2001 11.6937 31.1201 11.8637C31.0701 11.9637 31.12 12.0936 31.2 12.1636C31.28 12.2336 31.3901 12.2736 31.5001 12.3136C31.6301 12.3536 31.77 12.3936 31.9 12.3836C32.03 12.3736 32.17 12.2836 32.2 12.1436C32.23 11.9936 32.11 11.8536 31.98 11.7936C31.85 11.7336 31.69 11.7436 31.54 11.7536" stroke="black" stroke-width="0.75" stroke-linecap="round" stroke-linejoin="round"/>
<path d="M29.53 14.6637L29.36 15.4337C29.6 15.4837 29.85 15.4537 30.07 15.3437" stroke="black" stroke-width="0.75" stroke-linecap="round" stroke-linejoin="round"/>
<path d="M28.98 17.4937C29.36 17.5637 29.71 17.8137 30.09 17.7837C30.55 17.7537 30.89 17.3837 31.18 17.0237" stroke="black" stroke-width="0.75" stroke-linecap="round" stroke-linejoin="round"/>
<path d="M42.87 44.4338C43.57 43.9238 43.62 42.9237 43.73 42.0637C44.11 39.0637 45.93 36.4837 47.34 33.8137C47.5 33.5137 47.65 33.1838 47.59 32.8538C47.54 32.5738 47.3301 32.3438 47.1301 32.1438C46.0201 31.0338 44.74 30.1138 43.34 29.4138C43.49 28.7138 43.49 27.9038 43.8 27.2638C44.12 26.6138 44.72 25.9238 45.42 26.0938C45.66 26.1538 45.87 26.3138 46.07 26.4638C48.12 28.0538 50.16 29.6438 52.21 31.2338C52.52 31.4738 52.83 31.7238 52.98 32.0838C53.15 32.5038 53.04 32.9738 52.9 33.4038C52.65 34.1838 52.3 34.9238 51.94 35.6538C50.88 37.8638 49.8299 40.0838 48.7699 42.2938C48.4399 42.9738 48.2 43.6638 47.6 44.1238C47 44.5838 46.3001 44.9538 45.8801 45.5838C45.4001 46.3038 45.38 47.2238 45.17 48.0738C44.96 48.9238 44.42 49.8238 43.56 49.8938C43.02 49.9438 42.49 49.6238 42.18 49.1838C41.87 48.7438 41.74 48.1938 41.71 47.6438C41.64 46.4738 41.9 45.1038 42.86 44.4238L42.87 44.4338Z" fill="#C7B299" stroke="black" stroke-width="0.75" stroke-linecap="round" stroke-linejoin="round"/>
<path d="M27.82 21.2336C27.16 21.1836 26.5 21.1236 25.83 21.0736C25.58 21.0536 25.32 21.0336 25.08 21.1036C24.77 21.1936 24.52 21.4236 24.29 21.6536C23.71 22.2336 23.17 22.8536 22.68 23.5036C22.21 24.1336 21.7901 24.7936 21.3601 25.4536C21.0001 26.0036 20.65 26.5636 20.29 27.1136C20.13 27.3636 19.97 27.6236 19.96 27.9136C19.95 28.2036 20.0901 28.4736 20.2401 28.7136C20.6801 29.3936 21.2701 29.9636 21.8501 30.5136C22.0701 30.7236 22.3 30.9436 22.59 31.0336C23.31 31.2636 24.02 30.6736 24.55 30.1336C25.17 29.4936 25.8 28.8636 26.42 28.2236C26.99 29.3636 27.18 30.6936 26.94 31.9436C26.56 33.9536 27.0501 36.1236 27.5101 38.1236C27.5501 38.3136 27.6 38.4936 27.69 38.6636C28.02 39.2936 28.76 39.4936 29.09 39.5936C30.11 39.8736 35.09 41.0836 41.92 42.6436C42.29 41.0936 42.27 39.8436 42.19 39.0236C42.1 38.1236 41.88 37.3036 41.77 36.8136C41.61 36.0836 41.3001 35.3936 41.1201 34.6636C40.8501 33.5736 40.88 32.4336 40.92 31.3136C40.92 31.1736 40.9301 31.0136 41.0101 30.8936C41.0901 30.7736 41.2701 30.7036 41.3801 30.7936C41.8801 30.7036 42.5501 30.6636 42.8701 31.0636C42.9501 31.1636 43 31.2836 43.09 31.3736C43.31 31.5936 43.7 31.5536 43.95 31.3736C44.2 31.1936 44.3501 30.9036 44.5001 30.6336C45.2301 29.3336 46.17 28.1536 47.28 27.1636C47.53 26.9436 47.8 26.6736 47.77 26.3436C47.75 26.0936 47.5401 25.8936 47.3501 25.7236C46.2101 24.7236 44.98 23.8336 43.92 22.7636C43.47 22.3036 43.05 21.8136 42.59 21.3636C42.17 20.9536 41.94 20.7536 41.71 20.6136C40.96 20.1836 40.3701 20.3736 39.3601 20.3436C37.4001 20.2736 36.6701 19.4336 36.2401 19.8536C35.7401 20.3336 36.8 21.3736 36.33 22.4736C35.77 23.8036 33.51 24.0036 32.18 24.1636C31.46 24.2436 30.69 24.2636 30.06 23.9036C29.49 23.5736 29.14 22.9836 28.81 22.4136C28.59 22.0336 28.04 21.6036 27.82 21.2236V21.2336Z" fill="#ED68A3" stroke="black" stroke-width="0.75" stroke-linecap="round" stroke-linejoin="round"/>
</svg>
