<svg width="41" height="41" viewBox="0 0 41 41" fill="none" xmlns="http://www.w3.org/2000/svg">
<path d="M37.9014 23.6096C39.4391 14.1361 33.006 5.20975 23.5325 3.67199C14.059 2.13423 5.13267 8.56739 3.59491 18.0409C2.05715 27.5143 8.49031 36.4407 17.9638 37.9785C27.4372 39.5162 36.3636 33.083 37.9014 23.6096Z" fill="black"/>
<path d="M18.6512 29.0545C20.4906 29.0545 21.7899 27.5626 21.7899 25.727C21.7899 25.3455 21.8012 24.643 21.8012 24.643C21.8314 20.8849 21.7937 13.5992 21.8163 9.99977C22.7606 9.99977 23.871 10.0111 24.8832 10.0073C24.8492 9.80715 24.8228 9.60319 24.8115 9.39546C24.7699 8.946 24.7774 8.92334 24.7774 8.92334C23.5802 8.93845 22.1071 8.92334 20.9023 8.92334C20.8796 12.5228 20.9137 19.8047 20.8872 23.5666C20.8872 23.5666 20.8759 24.2691 20.8759 24.6506C20.8759 26.4862 19.5766 27.978 17.7372 27.978C16.9705 27.978 16.2717 27.7174 15.709 27.2831C16.268 28.3369 17.3746 29.0545 18.6475 29.0545H18.6512Z" fill="white"/>
<path d="M27.2298 13.9655C27.6604 14.4036 28.1628 14.7548 28.718 15.0154C29.2014 15.2421 29.7151 15.4045 30.2363 15.4951C30.2363 15.0532 30.2363 14.6868 30.2363 14.5169C30.0135 14.5093 29.7944 14.4942 29.5753 14.4602C28.9635 14.3771 28.3629 14.1996 27.8039 13.9352C27.3582 13.7275 26.9503 13.4556 26.5802 13.1345C26.6482 13.2403 26.7162 13.346 26.7917 13.448C26.9201 13.6293 27.0675 13.8068 27.2261 13.9655H27.2298Z" fill="white"/>
<path d="M18.5765 18.4678C18.5765 17.9768 18.5765 17.5689 18.5765 17.3913C11.3814 16.9948 7.72149 25.0321 12.3671 29.5569C9.34935 25.1643 12.5107 18.7435 18.5765 18.4716V18.4678Z" fill="white"/>
<path d="M18.5761 21.331C18.274 21.331 17.7981 21.3234 17.7376 21.3234C15.8983 21.3234 14.4102 22.8153 14.4102 24.6547C14.4102 25.7273 14.92 26.6791 15.7094 27.2872C15.4639 26.8227 15.3242 26.2939 15.3242 25.7311C15.3242 23.8917 16.8123 22.3999 18.6517 22.3999C18.7121 22.3999 19.188 22.4074 19.4901 22.4074C19.4901 21.7918 19.4901 19.0233 19.4901 18.468C19.1804 18.4492 18.8783 18.4567 18.5799 18.468C18.5799 19.5029 18.5799 20.9117 18.5799 21.331H18.5761Z" fill="white"/>
<path d="M26.3198 12.889C26.4029 12.9759 26.4935 13.0552 26.5841 13.1345C26.078 12.3338 25.7683 11.4273 25.7192 10.4755C25.6777 10.0261 25.6852 10.0034 25.6852 10.0034C25.4284 10.0034 25.1564 10.0072 24.877 10.011C25.0243 10.8608 25.3717 11.6653 25.8779 12.3716C26.0063 12.5529 26.1536 12.7304 26.3122 12.889H26.3198Z" fill="white"/>
<path d="M31.1539 19.4046C31.1539 18.7928 31.1463 16.1527 31.1539 15.5937C30.931 15.5861 30.712 15.571 30.4929 15.537C30.4098 15.5257 30.3267 15.5068 30.2436 15.4917C30.2436 16.4964 30.2474 17.9014 30.2474 18.3244C28.4194 18.3055 26.1683 17.6106 24.7897 16.4737C24.7859 19.4122 24.937 22.6755 24.7973 25.7159C24.7746 26.1767 24.5971 26.6148 24.4498 27.0416C22.7275 32.0876 15.8723 32.8694 12.7563 29.9083C12.6204 29.795 12.4957 29.6741 12.3711 29.5533C12.7186 30.0632 13.1492 30.5428 13.6666 30.9847C16.7826 33.9459 23.6377 33.1678 25.36 28.118C25.5073 27.6875 25.6849 27.2531 25.7075 26.7923C25.8473 23.7557 25.6962 20.4924 25.7 17.5501C27.0785 18.6908 29.3296 19.382 31.1576 19.4008L31.1539 19.4046Z" fill="white"/>
<path d="M24.4424 27.0416C24.5897 26.611 24.7672 26.1767 24.7899 25.7159C24.9296 22.6792 24.7786 19.4159 24.7823 16.4737C26.1609 17.6143 28.412 18.3055 30.2401 18.3244C30.2401 17.8976 30.2401 16.4964 30.2363 15.4917C29.7113 15.3973 29.1976 15.2386 28.7179 15.012C28.1627 14.7552 27.6604 14.4001 27.2298 13.962C27.0712 13.8034 26.9239 13.6259 26.7955 13.4446C26.7237 13.3426 26.6519 13.2368 26.5839 13.1311C26.4933 13.0518 26.4027 12.9725 26.3196 12.8856C26.1609 12.727 26.0136 12.5494 25.8852 12.3681C25.3791 11.6619 25.0278 10.8574 24.8843 10.0076C23.8721 10.0076 22.7617 10 21.8174 10C21.7948 13.5994 21.8288 20.8814 21.8023 24.6432C21.8023 24.6432 21.791 25.3457 21.791 25.7272C21.791 27.5628 20.4917 29.0547 18.6524 29.0547C17.3757 29.0547 16.2691 28.3371 15.7139 27.2833C14.9245 26.6752 14.4146 25.7234 14.4146 24.6508C14.4146 22.8114 15.9027 21.3195 17.7421 21.3195C17.8025 21.3195 18.2785 21.3271 18.5806 21.3271C18.5806 20.9078 18.5806 19.499 18.5806 18.4641C12.5148 18.7361 9.35351 25.1569 12.3713 29.5495C12.4959 29.6704 12.6206 29.7874 12.7565 29.9045C15.8725 32.8657 22.7277 32.0876 24.45 27.0378L24.4424 27.0416Z" fill="white"/>
</svg>
