<svg width="65" height="96" viewBox="0 0 65 96" fill="none" xmlns="http://www.w3.org/2000/svg">
<path d="M56.7124 90.1209C56.422 92.6177 55.9575 94.2783 53.6117 94.6151C51.742 94.8706 49.9883 93.9997 49.849 93.6397C49.489 92.9429 49.4309 92.2693 49.5355 91.5609C49.5355 91.5376 49.5355 91.5261 49.5355 91.5144C49.5819 91.0731 49.7096 90.5621 49.9535 89.9699C49.9535 89.9467 49.9767 89.9119 49.9999 89.8654C50.3135 89.1105 50.6968 87.9841 50.8361 86.6021C50.8826 86.2073 50.9058 85.8473 50.9058 85.4989C50.9406 84.2214 50.8361 83.3388 51.2309 83.1762C51.6722 83.002 52.0207 83.9891 53.3097 84.2562C54.3897 84.4769 55.2955 84.0356 55.4349 83.9659C55.911 83.7337 56.2246 83.4317 56.4104 83.211C56.5498 83.873 56.6543 84.5117 56.724 85.1156C56.9795 87.2176 56.875 88.9131 56.724 90.1209H56.7124Z" fill="#B05A3B" stroke="black" stroke-width="0.75" stroke-linecap="round" stroke-linejoin="round"/>
<path d="M43.3349 88.3094C42.4523 89.9004 38.9335 89.192 38.2135 89.192C37.4935 89.192 35.3915 90.7831 34.3347 90.9573C32.6392 91.2244 29.492 91.3521 28.8765 90.0863C28.621 89.5869 28.7139 88.925 29.0159 88.472C29.0159 88.472 29.0159 88.4488 29.0159 88.4372C29.7591 86.7533 32.3488 86.2539 33.0108 86.1145C33.034 86.1145 33.0689 86.1146 33.1153 86.0914C35.0083 85.6733 35.6005 84.2681 36.9476 83.1416C37.2844 82.8629 37.656 82.5958 38.1089 82.3752C38.5386 82.1661 39.5374 81.69 40.8032 81.8526C41.9761 81.9919 42.5684 82.2938 42.9748 82.6422C42.9748 82.6422 43.1723 83.1648 43.3581 83.8732C43.5439 84.5584 43.7065 85.4177 43.6601 86.1726C43.7065 86.9274 43.6368 87.7172 43.3116 88.3094H43.3349Z" fill="#B05A3B" stroke="black" stroke-width="0.75" stroke-linecap="round" stroke-linejoin="round"/>
<path d="M44.9484 57.3605C42.9625 60.1128 40.9999 62.8651 39.0141 65.6174C39.2696 66.4304 39.6644 67.6846 40.0592 69.2175C40.698 71.6795 41.0116 73.4098 41.3367 75.0705C41.7083 76.917 42.3935 79.5299 43.1832 82.7119C42.4632 83.2461 41.6502 83.4552 41.2322 83.5481C40.7444 83.6758 39.5715 83.9661 38.3638 83.4203C37.8412 83.1648 37.2489 82.6074 37.2489 82.6074C37.2489 82.6074 33.672 75.0472 31.6397 70.4252C30.2345 67.2548 28.9919 64.8974 29.3984 61.7967C29.4565 61.3438 30.0836 59.7993 31.3262 56.745C32.4875 53.8998 33.2655 51.8094 34.0204 50.1952C34.4501 49.2661 34.8798 48.4997 35.3676 47.8261C35.4953 47.6403 35.6346 47.4661 35.774 47.3035C36.703 46.1887 37.8063 45.5732 38.3753 45.1086C41.9986 45.9099 44.8206 48.4533 45.6103 51.6933C46.2491 54.3295 45.3432 56.5476 44.9484 57.3721V57.3605Z" fill="#4F4946" stroke="black" stroke-width="0.75" stroke-linecap="round" stroke-linejoin="round"/>
<path d="M56.7712 83.4201C55.6564 84.2562 54.2976 84.7092 52.9041 84.6163C52.6718 84.6163 52.4512 84.5814 52.2189 84.535C51.8705 84.4769 51.5337 84.3724 51.1853 84.233C50.9531 84.1401 50.7324 84.0356 50.5118 83.9079C49.8034 81.5853 48.6769 77.9736 47.1324 73.5606C45.7272 69.5657 45.5181 69.2638 44.9142 67.1269C43.3 61.483 43.8226 60.2404 42.6148 55.8738C42.4407 55.2119 42.0342 53.5396 41.9994 51.3215C41.9994 50.7641 42.0807 50.0092 42.1155 49.7421C42.1155 49.684 42.1155 49.6492 42.1155 49.6492C44.9491 48.5692 47.7827 47.5008 50.6279 46.444C50.6279 46.444 50.6395 46.444 50.6511 46.444H50.6627C51.1389 46.2698 51.6266 46.2001 52.1027 46.2466C52.486 46.2698 52.846 46.3627 53.206 46.502C53.6589 47.164 54.1931 48.093 54.6112 49.2776C55.6564 52.2273 55.1454 54.5499 54.7389 58.4635C54.4951 59.6829 54.379 62.412 54.3325 64.4211C54.3325 64.6301 54.3325 64.8392 54.3209 65.0366C54.3209 65.3734 54.3093 65.7101 54.2976 66.0469C54.2976 66.1863 54.2976 66.314 54.2976 66.4186C54.2976 66.5579 54.2976 66.6973 54.2976 66.8366C54.2976 66.8366 55.819 77.7878 56.7829 83.4433L56.7712 83.4201Z" fill="#4F4946" stroke="black" stroke-width="0.75" stroke-linecap="round" stroke-linejoin="round"/>
<path d="M34.0089 26.2489C33.916 26.8644 32.267 29.3496 29.8747 32.6478C24.8926 32.7755 22.9765 32.9148 22.0126 32.9729C21.4784 33.0077 21.2345 33.0193 20.9209 32.9729C19.957 32.8567 18.9467 32.7058 18.9467 32.7058C14.9866 32.1368 7.83292 27.8747 6.07934 27.7006C5.31287 27.596 5.30132 27.689 4.47679 27.2941C3.65226 26.5044 4.18643 27.0154 1.17864 24.1237C1.01605 23.9611 0.737355 23.6824 0.760581 23.3573C0.760581 23.1366 0.911503 22.9159 1.07409 22.823C1.74765 22.4166 3.08321 24.1354 3.52451 23.8218C3.67548 23.7173 3.65221 23.4502 3.62899 23.2876C3.50124 21.9288 1.73605 21.1972 1.88702 20.8372C1.93347 20.7327 2.15414 20.6281 3.07158 20.7791C4.12837 21.4643 5.20837 22.2308 6.31161 23.0437C7.25228 23.7405 8.14647 24.4373 8.98262 25.1108C12.8846 25.7728 16.775 26.4347 20.6887 27.1199C21.4435 26.8876 22.1752 26.6786 22.9068 26.4928C22.9416 26.4928 22.9764 26.4696 22.9997 26.4579C26.4952 25.5173 29.9327 24.8786 33.6489 24.4605C33.8464 25.2967 34.1831 24.9018 33.9857 26.2257L34.0089 26.2489Z" fill="#FFCFCD" stroke="black" stroke-width="0.75" stroke-linecap="round" stroke-linejoin="round"/>
<path d="M34.7996 24.0656C34.7996 24.0656 31.7221 29.8141 29.7711 32.3225C29.7595 32.3457 29.7363 32.3574 29.7246 32.3806C28.5982 32.9613 27.2975 32.8568 21.8393 33.2516C21.758 33.2516 21.6883 33.2516 21.6535 33.2516C20.887 30.6503 21.4677 27.9211 22.7219 26.2256C26.6936 25.0643 30.8279 24.3559 34.8112 24.0424L34.7996 24.0656Z" fill="#5ED45E" stroke="black" stroke-width="0.75" stroke-linecap="round" stroke-linejoin="round"/>
<path d="M52.9734 47.0478C51.3359 50.2878 44.5655 50.8452 41.6855 50.3923C37.017 49.6723 35.4028 48.1626 34.7873 46.6297C34.3228 45.48 34.4041 44.3419 34.1602 43.4709C33.3821 40.6141 32.1511 39.3714 30.595 36.8979C29.4453 35.0746 28.9459 34.1223 28.5975 33.3675C28.3071 32.7404 25.6246 26.748 27.4827 25.2151C27.8078 24.948 27.8891 25.1338 29.4685 24.797C31.5008 24.3673 31.6633 23.9725 33.475 23.6124C34.5318 23.4034 35.6815 23.2757 36.9009 23.2524C37.9693 23.2524 38.9448 23.3222 39.8506 23.4499C41.7435 23.7286 43.2532 24.228 44.3565 24.5996C44.9255 24.797 45.5526 25.0177 46.2494 25.4473C46.8649 25.8073 48.4095 26.7596 49.3617 28.5945C49.7566 29.361 49.8959 30.139 50.2327 31.672C51.1037 35.5275 50.3953 37.1301 50.7321 39.3134C51.8353 46.3626 53.9722 45.0619 52.9618 47.0593L52.9734 47.0478Z" fill="#5ED45E" stroke="black" stroke-width="0.75" stroke-linecap="round" stroke-linejoin="round"/>
<path d="M51.9616 30.0116C52.6817 30.7897 53.3437 31.533 53.9708 32.2414C55.8637 34.3782 57.2224 36.0504 58.465 37.4091C58.6508 37.8504 58.825 38.2802 58.9992 38.6983C59.0921 38.9073 59.1618 39.1047 59.2431 39.3137C59.5567 40.115 59.8353 40.8931 60.0908 41.648C60.8457 43.9706 61.3799 46.2119 61.9722 49.3242V49.3475C62.3205 50.1836 64.3529 55.6301 63.6213 56.1527C63.54 56.2224 63.3774 56.2805 63.238 56.234C63.0057 56.1643 62.9709 55.8275 62.7618 55.2585C62.5644 54.7359 62.3322 54.3411 62.2857 54.3411C62.2741 54.3643 62.5761 55.1192 62.7387 56.176C62.8548 56.9889 62.7967 57.2908 62.6225 57.5114C62.4599 57.7205 62.1464 57.9295 61.9257 57.8366C61.7051 57.7554 61.6702 57.4534 61.5657 56.8379C61.5657 56.8379 61.287 55.1888 61.229 55.1308C61.2057 55.1308 61.8793 57.8367 60.9154 58.4405C60.6715 58.6031 60.2999 58.6379 60.1141 58.4753C59.8818 58.2663 60.0328 57.8715 60.056 56.896C60.0793 56.234 60.0444 55.6069 59.9631 55.5953C59.8237 55.6302 59.905 58.0225 58.7321 58.5799C58.4882 58.696 57.9076 58.8818 57.745 58.7192C57.4663 58.4173 58.1515 57.616 58.2908 56.5244C58.4186 55.6069 58.1282 54.8056 57.8611 54.283C57.0134 55.3514 56.7463 55.3049 56.6534 55.2585C56.4792 55.1888 56.4792 54.8172 56.4792 54.585C56.4792 54.0624 56.6301 53.6675 56.6882 53.5514C57.1295 52.4946 57.6637 50.532 57.8147 50.2881C56.9321 48.0003 56.2701 46.1538 52.7862 40.3357C51.9268 39.6157 51.0094 38.8143 50.0687 37.9898C49.4997 37.502 48.8958 36.9795 48.3384 36.4917C47.5951 35.8414 46.8635 35.2259 46.1667 34.6337C43.9486 32.9265 41.2776 29.6981 41.9163 28.0258C42.5435 26.4464 45.4235 22.8231 51.9733 30.0116H51.9616Z" fill="#FFCFCD" stroke="black" stroke-width="0.75" stroke-linecap="round" stroke-linejoin="round"/>
<path d="M54.8084 32.7404C55.0407 33.0424 52.7877 35.6669 51.58 36.596C50.3722 37.525 49.1064 37.4553 49.1064 37.4553C43.416 32.4965 41.8714 31.6139 41.4301 29.57C41.2094 28.5016 41.4533 27.8513 41.5114 27.6887C42.092 26.2486 43.7992 25.7377 44.1011 25.6796C45.4366 25.4241 48.5025 24.4835 54.7968 32.7404H54.8084Z" fill="#5ED45E" stroke="black" stroke-width="0.75" stroke-linecap="round" stroke-linejoin="round"/>
<path d="M30.6188 23.9378C30.5142 23.6939 30.4213 23.4733 30.3284 23.2991C29.6781 22.1261 28.993 21.0229 28.3426 20.0125C31.3853 19.9777 34.4047 19.6758 37.4009 19.0835C37.4241 20.9068 37.8886 22.6139 38.7015 24.1004C38.6435 24.3559 38.0628 26.7713 35.7053 27.7585C31.8381 29.3959 30.944 24.9597 30.6072 23.9378H30.6188Z" fill="#FFCFCD" stroke="black" stroke-width="0.75" stroke-linecap="round" stroke-linejoin="round"/>
<path d="M40.0132 13.7528C40.1525 14.9373 39.7345 15.0767 40.0132 16.5051C40.2919 18.0032 40.8029 18.3051 39.5138 19.8032C39.1074 20.291 38.6428 20.6162 37.9228 20.6742C34.3692 29.3957 24.08 27.0266 26.3445 13.2999C27.8658 10.1992 32.1162 6.72686 35.275 7.8185C36.4015 8.20173 37.1563 9.16561 37.9576 10.1295C38.9564 11.314 39.839 12.3128 40.0132 13.7644V13.7528Z" fill="#FFCFCD" stroke="black" stroke-width="0.75" stroke-linecap="round" stroke-linejoin="round"/>
<path d="M25.6136 17.6667C25.0097 17.9338 23.5698 16.7957 23.1285 15.3209C22.6988 13.8925 23.5349 13.3002 23.802 11.1866C24.1968 8.05106 22.6871 6.62264 23.5465 5.51939C23.9646 4.98519 24.9749 4.47421 27.7969 5.07809C30.0963 1.53609 31.3853 0.827654 32.1518 1.0483C33.6731 1.4896 33.5222 5.72844 35.09 5.9607C35.8332 6.06522 36.0654 5.14776 37.3893 4.92711C38.4577 4.7413 40.0023 5.04323 40.6062 5.9955C41.5933 7.55166 39.7235 10.2691 40.339 10.6407C40.6294 10.8149 41.0126 10.2343 41.7675 10.3388C42.4411 10.4317 42.9985 11.0007 43.2191 11.5698C43.5095 12.3246 43.2191 13.0795 42.9985 13.6021C42.4875 14.8331 40.5714 19.4319 38.3649 21.5571C38.0978 21.8126 37.8074 22.0448 37.6797 21.9752C37.5287 21.8823 37.6448 21.3829 37.9003 20.6512C39.9674 20.1867 40.0255 16.6331 39.3287 16.3544C39.2939 16.3195 39.2707 16.2963 39.2358 16.2963C39.2126 16.2731 39.201 16.2615 39.1777 16.2615C39.0384 16.1686 38.7597 16.1222 38.5971 16.1686C37.7377 16.2615 37.2848 16.9932 37.1339 17.8641C37.1223 18.1312 36.379 19.0719 36.1932 17.9686C36.1932 17.9338 36.0655 17.2022 36.0422 17.2022C35.9958 17.0396 35.961 16.8654 35.9029 16.7144C35.9029 16.6912 35.9029 16.6795 35.8796 16.6447C35.4616 15.5647 34.6254 14.6821 34.1144 14.4963C33.3944 14.2524 33.0693 14.6124 32.1286 14.566C30.6073 14.4499 29.5157 13.8808 29.1557 12.3711C28.1569 12.6846 27.0188 13.2537 26.4033 14.3453C25.5439 15.855 26.2175 17.4112 25.5904 17.6783L25.6136 17.6667Z" fill="#A84549" stroke="black" stroke-width="0.75" stroke-linecap="round" stroke-linejoin="round"/>
<path d="M27.83 18.5728C28.1087 18.805 28.2016 19.0721 28.0855 19.316C28.5732 19.2928 28.9797 19.1069 28.9797 18.9095C28.9797 18.7121 28.5848 18.5263 28.0971 18.4915" stroke="black" stroke-width="0.75" stroke-linecap="round" stroke-linejoin="round"/>
<path d="M32.6379 18.6651C32.5334 18.8045 32.6727 19.0251 32.8469 19.06C33.0211 19.0948 33.1953 19.0135 33.3463 18.9439C33.4624 18.8858 33.6017 18.7697 33.5437 18.6535C33.5204 18.6071 33.474 18.5838 33.4276 18.5606C33.1605 18.4096 32.8585 18.2471 32.5566 18.3051C32.5333 18.4097 32.4985 18.5025 32.4753 18.607" stroke="black" stroke-width="0.75" stroke-linecap="round" stroke-linejoin="round"/>
<path d="M30.0951 22.4398C29.9674 22.8463 30.0951 23.3108 30.4086 23.5895C30.7222 23.8682 31.1983 23.9495 31.5816 23.7869C31.6861 22.9392 31.0125 22.0798 30.1764 21.9637C30.0022 21.9404 29.7467 22.0566 29.828 22.2192" stroke="black" stroke-width="0.75" stroke-linecap="round" stroke-linejoin="round"/>
</svg>
