<svg width="410" height="196" viewBox="0 0 410 196" fill="none" xmlns="http://www.w3.org/2000/svg">
<path d="M57.3817 131.415C57.3817 131.415 57.2842 131.469 57.2301 131.447C57.1759 131.426 57.1434 131.382 57.1542 131.328C57.2301 131.317 57.3168 131.328 57.3926 131.361" stroke="black" stroke-width="0.75" stroke-linecap="round" stroke-linejoin="round"/>
<path d="M72.6437 122.684C77.1726 122.684 80.844 121.481 80.844 119.997C80.844 118.514 77.1726 117.311 72.6437 117.311C68.1148 117.311 64.4434 118.514 64.4434 119.997C64.4434 121.481 68.1148 122.684 72.6437 122.684Z" fill="#333333" fill-opacity="0.87"/>
<path d="M108.946 121.449C109.196 120.636 109.553 119.022 109.13 117.094C108.892 116.022 108.481 115.177 108.123 114.592C108.524 114.473 109.358 114.278 110.3 114.592C111.611 115.025 112.586 116.249 112.857 117.776C112.738 116.986 112.662 115.989 112.749 114.841C112.879 113.205 113.29 111.873 113.669 110.941C114.189 112.674 114.72 114.418 115.24 116.152C115.413 111.678 120.072 109.056 118.544 104.842C121.306 111.039 118.945 113.498 119.974 119.488C120.104 118.946 120.657 117.062 122.509 115.686C124.22 114.418 126.019 114.353 126.593 114.364C125.694 115.274 124.134 117.127 123.441 119.911C123.148 121.102 123.083 122.175 123.105 123.03C118.609 122.489 112.738 123.94 108.946 121.46V121.449Z" fill="#39B54A" stroke="black" stroke-width="2" stroke-linecap="round" stroke-linejoin="round"/>
<path d="M187.449 150.231C174.623 145.519 161.299 140.211 147.574 134.22C138.334 130.191 129.451 126.085 120.926 121.958C120.492 119.271 119.821 115.166 118.932 110.139C117.611 102.654 117.177 100.78 118.196 98.4076C119.582 95.1903 122.15 94.5512 126.678 91.2905C129.245 89.449 132.051 86.4267 137.673 80.3712C140.609 77.2189 147.249 69.9502 157.378 57.1785C161.05 52.5529 165.784 46.4541 171.157 39.1204L190.071 14.9419C189.962 21.7556 189.496 32.1984 187.72 44.8293C185.326 61.869 182.921 65.9855 180.83 82.9494C179.52 93.6088 178.328 103.705 179.487 116.596C180.776 131.014 184.427 142.551 187.438 150.22L187.449 150.231Z" fill="#B2EBB4"/>
<path d="M245.631 170.272C238.828 168.701 231.69 166.816 224.28 164.541C210.404 160.273 197.946 155.377 186.983 150.372C186.236 115.48 186.615 79.2123 188.402 41.6771C188.847 32.4043 189.367 23.2182 189.962 14.1296C198.737 38.2973 210.317 64.9782 225.743 92.9048C233.022 106.077 240.486 118.307 247.917 129.584L245.631 170.261V170.272Z" fill="#B2EBB4"/>
<path d="M79.1785 119.824C78.5503 119.943 77.7161 120.041 76.7304 119.976C75.6038 119.9 74.683 119.651 74.033 119.412C73.7839 118.827 73.4806 117.928 73.3831 116.812C73.2856 115.621 73.4806 114.906 73.5455 114.061C73.6214 113.021 73.5239 111.515 72.6465 109.587C73.0581 109.186 74.1089 108.287 75.7229 108.049C76.5462 107.93 77.2395 108.016 77.7162 108.125C78.182 109.685 78.6152 111.537 78.8969 113.638C79.211 115.968 79.2544 118.058 79.1894 119.824H79.1785Z" fill="#754C24"/>
<path d="M406.941 139.756C406.323 139.81 405.457 139.864 404.406 139.886C403.009 139.908 402.315 139.929 402.045 139.778C401.297 139.355 400.896 138.153 401.2 132.801C401.297 131.068 401.46 129.162 401.698 127.114C402.391 126.843 403.442 126.54 404.731 126.475C406.139 126.41 407.298 126.67 408.035 126.908C408.1 128.707 408.078 130.711 407.916 132.877C407.721 135.445 407.353 137.752 406.93 139.756H406.941Z" fill="#754C24"/>
<path d="M315.893 184.885C315.513 185.015 314.539 185.307 313.358 185.004C311.895 184.636 311.105 183.617 310.888 183.314C310.552 181.862 310.249 180.097 310.151 178.071C310.065 176.273 310.151 174.67 310.314 173.305C310.801 172.915 311.971 172.102 313.694 171.886C315.221 171.701 316.423 172.081 316.998 172.308C317.063 174.063 317.041 176.024 316.878 178.147C316.683 180.649 316.315 182.913 315.893 184.874V184.885Z" fill="#754C24"/>
<path d="M361.206 139.81C342.454 143.634 327.863 147.014 317.832 149.44C303.933 152.809 300.391 153.957 285.984 157.24C279.072 158.81 275.454 159.558 269.941 161.15C259.411 164.205 251.102 167.715 245.621 170.282L247.907 129.606C254.872 130.147 265.391 130.396 277.903 128.36C283.286 127.482 292.072 124.98 309.426 120.008C325.22 115.48 329.91 113.92 339.876 111.537C348.131 109.565 354.988 108.233 359.57 107.409C359.538 112.403 359.635 117.646 359.906 123.128C360.187 128.977 360.642 134.545 361.206 139.821V139.81Z" fill="#B2EBB4"/>
<path d="M372.449 102.47C355.041 106.554 337.004 111.212 318.415 116.498C296.143 122.846 275.009 129.573 255.055 136.485C250.538 131.296 244.006 123.258 237.279 112.642C232.176 104.582 231.158 101.658 219.816 79.0606C207.283 54.0696 205.301 51.2206 200.903 40.4638C196.299 29.2086 193.298 19.73 191.521 13.5879C212.353 12.7321 234.115 11.3455 256.734 9.29814C279.169 7.2616 300.65 4.7376 321.145 1.86694C327.537 19.1017 335.704 38.1456 346.223 58.2402C354.856 74.7275 363.772 89.4707 372.449 102.459V102.47Z" fill="#B2EBB4"/>
<path d="M379.579 110.421C387.953 121.535 399.511 133.126 406.877 132.303C407.332 132.249 407.744 132.585 407.798 133.04C407.852 133.495 407.517 133.906 407.062 133.96C406.758 133.993 406.444 134.015 406.141 134.015C396.066 134.015 382.331 116.834 378.258 111.429C355.401 81.0862 336.194 44.2335 321.159 1.87771C318.938 2.61433 316.652 3.25345 314.377 3.76258C307.824 5.22499 301.042 5.73415 294.488 6.22162C277.145 7.51071 259.336 9.08143 242.113 10.6088C225.008 12.1254 207.329 13.6853 190.094 14.9636C173.509 36.8998 156.372 59.5617 137.686 80.3929C131.273 87.5424 123.657 95.6778 114.471 101.625C104.743 107.93 86.9021 114.668 73.9029 115.047C73.4479 115.047 73.0579 114.7 73.0471 114.245C73.0363 113.79 73.3937 113.4 73.8487 113.389C86.5554 113.021 104.018 106.413 113.561 100.238C122.574 94.3995 130.103 86.3617 136.44 79.288C155.159 58.4134 172.361 35.6648 188.989 13.6637C189.13 13.4687 189.357 13.3495 189.596 13.3387C206.939 12.0496 224.748 10.4789 241.972 8.95147C259.196 7.42407 277.015 5.85328 294.369 4.56419C300.869 4.08755 307.574 3.58927 314.02 2.14853C316.511 1.59606 318.992 0.8811 321.408 0.0469847C321.841 -0.104673 322.307 0.122848 322.458 0.556155C337.483 43.0744 356.701 80.0355 379.59 110.432" fill="#1D1D1B"/>
<path d="M314.54 180.162C309.936 180.162 302.895 176.858 293.124 170.131C283.58 163.566 273.311 155.03 265.814 148.79C264.915 148.043 264.049 147.317 263.225 146.646C245.037 131.577 234.086 110.345 223.491 89.8173C222.765 88.4091 222.04 87.0008 221.314 85.6034C208.033 59.995 197.774 36.6181 189.953 14.1403C189.802 13.707 190.029 13.2304 190.462 13.0787C190.896 12.9271 191.372 13.1545 191.524 13.5878C199.313 35.9898 209.539 59.2909 222.787 84.8343C223.513 86.2317 224.239 87.64 224.964 89.0482C235.483 109.435 246.359 130.505 264.287 145.356C265.11 146.039 265.966 146.754 266.876 147.501C281.034 159.276 307.401 181.202 316.338 178.223C316.771 178.082 317.248 178.309 317.389 178.754C317.53 179.187 317.302 179.663 316.858 179.804C316.165 180.032 315.396 180.151 314.54 180.151V180.162Z" fill="#1D1D1B"/>
<path d="M245.773 171.983C245.773 171.983 245.676 171.983 245.621 171.972C236.879 170.402 228.571 167.423 219.396 163.978C181.795 149.863 150.142 136.929 119.8 123.29C119.529 123.171 119.345 122.911 119.312 122.608C118.554 114.635 117.623 106.576 116.539 98.6352C116.474 98.1802 116.799 97.7578 117.254 97.7036C117.709 97.6386 118.132 97.9635 118.186 98.4185C119.247 106.218 120.168 114.137 120.916 121.969C151.096 135.52 182.586 148.379 219.97 162.418C228.961 165.798 237.118 168.723 245.611 170.282C254.201 165.527 261.675 162.515 269.8 160.522L360.079 138.38C358.964 128.458 358.769 117.484 359.559 107.42C359.592 106.965 359.993 106.619 360.448 106.651C360.903 106.684 361.249 107.085 361.217 107.54C360.415 117.755 360.632 128.891 361.813 138.911C361.867 139.323 361.596 139.713 361.184 139.81L270.19 162.125C262.13 164.097 254.721 167.108 246.152 171.875C246.033 171.94 245.892 171.983 245.751 171.983H245.773Z" fill="#1D1D1B"/>
<path d="M255.413 138.077C255.099 138.077 254.807 137.904 254.666 137.6C254.471 137.189 254.644 136.69 255.056 136.495C264.946 131.772 275.605 128.717 285.907 125.76C314.148 117.657 343.342 109.273 372.45 102.481C372.894 102.372 373.338 102.654 373.446 103.098C373.554 103.542 373.273 103.997 372.829 104.095C343.765 110.876 314.592 119.25 286.373 127.353C276.125 130.288 265.542 133.332 255.782 137.99C255.662 138.044 255.543 138.077 255.424 138.077H255.413Z" fill="#1D1D1B"/>
<path d="M316.142 96.7502C316.066 96.7502 315.99 96.7502 315.914 96.7177C296.134 91.0305 278.119 79.0821 265.207 63.0606C263.668 61.154 262.184 59.1608 260.744 57.2434C259.509 55.586 258.23 53.8745 256.92 52.2279C254.06 48.6098 250.94 45.1217 247.658 41.8719C247.333 41.5469 247.333 41.027 247.658 40.702C247.983 40.377 248.503 40.377 248.828 40.702C252.153 43.9951 255.316 47.5265 258.219 51.2096C259.53 52.867 260.819 54.5895 262.065 56.2577C263.495 58.1751 264.968 60.1466 266.496 62.0315C279.202 77.7931 296.914 89.5465 316.369 95.1362C316.813 95.2661 317.063 95.7211 316.943 96.1652C316.835 96.5335 316.51 96.7718 316.142 96.7718V96.7502Z" fill="#1D1D1B"/>
<path d="M316.131 79.0821C316.131 79.0821 316.066 79.0821 316.033 79.0821C304.561 77.7605 293.306 73.0049 284.358 65.6928C284.001 65.4004 283.947 64.8804 284.239 64.523C284.532 64.1655 285.052 64.1113 285.409 64.4038C294.119 71.51 305.06 76.1356 316.217 77.4246C316.672 77.4788 316.997 77.8905 316.943 78.3455C316.889 78.7679 316.532 79.0821 316.12 79.0821H316.131Z" fill="#1D1D1B"/>
<path d="M186.983 150.383C186.528 150.383 186.16 150.004 186.16 149.549L187.059 52.8456C187.168 41.103 187.276 28.9596 188.879 17.087C188.944 16.632 189.356 16.3179 189.811 16.372C190.266 16.437 190.58 16.8487 190.526 17.3036C188.933 29.0679 188.825 41.1572 188.717 52.8565L187.818 149.56C187.818 150.015 187.438 150.383 186.983 150.383Z" fill="#1D1D1B"/>
<path d="M178.665 146.375C178.665 131.686 178.665 117.007 178.665 102.318C178.665 95.7861 178.665 89.189 180.019 82.7977C180.962 78.3563 186.486 49.2164 187.721 44.8508L186.974 149.559L178.654 146.385L178.665 146.375Z" fill="#1D1D1B"/>
<path d="M186.985 150.383C186.887 150.383 186.779 150.361 186.692 150.329L178.373 147.155C178.048 147.036 177.842 146.721 177.842 146.375V102.318C177.842 95.8296 177.842 89.1349 179.228 82.6245C179.51 81.3029 180.192 77.7823 181.07 73.3192C183.063 63.1149 186.075 47.7108 186.952 44.6127C187.06 44.2119 187.461 43.9627 187.873 44.0169C188.285 44.0711 188.588 44.4285 188.588 44.8401L187.84 149.549C187.84 149.82 187.7 150.08 187.483 150.231C187.342 150.329 187.18 150.372 187.017 150.372L186.985 150.383ZM179.499 145.801L186.161 148.346L186.844 52.6722C185.576 58.8143 183.93 67.2529 182.684 73.6334C181.817 78.0964 181.124 81.617 180.842 82.9603C179.499 89.2974 179.499 95.9162 179.499 102.307V145.79V145.801Z" fill="#1D1D1B"/>
<path d="M136.124 125.262C135.939 125.262 135.755 125.197 135.593 125.078C135.235 124.785 135.181 124.265 135.474 123.908C151.993 103.759 164.679 79.9272 172.164 54.9795C172.294 54.5354 172.76 54.2862 173.204 54.4271C173.648 54.5571 173.897 55.0229 173.756 55.467C166.206 80.6205 153.412 104.658 136.752 124.969C136.589 125.175 136.351 125.273 136.113 125.273L136.124 125.262Z" fill="#1D1D1B"/>
<path d="M125.28 121.795C125.009 121.795 124.749 121.665 124.586 121.427C124.326 121.048 124.424 120.528 124.814 120.268C136.936 112.068 146.024 100.282 154.82 88.8966C155.102 88.5283 155.622 88.4633 155.99 88.745C156.359 89.0266 156.424 89.5466 156.142 89.9149C147.27 101.408 138.084 113.292 125.746 121.644C125.605 121.741 125.442 121.785 125.28 121.785V121.795Z" fill="#1D1D1B"/>
<path d="M207.869 148.075C207.566 148.075 207.273 147.902 207.122 147.61C202.723 138.716 198.791 129.476 195.433 120.138C195.281 119.705 195.498 119.228 195.931 119.076C196.365 118.925 196.841 119.141 196.993 119.575C200.318 128.858 204.229 138.033 208.606 146.873C208.811 147.285 208.638 147.783 208.226 147.989C208.107 148.043 207.977 148.075 207.858 148.075H207.869Z" fill="#1D1D1B"/>
<path d="M225.472 151.499C225.299 151.499 225.125 151.445 224.985 151.336C217.608 145.952 211.455 138.001 206.71 127.699C202.518 118.589 199.885 108.796 197.34 99.3177C197.22 98.8735 197.48 98.4186 197.925 98.2994C198.369 98.1802 198.824 98.4402 198.943 98.8843C201.467 108.298 204.078 118.026 208.216 126.995C212.841 137.037 218.81 144.772 225.96 149.982C226.328 150.253 226.414 150.773 226.144 151.141C225.981 151.369 225.732 151.477 225.472 151.477V151.499Z" fill="#1D1D1B"/>
<path d="M79.4371 121.362C79.4371 121.362 79.3722 121.362 79.3397 121.362C79.0689 121.33 78.8089 121.297 78.5381 121.265C76.8157 121.048 75.1907 120.842 73.5658 121.189C73.1217 121.286 72.6884 121.005 72.5801 120.571C71.9518 117.928 71.9193 116.076 71.8868 114.115C71.8651 112.772 71.8435 111.374 71.616 109.598C71.5726 109.262 71.746 108.926 72.0385 108.764C72.5584 108.471 73.0025 108.179 73.425 107.875C74.6599 107.02 75.8407 106.218 77.9206 106.825C78.1806 106.9 78.3972 107.106 78.4839 107.366C79.8813 111.645 80.4771 116.087 80.2604 120.582C80.2496 120.81 80.1412 121.026 79.9679 121.178C79.8163 121.308 79.6321 121.373 79.4263 121.373L79.4371 121.362ZM75.4507 119.326C76.534 119.326 77.5956 119.455 78.6464 119.585C78.733 115.751 78.2022 111.97 77.0648 108.309C76.0032 108.125 75.3966 108.536 74.3891 109.229C74.075 109.446 73.7283 109.684 73.3492 109.912C73.5225 111.515 73.5442 112.804 73.5658 114.05C73.5983 115.794 73.62 117.321 74.0533 119.391C74.53 119.336 74.9958 119.304 75.4724 119.304L75.4507 119.326Z" fill="#1D1D1B"/>
<path d="M403.411 141.294C402.977 141.294 402.555 141.251 402.154 141.153C401.168 140.926 400.54 140.124 400.497 139.074L400.02 126.583C400.009 126.248 400.204 125.934 400.508 125.793C403.357 124.514 406.303 124.536 408.784 125.836C409.065 125.988 409.239 126.291 409.228 126.605C409.054 130.657 408.491 134.74 407.95 138.684L407.83 139.572C407.798 139.832 407.635 140.059 407.408 140.189C406.086 140.926 404.689 141.305 403.421 141.305L403.411 141.294ZM401.699 127.093L402.154 139.009C402.176 139.453 402.425 139.518 402.522 139.539C403.595 139.789 404.927 139.561 406.227 138.911L406.292 138.445C406.812 134.719 407.343 130.862 407.538 127.071C405.361 126.118 403.248 126.497 401.699 127.093Z" fill="#1D1D1B"/>
<path d="M313.868 186.336C312.362 186.336 311.019 185.426 309.643 184.495C309.448 184.365 309.318 184.148 309.286 183.921C308.831 180.433 308.755 176.89 309.08 173.38C309.102 173.164 309.199 172.969 309.362 172.828C311.821 170.661 315.59 169.762 318.028 172.221C318.19 172.384 318.277 172.611 318.266 172.839C318.136 176.219 317.854 180.638 316.912 184.863C316.869 185.058 316.749 185.242 316.587 185.361C315.601 186.066 314.713 186.347 313.879 186.347L313.868 186.336ZM310.878 183.325C312.925 184.69 313.911 185.101 315.352 184.181C316.175 180.346 316.446 176.327 316.576 173.153C314.865 171.734 312.427 172.471 310.694 173.868C310.434 177.009 310.488 180.194 310.878 183.325Z" fill="#1D1D1B"/>
<path d="M245.773 171.983H245.752C245.297 171.972 244.928 171.582 244.95 171.127L246.272 129.551C246.282 129.096 246.672 128.739 247.127 128.75C247.582 128.761 247.951 129.151 247.929 129.606L246.607 171.181C246.597 171.636 246.228 171.983 245.773 171.983Z" fill="#1D1D1B"/>
<path d="M310.272 157.261C311.128 157.391 313.858 155.431 313.966 154.651C314.356 151.813 314.291 146.656 316.599 144.739C313.186 145.194 311.529 149.072 308.983 151.184C309.861 148.021 306.492 137.459 309.254 135.401C303.166 136.679 303.177 148.205 300.404 153.297C300.794 151.206 296.688 145.27 291.109 144.403C294.597 150.264 295.345 154.142 294.088 158.518C300.642 159.2 304.379 159.85 310.272 157.251V157.261Z" fill="#009245" stroke="black" stroke-width="2" stroke-linecap="round" stroke-linejoin="round"/>
<path d="M344.123 145.367C344.632 140.558 342.282 137.2 338.154 131.837C341.502 133.116 346.236 135.889 348.662 138.521C348.034 135.596 347.081 132.736 345.846 130.017L351.641 135.304C350.341 128.577 356.375 123.052 352.638 117.3C358.899 125.576 356.245 130.061 359.852 138.629C360.329 137.438 363.644 126.714 366.731 125.565C364.012 137.33 365.518 139.171 365.756 142.8C358.877 143.548 350.623 147.751 344.123 145.378V145.367Z" fill="#006837" stroke="black" stroke-width="2" stroke-linecap="round" stroke-linejoin="round"/>
<path d="M339.324 147.837C338.631 147.946 336.41 146.353 336.324 145.714C336.009 143.418 336.053 139.225 334.189 137.676C336.963 138.044 338.306 141.197 340.364 142.908C339.649 140.341 342.379 131.772 340.147 130.104C345.087 131.133 345.076 140.493 347.329 144.631C347.015 142.941 350.341 138.12 354.869 137.416C352.042 142.172 351.435 145.313 352.442 148.866C347.124 149.419 344.101 149.95 339.313 147.837H339.324Z" fill="#009245" stroke="black" stroke-width="2" stroke-linecap="round" stroke-linejoin="round"/>
<path d="M251.514 171.03C251.568 170.174 251.557 168.527 250.701 166.74C250.225 165.743 249.629 165.018 249.152 164.53C249.51 164.324 250.29 163.945 251.265 164.032C252.641 164.151 253.865 165.137 254.471 166.545C254.179 165.798 253.875 164.844 253.702 163.718C253.453 162.093 253.561 160.706 253.702 159.72C254.601 161.291 255.511 162.873 256.41 164.443C255.565 160.045 259.508 156.427 257.06 152.679C261.155 158.085 259.422 161.02 261.772 166.621C261.772 166.068 261.881 164.108 263.376 162.342C264.762 160.717 266.485 160.251 267.059 160.121C266.387 161.215 265.282 163.371 265.25 166.231C265.228 167.455 265.412 168.517 265.629 169.34C261.133 169.827 255.739 172.579 251.492 171.03H251.514Z" fill="#39B54A" stroke="black" stroke-width="2" stroke-linecap="round" stroke-linejoin="round"/>
<path d="M232.98 148.075C232.709 148.075 232.449 147.978 232.33 147.804C228.474 142.605 225.029 137.199 222.093 131.729C221.952 131.48 222.158 131.198 222.537 131.111C222.917 131.025 223.328 131.155 223.469 131.404C226.383 136.831 229.806 142.204 233.641 147.371C233.814 147.609 233.673 147.902 233.316 148.021C233.208 148.054 233.099 148.075 232.991 148.075H232.98Z" fill="#1D1D1B"/>
<path d="M16.2175 195.143C22.9121 195.143 28.3392 193.053 28.3392 190.475C28.3392 187.896 22.9121 185.806 16.2175 185.806C9.5228 185.806 4.0957 187.896 4.0957 190.475C4.0957 193.053 9.5228 195.143 16.2175 195.143Z" fill="#333333" fill-opacity="0.5"/>
<path d="M59.96 137.535C63.753 137.535 66.8279 136.439 66.8279 135.087C66.8279 133.735 63.753 132.639 59.96 132.639C56.1669 132.639 53.092 133.735 53.092 135.087C53.092 136.439 56.1669 137.535 59.96 137.535Z" fill="#333333" fill-opacity="0.87"/>
<path d="M57.641 191.937C74.0037 191.937 87.2684 187.645 87.2684 182.35C87.2684 177.055 74.0037 172.763 57.641 172.763C41.2783 172.763 28.0137 177.055 28.0137 182.35C28.0137 187.645 41.2783 191.937 57.641 191.937Z" fill="#333333" fill-opacity="0.5"/>
<path d="M77.9095 156.492C78.4511 154.412 79.0686 151.369 79.1986 147.501C79.5235 147.176 80.271 147.458 80.4768 147.859C80.6826 148.26 80.6176 148.747 80.5418 149.191C79.2527 156.644 76.7504 163.913 76.3387 171.463C76.3062 172.005 76.2845 172.568 76.0029 173.023C75.9487 173.11 75.6238 173.684 75.3421 173.619C75.1255 173.565 75.0497 173.131 75.0172 172.969C74.4539 169.643 77.9095 156.482 77.9095 156.482V156.492Z" fill="#333333" fill-opacity="0.87" stroke="black" stroke-width="0.75" stroke-linecap="round" stroke-linejoin="round"/>
<path d="M74.8007 173.142C73.6958 171.896 72.8508 170.467 71.9626 169.069C69.731 165.57 67.1962 162.266 64.3905 159.211C64.2389 159.71 64.098 160.208 63.9464 160.706C63.903 160.858 63.8597 161.01 63.8922 161.161C63.9247 161.302 64.033 161.41 64.1305 161.519C67.1853 164.693 70.0018 168.105 72.5367 171.712C73.6958 173.359 74.8007 175.06 76.2414 176.468C76.7505 176.966 77.3789 177.454 78.083 177.378C78.5163 177.335 78.993 176.89 79.0146 176.446C79.0363 175.753 78.5921 175.796 78.0721 175.547C76.8047 174.951 75.7323 174.193 74.7899 173.131L74.8007 173.142Z" fill="#333333" fill-opacity="0.87" stroke="black" stroke-width="0.75" stroke-linecap="round" stroke-linejoin="round"/>
<path d="M79.2076 148.975C79.6517 149.137 78.6767 153.123 78.0701 155.247C76.6835 160.143 75.0803 161.963 70.1623 172.969C68.6999 176.262 67.2267 179.555 66.0026 182.946C65.4718 184.43 64.9843 185.925 64.6593 187.463C64.5293 188.102 64.3235 188.871 63.6844 189.045C62.9802 189.24 63.0777 188.709 63.2836 188.016C63.6302 186.856 63.8794 185.676 64.031 184.484C64.1285 183.726 64.1718 183.877 64.226 183.65C64.3452 183.173 64.6702 181.938 65.2551 180.443C65.8076 179.035 67.1617 175.103 69.534 170.445C76.4994 153.037 78.7093 148.801 79.1968 148.975H79.2076Z" fill="#333333" fill-opacity="0.87" stroke="black" stroke-width="0.75" stroke-linecap="round" stroke-linejoin="round"/>
<path d="M61.2815 188.135C61.3249 188.449 61.0649 189.294 61.5091 189.662C61.8449 189.944 62.484 189.922 62.809 189.619C63.3073 189.164 62.9714 188.135 62.9823 187.831C63.0798 182.556 63.2856 177.291 63.5997 172.026C63.8056 168.538 64.0548 165.007 63.4373 161.573C62.9607 162.039 62.0832 162.624 61.7907 163.219C61.4874 163.848 61.6932 164.779 61.6932 165.473C61.6932 167.303 61.6282 169.134 61.5307 170.954C61.3466 174.637 61.0432 178.331 61.0216 182.025C61.0107 184.062 61.0432 186.12 61.2815 188.145V188.135Z" fill="#333333" fill-opacity="0.87" stroke="black" stroke-width="0.75" stroke-linecap="round" stroke-linejoin="round"/>
<path d="M44.6519 169.763C48.0967 173.467 48.2267 172.969 52.2565 177.313C55.3546 180.65 55.1705 180.823 56.9254 182.383C58.1386 183.455 59.2652 184.3 60.2943 185.99C61.1284 187.377 61.9192 189.37 61.5076 189.662C60.9443 190.063 58.3661 187.041 52.8523 181.375C48.5517 176.956 47.4142 176.024 45.6377 174.237C44.4894 173.088 43.677 172.2 43.3087 171.799C37.9573 166.025 32.8335 161.324 33.3101 160.728C33.4618 160.544 34.0901 160.826 34.4259 160.988C38.8023 163.036 41.8029 166.697 44.6628 169.763H44.6519Z" fill="#333333" fill-opacity="0.87" stroke="black" stroke-width="0.75" stroke-linecap="round" stroke-linejoin="round"/>
<path d="M27.1581 183.26C26.3348 183.747 25.2191 183.108 24.8399 182.22C24.4608 181.332 24.5908 180.335 24.6882 179.382C25.3924 172.828 24.5041 166.22 23.9625 159.656C23.9083 159.006 23.8867 158.28 24.3091 157.781C26.1507 155.658 25.7932 161.01 25.7932 161.465C25.8149 163.891 26.064 166.318 26.3456 168.733C26.9089 173.543 27.6564 178.407 27.1473 183.26H27.1581Z" stroke="black" stroke-width="0.75" stroke-linecap="round" stroke-linejoin="round"/>
<path d="M35.0533 176.955C34.8367 177.129 32.6593 178.851 29.7886 181.148C28.6512 182.058 27.7304 182.794 27.1562 183.26C27.2754 182.913 27.5137 182.285 27.9037 181.527C30.6335 176.251 36.6457 173.359 36.6457 173.359C36.6457 173.359 40.6104 170.347 44.781 167.087C48.15 164.455 50.1432 162.83 51.9848 163.49C52.3206 163.61 52.5697 163.783 52.7322 163.902C50.739 165.343 39.4297 173.5 35.0642 176.955H35.0533Z" fill="#333333" fill-opacity="0.87" stroke="black" stroke-width="0.75" stroke-linecap="round" stroke-linejoin="round"/>
<path d="M52.6594 116.661C52.0311 116.628 51.3595 116.596 50.7962 116.877C49.8971 117.321 49.5396 118.383 49.193 119.325C46.7989 125.847 41.3392 130.971 35.013 133.852C28.6867 136.734 21.5696 137.514 14.6367 137.069C14.9942 138.499 16.7491 138.933 18.114 139.496C22.1979 141.197 24.2237 146.624 22.2521 150.589C21.9271 151.239 21.5155 151.856 21.3964 152.571C21.2014 153.741 21.873 154.889 22.6746 155.767C25.4369 158.778 31.7198 160.143 31.969 160.197C46.4848 163.014 46.7448 163.794 52.7136 163.913C60.7298 164.064 62.5605 162.689 63.4271 161.573C64.9112 159.655 63.6871 158.334 65.0412 155.127C66.7094 151.152 71.0316 147.425 75.4513 147.133C77.4012 147.003 79.2969 148.335 81.2793 147.209C81.9293 146.84 82.3193 146.396 82.7201 145.92C83.9117 144.544 84.4641 143.017 84.9949 140.666C85.4391 138.683 85.8399 136.896 85.9915 133.993C86.2515 129.042 86.3923 126.193 84.5724 123.767C83.7275 122.64 82.8393 122.099 81.2469 121.135C79.1345 119.856 76.6104 118.773 72.1257 117.787C61.5422 115.458 56.7325 116.91 52.6703 116.682L52.6594 116.661Z" fill="#566D5A" stroke="black" stroke-width="0.75" stroke-linecap="round" stroke-linejoin="round"/>
<path fill-rule="evenodd" clip-rule="evenodd" d="M46.5059 149.744C43.7002 152.831 40.3746 153.243 39.8113 156.579C39.7247 157.078 39.4755 158.995 40.6129 160.371C42.1728 162.277 45.336 161.898 49.3982 161.367C54.8362 160.652 57.5661 160.295 59.9818 158.172C60.9134 157.359 61.26 156.763 64.6723 148.888C68.0412 141.11 68.3121 140.309 69.5903 138.608C70.7494 137.07 70.6411 137.59 74.9525 132.671C77.4549 129.822 78.4623 128.533 79.4156 126.724C80.813 124.07 81.6796 122.424 81.2354 121.124C79.5022 116.076 57.3602 115.198 52.2581 124.114C51.4781 125.489 51.998 125.489 50.9906 132.639C49.6257 142.258 48.9433 147.068 46.5059 149.744Z" fill="#1A1A1A" stroke="#1D1D1B" stroke-width="0.75" stroke-miterlimit="10"/>
<path fill-rule="evenodd" clip-rule="evenodd" d="M27.1472 179.371C29.8228 178.309 29.357 178.32 30.4294 181.202C30.6028 181.667 31.3719 182.816 31.4802 183.184C32.1085 185.437 31.7619 185.296 26.248 185.892C25.5981 185.968 16.8886 186.52 16.6936 186.824C15.9353 186.78 16.1628 185.643 16.9536 184.971C17.7444 184.3 19.0768 184.051 19.2935 184.007C22.8791 183.26 22.5216 182.523 23.6482 180.162C24.3848 178.624 26.4538 179.642 27.1688 179.36L27.1472 179.371Z" fill="#8C6239" stroke="#1D1D1B" stroke-width="0.75" stroke-miterlimit="10"/>
<path fill-rule="evenodd" clip-rule="evenodd" d="M13.2486 183.336C11.7537 183.119 10.6379 184.008 8.73137 184.3C8.56887 184.322 6.74894 184.842 5.90399 185.058C4.99404 185.297 3.93247 185.264 3.02253 185.589C2.48089 185.784 1.78759 186.087 1.45178 186.402C0.855979 186.954 0.888482 187.582 1.32179 187.994C5.18905 191.666 4.58242 192.295 10.3237 193.844C10.692 193.941 10.9954 193.345 11.6887 192.5C12.3928 191.634 13.4869 190.507 14.0502 189.771C15.8701 187.398 13.6602 183.509 13.2594 183.336H13.2486Z" fill="#8C6239" stroke="#1D1D1B" stroke-width="0.75" stroke-miterlimit="10"/>
<path fill-rule="evenodd" clip-rule="evenodd" d="M18.492 182.361C18.5245 182.577 19.077 183.227 19.3587 184.062C19.6512 184.95 19.6728 186.011 19.337 186.217C19.1528 186.326 18.7412 185.968 18.1779 185.621C18.0154 185.524 15.1555 182.697 16.3255 182.458C17.5712 182.209 17.7012 182.437 18.492 182.35V182.361Z" fill="#1D1D1B" stroke="#1D1D1B" stroke-width="0.75" stroke-miterlimit="10"/>
<path fill-rule="evenodd" clip-rule="evenodd" d="M27.4173 175.796C27.244 177.941 31.0246 180.996 26.3774 179.815C24.7308 179.393 23.7559 178.819 24.3408 176.609C24.5791 175.71 25.8682 176.024 27.309 175.731C27.3306 175.731 27.4173 175.731 27.4065 175.796H27.4173Z" fill="#D4B0AC" stroke="#1D1D1B" stroke-width="0.75" stroke-miterlimit="10"/>
<path fill-rule="evenodd" clip-rule="evenodd" d="M51.5756 142.497L51.2289 142.692C46.9175 143.06 43.4619 144.945 40.0496 146.115C39.183 146.418 38.598 147.22 37.7531 147.447C34.7632 148.27 31.7843 148.119 29.9102 148.119C27.7437 148.119 26.0646 149.148 24.5047 149.44C21.2874 150.036 18.785 150.09 17.5718 151.564C16.0769 153.394 16.4344 155.344 16.9868 157.922C18.8284 166.545 20.0416 171.831 20.4858 173.868C19.8683 175.71 16.7918 178.028 14.9395 181.169C15.1128 181.256 17.1493 182.198 19.1317 184.181C19.37 184.419 18.9909 186.174 19.3267 186.228C21.764 183.91 24.8296 181.093 31.2209 173.218C32.5533 171.571 33.94 169.037 35.3915 167.466C36.204 166.588 37.1248 164.043 37.9589 163.263C40.0063 161.335 42.5194 160.403 44.6535 159.417C46.885 158.377 48.4774 157.857 50.1456 157.413C52.7671 156.709 55.1395 156.633 56.7102 156.027C62.9823 153.6 60.0359 152.203 51.5756 142.497ZM30.9068 158.269C30.1593 158.312 28.8053 158.226 27.5812 158.291C26.6062 158.345 25.6638 158.561 25.5122 158.518C25.5122 158.518 25.5338 159.276 25.6963 159.97C26.0429 161.497 26.7146 163.707 26.7362 163.88C26.7471 163.978 26.9204 164.649 26.9421 164.704C26.9746 164.779 27.397 163.588 28.1553 162.288C29.1844 160.544 30.6468 158.518 30.9068 158.258V158.269Z" fill="#2E3192" stroke="#1D1D1B" stroke-width="0.75" stroke-miterlimit="10"/>
<path fill-rule="evenodd" clip-rule="evenodd" d="M70.63 114.678C70.63 114.678 69.5684 113.432 69.1893 113.432C65.972 113.432 62.7655 115.837 60.144 115.642C58.6165 115.534 53.5252 115.458 49.2138 115.827C48.8022 115.859 47.6322 117.213 47.4914 117.885C47.2856 118.827 48.6613 121.665 48.7913 122.131C49.1813 123.55 51.1095 126.735 51.6728 127.645C54.0343 131.458 56.1359 130.007 61.628 128.858C71.2691 126.833 71.8649 132.422 76.7396 127.06C77.0213 126.746 77.2921 126.15 77.6062 125.76C78.3645 124.828 79.1661 124.352 79.7836 123.626C81.7985 121.265 82.9251 119.553 83.1201 118.296C83.2717 117.3 83.1201 116.184 82.5243 115.718C82.0476 115.35 81.0943 115.48 80.3252 115.35C77.1946 114.83 73.3165 115.913 73.1323 115.859C72.959 115.805 72.6232 115.404 72.2441 115.177C71.7458 114.884 71.0416 114.982 70.6408 114.667L70.63 114.678ZM75.9055 119.661C75.5155 119.661 73.8256 121.135 73.5548 121.676C71.5616 125.663 69.4276 126.833 64.8128 127.093C61.3355 127.288 58.0207 127.288 55.8 123.951C55.0959 122.889 54.0127 122.164 53.8069 120.907C53.8394 120.766 54.1643 120.723 54.381 120.604C55.9734 119.737 58.1725 118.99 60.1223 119.141C61.5956 119.25 62.8088 120.095 63.9138 121.037C65.322 122.229 68.1493 122.684 69.8392 122.088C70.2509 121.947 71.0525 121.438 71.2258 121.21C72.1358 119.954 72.0491 119.542 73.4573 119.412C73.8907 119.369 75.353 119.672 75.9055 119.661Z" fill="#D4B0AC" stroke="#1D1D1B" stroke-width="0.75" stroke-miterlimit="10"/>
<path fill-rule="evenodd" clip-rule="evenodd" d="M64.3468 110.193C64.8452 109.966 66.2534 109.392 67.7808 109.89C69.189 110.345 70.0015 111.483 70.6082 112.338C70.814 112.631 71.1498 113.108 71.4422 113.812C72.0597 115.339 71.9406 116.693 71.8864 117.17C71.6481 119.488 70.3373 121.037 69.9149 121.503C69.514 121.936 67.2825 124.363 64.4227 124.005C61.0321 123.583 59.0713 119.52 58.9197 116.639C58.8222 114.711 59.5155 113.238 59.7538 112.793C60.1871 111.948 60.8045 110.746 62.1586 110.269C63.0686 109.944 63.9136 110.085 64.3577 110.193H64.3468Z" fill="#4F4946" stroke="#1D1D1B" stroke-width="0.75" stroke-miterlimit="10"/>
<path fill-rule="evenodd" clip-rule="evenodd" d="M64.7684 112.36C65.57 112.447 66.2524 112.533 66.9349 113.032C68.1157 113.898 68.3106 115.307 68.3431 115.523C68.3431 115.523 68.484 116.661 67.964 117.971C67.8449 118.264 67.8015 118.589 67.6498 118.87C67.379 119.358 67.2382 119.77 68.1156 119.455C68.2131 119.423 69.2856 118.546 69.8489 119.141C70.618 119.965 69.3289 121.427 67.9856 121.73C67.2598 122.51 66.7182 123.929 66.7074 124.818C66.5991 131.837 66.8157 129.551 61.9735 129.064C59.8503 128.847 60.0345 126.811 60.392 125.088C60.587 124.168 60.9228 123.399 60.7603 122.922C60.6411 122.586 60.3378 122.673 59.937 122.315C59.3628 121.795 59.2112 121.091 59.1245 120.69C58.9837 120.04 59.1354 119.943 59.2762 118.047C59.3629 116.91 59.3195 116.758 59.4603 116.271C59.5795 115.859 59.7745 115.48 60.1753 114.711C60.5978 113.909 60.8036 113.508 61.0852 113.248C61.5402 112.826 62.0277 112.674 62.4393 112.533C63.4576 112.208 64.3134 112.295 64.7575 112.349L64.7684 112.36Z" fill="#D4B0AC" stroke="#1D1D1B" stroke-width="0.75" stroke-miterlimit="10"/>
<path fill-rule="evenodd" clip-rule="evenodd" d="M76.7836 127.038C76.7836 127.537 75.6786 128.273 75.3103 128.967C74.6604 130.169 73.718 132.26 72.7105 133.56C71.259 135.434 69.6991 136.441 68.7241 137.08C66.3409 138.662 65.3226 142.518 63.6761 146.126C61.6828 150.48 59.9388 154.413 58.9747 154.64C58.9314 154.868 53.0059 147.491 49.6694 147.241C49.6153 147.241 47.4595 146.862 46.7337 146.364C46.2138 146.007 44.9464 145.985 44.2964 145.757C43.224 145.389 42.6932 144.988 41.5449 145.357C43.3106 143.526 45.4447 143.558 46.788 141.847C47.9362 140.395 49.4528 136.322 50.3627 134.816C50.6119 134.405 50.7852 133.289 51.0235 132.888C51.6843 131.783 52.3017 130.743 52.8867 129.822C52.8867 128.815 51.6084 128.598 51.3376 127.407C51.2618 127.06 51.8143 127.342 51.9551 126.475C52.0851 125.652 51.8035 123.702 52.0526 122.868C52.4751 121.503 53.0276 120.452 53.5475 120.734C53.7209 120.831 53.9592 121.135 54.1542 121.286C54.685 121.676 56.0499 123.626 56.3748 124.341C56.4832 124.579 56.6998 124.439 56.819 124.59C56.9815 124.796 57.144 124.959 57.3173 125.099C57.5123 125.251 57.9348 125.219 58.1406 125.316C58.5631 125.522 58.7581 125.793 59.1047 125.988C59.2672 126.085 59.6463 125.641 59.8196 125.684C60.0363 125.739 60.2855 125.392 60.5129 125.37C61.3254 125.305 62.3003 125.522 63.4269 125.435C63.6761 125.414 65.1818 125.695 65.4418 125.663C66.1351 125.554 66.915 125.197 67.6733 124.948C68.3341 124.731 69.4282 124.839 70.1432 124.504C70.5873 124.298 71.2915 122.857 71.7681 122.63C72.7972 122.131 74.0538 120.853 73.9888 121.016C73.8046 121.47 73.4363 122.185 73.1438 123.095C72.9271 123.767 72.7105 124.363 72.8621 125.955C73.003 127.45 74.4437 128.62 76.7836 127.049V127.038Z" fill="#CCCCCC" stroke="#1D1D1B" stroke-width="0.75" stroke-miterlimit="10"/>
<path fill-rule="evenodd" clip-rule="evenodd" d="M19.0544 184.094C18.892 184.181 18.5345 184.516 17.7004 185.177C16.8879 185.827 15.9997 186.759 15.4255 187.55C15.1222 187.972 14.7322 188.611 14.5481 188.806C13.454 189.922 13.4106 188.969 13.3023 187.636C13.1831 186.152 13.129 184.137 12.349 183.531C12.2407 183.444 13.8223 182.177 15.2197 181.299C15.6313 181.039 18.9786 183.769 19.0544 184.094Z" fill="#D4B0AC" stroke="#1D1D1B" stroke-width="0.75" stroke-miterlimit="10"/>
<path d="M43.9589 151.748C39.3983 152.929 35.7586 156.503 31.3172 158.107C29.6165 160.262 28.4574 162.548 27.06 164.92C25.1534 168.181 23.4418 171.756 20.4628 174.009" stroke="black" stroke-width="0.75" stroke-linecap="round" stroke-linejoin="round"/>
<path d="M65.3095 117.311C65.3095 117.311 65.212 117.365 65.1578 117.343C65.1036 117.322 65.0711 117.278 65.082 117.224C65.1578 117.213 65.2445 117.224 65.3203 117.257" stroke="black" stroke-width="0.75" stroke-linecap="round" stroke-linejoin="round"/>
<path d="M62.819 120.691C62.2774 120.821 61.6599 120.929 61.2266 120.582" stroke="black" stroke-width="0.75" stroke-linecap="round" stroke-linejoin="round"/>
<path d="M62.5692 118.015C62.4609 118.101 62.3526 118.199 62.2551 118.307C62.2443 118.329 62.2227 118.34 62.2227 118.372C62.2227 118.394 62.2334 118.405 62.2443 118.426C62.3093 118.513 62.3851 118.578 62.4718 118.621" stroke="black" stroke-width="0.75" stroke-linecap="round" stroke-linejoin="round"/>
<path d="M61.3466 116.899C61.3466 116.899 61.2492 116.953 61.195 116.931C61.1408 116.91 61.1083 116.866 61.1192 116.812C61.195 116.801 61.2816 116.812 61.3575 116.845" stroke="black" stroke-width="0.75" stroke-linecap="round" stroke-linejoin="round"/>
</svg>
