<svg width="348" height="163" viewBox="0 0 348 163" fill="none" xmlns="http://www.w3.org/2000/svg">
<path d="M71.6174 98.7746C71.6174 99.9592 70.7815 101.197 69.0021 102.41C67.2391 103.613 64.6553 104.715 61.4175 105.649C54.9487 107.515 45.9828 108.676 36.0587 108.676C26.1346 108.676 17.1688 107.515 10.6999 105.649C7.46217 104.715 4.87835 103.613 3.1154 102.41C1.33592 101.197 0.5 99.9592 0.5 98.7746C0.5 97.5899 1.33592 96.3525 3.1154 95.1389C4.87835 93.9366 7.46217 92.8339 10.6999 91.9C17.1688 90.034 26.1346 88.873 36.0587 88.873C45.9828 88.873 54.9487 90.034 61.4175 91.9C64.6553 92.8339 67.2391 93.9366 69.0021 95.1389C70.7815 96.3525 71.6174 97.5899 71.6174 98.7746Z" fill="#333333" fill-opacity="0.5" stroke="black"/>
<path d="M25.9335 80.63C25.9335 81.2402 25.9613 81.8366 26.0029 82.4191C26.0445 83.0293 26.1139 83.6257 26.2109 84.222C26.2109 84.3052 26.2247 84.3884 26.2524 84.4717C26.4189 85.5395 26.6546 86.5658 26.9597 87.5921C30.1912 98.4652 40.8562 106.454 53.5045 106.454C62.3805 106.454 70.2857 102.515 75.32 96.4126C78.3018 92.7929 80.2851 88.4104 80.8814 83.6257C80.923 83.2651 80.9647 82.9045 80.9925 82.5439C81.0479 81.9198 81.0617 81.2818 81.0617 80.63V80.5745C81.0617 80.2001 81.0617 79.8256 81.0339 79.4373C80.6318 71.1715 76.0967 63.932 69.3149 59.4802C64.8353 56.54 59.3849 54.8064 53.5045 54.8064C38.2905 54.8064 25.9474 66.359 25.9474 80.6161L25.9335 80.63Z" fill="#7BCED9" stroke="black" stroke-width="0.75" stroke-linecap="round" stroke-linejoin="round"/>
<path d="M26.2095 84.2223C26.2095 84.3055 26.2232 84.3887 26.2509 84.4719C26.348 84.9019 26.5699 85.415 26.9444 85.9004C32.9079 88.9931 43.1709 93.1261 55.625 93.348C67.3441 93.556 75.8317 88.1472 80.866 83.626C80.9076 83.2654 80.9494 82.9048 80.9771 82.5442C81.0326 81.9201 81.0463 81.2821 81.0463 80.6303V80.5748C75.7207 86.0114 70.4507 88.3136 67.3995 89.3399C57.2892 92.7793 48.0527 90.3107 40.7578 88.3691C34.8081 86.7741 30.1482 84.6661 27.0693 83.0851C26.7087 83.1267 26.5283 83.2515 26.4451 83.3347C26.2648 83.5289 26.1817 83.834 26.2095 84.2223Z" fill="#7BCED9" stroke="black" stroke-width="0.75" stroke-linecap="round" stroke-linejoin="round"/>
<path d="M25.9333 80.6302C25.9333 81.2404 25.9612 81.8368 26.0028 82.4193C26.0444 83.0295 26.1137 83.6259 26.2108 84.2222C26.2108 84.3054 26.2246 84.3886 26.2523 84.4718C26.4187 85.5397 26.6545 86.566 26.9596 87.5923C30.191 98.4654 40.8561 106.454 53.5044 106.454C62.3804 106.454 70.2856 102.515 75.3199 96.4128C37.1254 117.576 50.0511 81.3375 51.2299 80.1587C54.711 76.6776 61.8673 74.3615 66.7075 67.9819C69.6754 64.057 69.8002 61.2417 69.3148 59.5081C64.8352 56.5679 59.3848 54.8344 53.5044 54.8344C38.2904 54.8344 25.9472 66.387 25.9472 80.6441L25.9333 80.6302Z" fill="#7BCED9" stroke="black" stroke-width="0.75" stroke-linecap="round" stroke-linejoin="round"/>
<path d="M344.068 123.873C344.068 126.652 341.548 129.335 337.083 131.351C332.664 133.346 326.524 134.592 319.715 134.592C312.906 134.592 306.766 133.346 302.347 131.351C297.882 129.335 295.362 126.652 295.362 123.873C295.362 121.093 297.882 118.411 302.347 116.395C306.766 114.4 312.906 113.153 319.715 113.153C326.524 113.153 332.664 114.4 337.083 116.395C341.548 118.411 344.068 121.093 344.068 123.873Z" fill="#4D4D4D" fill-opacity="0.5" stroke="black"/>
<path d="M260.255 39.7856L155.968 100.342L101.419 68.6339L204.072 9.03112L260.255 39.7856Z" fill="#333333" fill-opacity="0.5" stroke="black"/>
<path d="M256.183 39.426L156.272 97.4667L104.154 67.4547C163.304 33.3237 173.248 27.1938 204.064 9.41406L256.183 39.426Z" fill="#C7B299" stroke="black" stroke-width="0.75" stroke-linecap="round" stroke-linejoin="round"/>
<path d="M156.272 97.4533C146.162 91.032 148.478 91.7948 104.154 67.4413L156.272 97.4533Z" fill="#2196A6" stroke="black" stroke-width="0.75" stroke-linecap="round" stroke-linejoin="round"/>
<path d="M256.183 39.4261C231.191 52.962 197.976 72.0176 184.495 79.8535C158.284 95.0813 156.272 97.4529 156.272 97.4529L256.183 39.4261Z" fill="#2196A6" stroke="black" stroke-width="0.75" stroke-linecap="round" stroke-linejoin="round"/>
<path d="M163.207 73.6539C163.411 71.6912 164.62 69.9918 166.441 68.4478C168.413 66.7765 171.172 65.2269 174.373 63.6637C176.566 62.5928 178.968 61.5139 181.49 60.3812C186.381 58.1842 191.723 55.7846 196.867 52.8473L196.868 52.847C202.424 49.6817 210.319 44.7321 219.238 37.4173L219.438 37.2528L219.688 37.3221C221.064 37.7034 225.419 38.7369 229.635 36.4626C230.835 35.8125 232.192 34.8069 233.167 33.7824C233.655 33.2692 234.028 32.7712 234.242 32.3292C234.461 31.879 234.48 31.5633 234.399 31.3548L234.398 31.3521C234.332 31.1787 234.175 31.0157 233.673 30.9042C233.161 30.7903 232.423 30.762 231.395 30.7646C231.028 30.7655 230.629 30.7703 230.198 30.7754C228.249 30.7987 225.644 30.8298 222.355 30.5496L222.355 30.5495C219.336 30.2904 217.328 29.8763 215.687 29.491C215.397 29.4228 215.119 29.356 214.851 29.2914C213.605 28.9911 212.562 28.7398 211.325 28.6227L211.32 28.6225L211.263 28.6205C211.212 28.6189 211.137 28.6166 211.042 28.6141C210.851 28.6092 210.577 28.6036 210.247 28.601C209.585 28.5959 208.701 28.6028 207.807 28.6506L207.805 28.6507C197.065 29.1934 189.499 34.9889 183.759 39.3857C183.289 39.7462 182.83 40.0972 182.384 40.4353L163.207 73.6539ZM163.207 73.6539H163.172L163.164 74.1457C163.147 75.1949 163.423 76.168 163.669 77.0315C163.741 77.2846 163.81 77.5282 163.869 77.7616C164.133 78.8185 164.227 79.7825 163.662 80.8886C163.017 82.1471 161.699 83.2122 160.146 83.8484C158.593 84.4842 156.885 84.659 155.505 84.2305L155.504 84.2302C154.96 84.0625 154.636 83.8533 154.121 83.5207C154.091 83.5012 154.06 83.4813 154.029 83.4609C153.452 83.089 152.69 82.6135 151.299 82.0034L151.298 82.0027C150.216 81.5332 149.511 81.3273 149.005 81.1984C148.893 81.1701 148.797 81.1464 148.713 81.1257C148.399 81.0482 148.253 81.0123 148.106 80.9287L148.097 80.9225C148.083 80.9122 148.061 80.8969 148.035 80.8776C147.982 80.8383 147.917 80.7867 147.857 80.7322L147.857 80.7322L147.852 80.7281C147.787 80.6702 147.682 80.5489 147.536 80.3487C147.395 80.1552 147.232 79.9112 147.053 79.6273C146.7 79.0705 146.295 78.3826 145.869 77.6613L145.843 77.6168L145.839 77.6093C144.986 76.1637 144.037 74.5539 143.347 73.7685L143.345 73.7661C142.565 72.8901 141.701 72.577 140.523 72.3976C140.016 72.3206 139.436 72.2658 138.773 72.2033C138.681 72.1947 138.589 72.186 138.494 72.177C137.708 72.1023 136.793 72.0104 135.705 71.856L135.635 72.351L135.705 71.856C133.619 71.5599 130.559 70.9883 128.024 70.2814C126.752 69.9271 125.636 69.545 124.844 69.1562C124.446 68.9608 124.155 68.7758 123.97 68.6089C123.776 68.4341 123.764 68.3411 123.764 68.3307L123.764 68.33C123.762 68.2618 123.787 68.1502 123.982 67.9818C124.183 67.8077 124.514 67.6212 125.001 67.4246C125.969 67.0327 127.399 66.6595 129.218 66.231C129.821 66.0887 130.464 65.9411 131.144 65.7852C134.529 65.0082 138.8 64.0281 143.419 62.5076L143.419 62.5076C160.85 56.7671 174.968 46.0598 182.374 40.4421L182.383 40.4356L163.207 73.6539Z" fill="#333333" fill-opacity="0.81" stroke="black"/>
<path d="M142.239 20.4125L142.169 27.555L142.045 39.9952C137.801 54.1829 135.984 64.8203 136.192 66.6371C136.233 67.0254 136.289 67.3859 136.331 67.7049C136.664 70.021 136.969 70.4648 136.969 70.4648C137.08 70.6174 137.468 71.1166 137.301 71.4772C137.19 71.713 136.885 71.7962 136.802 71.8101C135.707 72.0736 135.055 69.6188 133.044 69.0641C132.6 68.9393 132.004 69.0224 130.811 69.175C126.789 69.6743 125.208 71.0889 124.251 70.4232C123.544 69.8684 124.528 69.6049 125.388 69.2859C126.775 68.7589 128.009 68.01 127.954 67.8713C127.898 67.6772 125.444 68.0517 123.239 68.3707C122.601 68.4677 121.921 68.4677 122.295 67.9546C122.864 67.1225 126.747 66.6509 126.858 66.6509C126.858 66.6509 125.929 66.5122 124.695 66.6786C124.265 66.7341 123.724 66.7757 123.766 66.3458C123.779 66.1794 124.112 65.8465 126.997 65.6523C126.622 65.5969 126.109 65.4027 126.303 65.0699C126.359 64.9451 129.341 65.0144 130.852 64.21C131.685 63.7801 132.267 62.6845 132.406 61.6998C134.153 49.6201 133.959 43.823 133.959 43.823C133.959 43.823 133.682 33.0331 135.707 25.8075C136.192 24.0739 136.816 22.5483 137.593 21.4249C138.272 20.468 138.883 19.8993 139.423 19.5942C141.171 18.6512 142.225 20.4125 142.225 20.4125H142.239Z" fill="#FFCFCD" stroke="black" stroke-width="0.75" stroke-linecap="round" stroke-linejoin="round"/>
<path d="M209.128 25.3356C209.128 25.3356 210.224 23.7823 212.54 22.3954C213.649 21.7297 214.301 21.2027 215.092 21.1611C216.201 21.1056 216.686 21.7297 218.767 23.1582C221.79 25.2385 223.316 26.2787 225.299 26.778C226.353 27.0415 227.074 27.0553 227.282 27.5685C227.601 28.3867 226.381 29.9539 224.924 30.4671C219.183 32.478 212.207 29.5517 211.527 29.5101C211.222 29.4962 209.142 25.3217 209.142 25.3217L209.128 25.3356Z" fill="#E9F5FB" stroke="black" stroke-width="0.75" stroke-linecap="round" stroke-linejoin="round"/>
<path d="M204.009 35.3625C200.168 38.1917 193.913 42.8238 193.913 42.8238C193.913 42.8238 191.944 44.0026 189.101 45.6946C182.971 49.3143 172.791 55.3056 169.49 56.956C166.023 58.7035 164.206 59.7159 162.029 60.2845C161.183 60.5203 160.281 60.6728 159.2 60.7838C159.13 60.7838 159.061 60.7838 158.992 60.7838C157.868 60.6728 157.188 58.648 156.8 55.9297C155.926 49.9662 156.384 40.6048 156.384 40.6048C156.384 40.6048 157.813 39.5924 160.406 39.1486C161.821 38.9128 163.596 38.8434 165.676 39.204C171.529 40.2165 171.723 38.7879 177.784 38.3996C183.83 37.9836 188.282 35.1683 188.282 35.1683C188.282 35.1683 192.526 31.1324 194.939 30.5361C197.366 29.9258 208.669 25.4879 209.876 24.6696C211.082 23.8652 212.899 24.6696 213.509 26.8886C214.12 29.1215 207.851 32.547 204.023 35.3762L204.009 35.3625Z" fill="#FFCFCD" stroke="black" stroke-width="0.75" stroke-linecap="round" stroke-linejoin="round"/>
<path d="M193.913 42.8242C193.913 42.8242 178.893 51.8111 171.917 55.6667C170.919 56.2075 170.087 56.6513 169.49 56.9564C166.023 58.7039 164.206 59.7164 162.029 60.285C161.016 60.493 160.004 60.6594 158.992 60.7842C156.884 61.0339 154.748 61.1171 152.654 60.9506C154.304 59.1616 155.677 57.4973 156.8 55.9302C158.368 53.7528 159.463 51.7835 160.198 50.0083C161.627 46.555 161.696 43.8089 161.183 41.6315C160.947 40.6191 160.614 39.8286 160.392 39.149C161.807 38.9133 163.582 38.8439 165.662 39.2045C171.529 40.2169 171.751 38.7745 177.77 38.4001C183.817 37.984 188.269 35.1687 188.269 35.1687C188.269 35.1687 190.793 36.0563 192.485 38.7191C193.275 39.9534 193.733 41.368 193.913 42.8381V42.8242Z" fill="#FD81B7" stroke="black" stroke-width="0.75" stroke-linecap="round" stroke-linejoin="round"/>
<path d="M193.912 42.8243C193.912 42.8243 178.892 51.8113 171.916 55.6668L160.197 50.0084C161.626 46.5551 161.695 43.809 161.182 41.6316C160.946 40.6192 160.614 39.8287 160.392 39.1492C161.806 38.9134 163.581 38.844 165.662 39.2046C169.573 39.8842 170.959 39.4682 173.276 38.9966C174.76 39.8565 176.784 40.4944 180.848 40.4389C190.625 40.3003 191.943 39.1214 192.484 38.7192C193.163 39.7871 193.704 41.1324 193.912 42.8382V42.8243Z" fill="#ED68A3" stroke="black" stroke-width="0.75" stroke-linecap="round" stroke-linejoin="round"/>
<path d="M193.912 42.8242C193.912 42.8242 178.892 51.8111 171.916 55.6667L160.197 50.0083C161.626 46.555 161.695 43.8089 161.182 41.6315C160.946 40.6191 160.614 39.8286 160.392 39.149C161.806 38.9133 163.581 38.8439 165.662 39.2045C171.528 40.2169 171.75 38.7745 177.769 38.4001C183.816 37.984 188.268 35.1687 188.268 35.1687C188.268 35.1687 190.792 36.0563 192.484 38.7191C193.316 40.0089 193.538 40.9658 193.912 42.8381V42.8242Z" fill="#333333" fill-opacity="0.81" stroke="black" stroke-width="0.75" stroke-linecap="round" stroke-linejoin="round"/>
<path d="M216.615 29.9956C216.615 29.9956 217.628 28.3869 219.847 26.8613C220.914 26.1262 221.539 25.5715 222.315 25.4744C223.425 25.3496 223.938 25.9598 226.101 27.2635C229.25 29.1635 230.817 30.1204 232.828 30.4949C233.896 30.6891 234.617 30.6752 234.852 31.1745C235.227 31.9788 234.09 33.6015 232.661 34.1978C227.044 36.5416 219.916 34.0175 219.236 34.0175C218.931 34.0175 216.615 29.9818 216.615 29.9818V29.9956Z" fill="#E9F5FB" stroke="black" stroke-width="0.75" stroke-linecap="round" stroke-linejoin="round"/>
<path d="M210.055 40.9934C206.214 43.8226 199.959 48.4686 199.959 48.4686C199.959 48.4686 196.145 50.7569 191.457 53.5168C185.535 56.9978 178.24 61.2555 175.536 62.6008C172.069 64.3344 170.252 65.3468 168.075 65.9293C167.229 66.1651 166.327 66.3176 165.245 66.4286C165.176 66.4286 165.107 66.4286 165.037 66.4286C163.914 66.3176 163.234 64.3067 162.846 61.5884C161.972 55.611 162.43 46.2635 162.43 46.2635C162.43 46.2635 163.859 45.2511 166.452 44.8073C167.867 44.5715 169.642 44.5021 171.722 44.8488C176.077 45.5977 189.155 44.1 194.328 40.8131C194.328 40.8131 198.572 36.7772 200.985 36.1809C203.412 35.5706 214.715 31.1327 215.922 30.3283C216.157 30.1757 216.393 30.0925 216.657 30.0509C217.766 29.8845 219.056 30.7582 219.542 32.5612C220.152 34.7801 213.883 38.2196 210.055 41.0349V40.9934Z" fill="#FFCFCD" stroke="black" stroke-width="0.75" stroke-linecap="round" stroke-linejoin="round"/>
<path d="M199.959 48.4688C199.959 48.4688 180.39 60.174 175.536 62.6011C172.069 64.3346 170.252 65.3471 168.074 65.9296C167.062 66.1376 166.05 66.304 165.037 66.4288C162.929 66.6923 161.168 66.0128 159.06 65.8603C160.71 64.0712 161.709 63.142 162.832 61.5887C167.145 55.5974 169.461 49.8696 164.33 44.7659C172.263 43.8228 170.418 46.0141 183.816 44.0309L194.314 40.7994C194.453 40.841 195.618 41.2987 196.852 42.4082C197.088 42.6162 197.31 42.8381 197.546 43.1016C198.627 44.2943 199.64 46.0279 199.945 48.4827L199.959 48.4688Z" fill="#333333" fill-opacity="0.81" stroke="black" stroke-width="0.75" stroke-linecap="round" stroke-linejoin="round"/>
<path d="M166.662 65.8185C161.752 69.4521 152.418 65.7076 148.022 60.798C145.692 58.2046 141.906 52.1439 140.394 48.8432C139.992 47.9695 139.437 46.7212 138.73 45.695C138.383 45.1957 138.009 44.738 137.593 44.4052C137.024 43.9475 136.261 43.4899 135.623 42.4358C135.485 42.2001 134.944 41.3818 134.847 40.0781C134.694 38.2891 135.152 37.0963 135.568 35.4737C135.609 35.3073 135.873 33.8095 136.414 30.8138C136.969 27.6934 138.05 21.7714 139.437 20.9808C139.964 20.6757 140.56 20.5232 140.56 20.5232C141.018 20.3984 141.545 20.3429 142.252 20.3845C144.957 20.5093 147.717 21.1473 150.227 21.9794C151.239 22.2984 152.21 22.659 153.126 23.0196C157.037 24.5729 159.824 26.2372 159.824 26.2372L160.809 34.17L161.849 42.5884C162.82 43.0599 164.443 43.9891 165.94 45.6256C170.184 50.2439 171.945 59.7162 166.689 65.7907L166.662 65.8185Z" fill="#FC9AAA" stroke="black" stroke-width="0.75" stroke-linecap="round" stroke-linejoin="round"/>
<path d="M141.03 22.6172C141.53 23.38 142.154 24.5449 142.542 26.0566C142.861 27.2632 142.931 28.3311 142.917 29.1355C143.36 29.08 144.026 28.9968 144.83 28.9136C146.522 28.7472 147.133 28.7888 147.479 28.7194C148.506 28.5252 149.754 27.0691 150.669 21.4939L150.642 21.4244C150.517 20.7726 149.504 20.634 149.088 20.1902C148.228 19.1916 147.077 20.2317 146.12 20.8281C145.066 21.5077 143.444 22.2705 141.044 22.6033L141.03 22.6172Z" fill="#FFCFCD" stroke="black" stroke-width="0.75" stroke-linecap="round" stroke-linejoin="round"/>
<path d="M136.399 8.20728C133.528 14.2402 135.844 22.0898 138.257 22.6307C139.284 22.8665 142.474 23.1994 144.471 22.2147C145.275 21.8125 145.899 21.3687 146.343 21.0359C147.688 20.8417 149.269 20.3563 150.545 19.1774C154.581 15.4329 153.735 6.39047 148.895 3.25613C148.617 3.07584 146.107 1.68897 143.056 2.04956C140.046 2.38241 137.647 5.59996 136.399 8.20728Z" fill="#FFCFCD" stroke="black" stroke-width="0.75" stroke-linecap="round" stroke-linejoin="round"/>
<path d="M176.438 29.3432C176.328 29.3155 171.723 27.8731 171.584 27.8177C159.227 23.6432 149.228 10.5788 152.501 6.57074C152.875 6.11307 153.375 5.58604 154.11 5.25319C154.11 5.25319 155.039 4.83716 156.218 4.93424C158.52 5.1284 161.807 8.23498 164.192 12.2847C165.746 14.9336 166.897 17.208 167.424 18.4146C168.27 20.3562 168.436 21.0912 168.838 22.0205C169.754 24.1285 171.723 26.8607 176.438 29.3432Z" fill="#B3B3B3" stroke="black" stroke-width="0.75" stroke-linecap="round" stroke-linejoin="round"/>
<path d="M150.824 22.4647C150.574 22.6588 148.841 21.688 148.868 20.6063C148.868 19.7326 149.146 20.2734 149.562 19.0391C149.784 18.3873 149.714 16.6952 148.924 16.3901C147.925 16.0157 145.762 18.096 144.208 20.8143C144.236 20.4676 144.306 19.9267 144.417 19.2887C144.805 17.0697 145.332 16.2792 145.443 15.2668C145.54 14.3098 145.304 12.9091 143.668 11.0368C143.473 11.3697 143.265 11.6748 143.085 11.9938C140.617 10.8843 138.952 8.99811 138.078 6.6959C136.234 8.34628 135.651 10.5376 135.152 12.6872C135.083 12.8259 134.584 13.7828 134.209 13.6996C133.904 13.6303 133.835 12.9091 133.807 12.6179C133.696 11.4945 133.835 7.90246 136.747 4.76813C137.343 4.13016 139.313 2.0776 142.53 1.31482C146.816 0.302406 153.237 1.61998 155.72 6.90397C158.16 12.1186 155.068 17.6384 152.835 19.1084C152.613 19.2471 151.961 19.7048 151.836 19.8019C151.268 20.2457 150.963 20.5508 150.81 21.1888C150.782 21.272 150.754 21.369 150.754 21.4523C150.657 22.0209 150.963 22.3676 150.838 22.4647H150.824Z" fill="#B3B3B3" stroke="black" stroke-width="0.75" stroke-linecap="round" stroke-linejoin="round"/>
<path d="M162.833 80.8802C162.653 81.1021 161.39 80.4225 160.309 79.7707C160.836 80.367 161.321 80.7138 161.682 80.9218C161.917 81.0605 162.264 81.2408 162.444 81.6291C162.472 81.6846 162.639 82.059 162.5 82.1977C162.126 82.6138 159.407 80.7138 159.338 80.8108C159.282 80.8941 161.945 82.5583 161.709 83.0576C161.64 83.224 161.279 83.2241 161.03 83.2102C160.475 83.1825 160.045 82.9605 158.95 82.267C158.214 81.7955 157.923 81.6014 157.895 81.6291C157.868 81.6707 158.256 82.1145 158.797 82.489C159.518 82.9883 160.128 83.1131 160.128 83.4321C160.128 83.543 160.059 83.6262 160.017 83.6678C159.726 84.0007 159.033 83.8343 158.492 83.7094C156.869 83.3627 155.704 82.6415 155.552 82.5444C154.636 81.9619 153.277 80.9634 151.918 79.313C149.394 80.5612 148.687 80.3394 148.687 80.3394C148.118 80.1729 147.591 79.6737 147.646 79.2992C147.702 78.8831 148.409 78.9386 149.297 78.3423C149.921 77.9262 150.018 77.6072 151.336 75.8181C151.821 75.1663 152.237 74.6254 152.514 74.251C152.514 74.251 152.112 69.6049 152.306 64.9589C152.514 60.3267 153.513 46.5966 152.917 40.1338C152.306 33.671 156.245 26.6257 156.952 26.2096C157.41 25.9322 157.812 25.7658 158.187 25.7104C161.155 25.1834 161.779 30.6892 161.598 35.89C160.836 58.08 156.592 56.1523 156.828 72.4342C156.828 73.1137 157.063 73.8349 157.41 74.6116C157.577 74.9999 158.117 76.1371 159.255 77.2466C159.379 77.3575 159.643 77.5794 159.99 77.8568C161.141 78.786 163.124 80.3948 162.791 80.8247L162.833 80.8802Z" fill="#FFCFCD" stroke="black" stroke-width="0.75" stroke-linecap="round" stroke-linejoin="round"/>
<path d="M136.331 14.3933C136.539 14.2962 136.816 14.3933 136.927 14.6014C136.927 14.6152 136.941 14.6429 136.941 14.6707C136.941 14.6984 136.927 14.7261 136.899 14.7539C136.747 14.9203 136.414 14.8371 136.358 14.6152" stroke="black" stroke-width="0.75" stroke-linecap="round" stroke-linejoin="round"/>
<path d="M140.726 15.3638C140.962 15.3915 141.142 15.6689 141.073 15.9047C140.878 15.9879 140.671 16.0573 140.462 16.0156C140.254 15.974 140.074 15.7521 140.157 15.558" stroke="black" stroke-width="0.75" stroke-linecap="round" stroke-linejoin="round"/>
<path d="M136.94 20.3979C137.315 20.6892 137.842 20.7725 138.299 20.6199" stroke="black" stroke-width="0.75" stroke-linecap="round" stroke-linejoin="round"/>
<path d="M137.8 17.5273C137.605 17.8047 137.966 18.2347 138.271 18.096" stroke="black" stroke-width="0.75" stroke-linecap="round" stroke-linejoin="round"/>
<path d="M336.35 118.894L223.616 161.746L174.937 121.607L285.887 79.4363L336.35 118.894Z" fill="#333333" fill-opacity="0.5" stroke="black"/>
<path d="M332.379 117.868L224.383 158.947L177.826 120.877C241.733 96.787 252.537 92.3491 285.822 79.7979L332.379 117.868Z" fill="#C1E3F4" stroke="black" stroke-width="0.75" stroke-linecap="round" stroke-linejoin="round"/>
<path d="M224.397 158.933C215.465 150.958 217.615 152.082 177.839 120.863L224.397 158.933Z" fill="#2196A6" stroke="black" stroke-width="0.75" stroke-linecap="round" stroke-linejoin="round"/>
<path d="M332.393 117.881C305.543 127.187 269.679 140.598 255.102 146.146C226.769 156.922 224.397 158.947 224.397 158.947L332.393 117.881Z" fill="#2196A6" stroke="black" stroke-width="0.75" stroke-linecap="round" stroke-linejoin="round"/>
<path d="M225.784 145.754L225.785 145.755C227.077 146.404 228.793 146.51 230.43 146.136C232.067 145.76 233.541 144.923 234.38 143.784C235.108 142.789 235.168 141.824 235.077 140.738C235.057 140.501 235.029 140.254 235 139.997C234.898 139.115 234.784 138.122 234.963 137.101V137.086L234.971 137.042C235.362 134.904 236.9 133.278 239.117 131.949C241.334 130.619 244.307 129.538 247.72 128.515C250.054 127.815 252.596 127.141 255.264 126.433C260.449 125.058 266.113 123.556 271.666 121.49L271.667 121.49C277.679 119.265 286.265 115.657 296.249 109.89L296.475 109.76L296.711 109.871C298.016 110.482 302.146 112.197 306.669 110.641L306.669 110.641C307.955 110.199 309.457 109.429 310.585 108.576C311.149 108.149 311.598 107.717 311.881 107.315C312.17 106.906 312.24 106.596 312.194 106.376L312.194 106.374C312.156 106.19 312.026 106.003 311.548 105.811C311.06 105.615 310.336 105.468 309.321 105.304C308.962 105.246 308.571 105.187 308.149 105.123C306.221 104.83 303.643 104.438 300.44 103.624C297.498 102.882 295.581 102.148 294.024 101.502C293.742 101.385 293.474 101.271 293.214 101.162C292.042 100.667 291.06 100.252 289.868 99.9376L289.864 99.9367L289.807 99.9257C289.758 99.916 289.684 99.9018 289.59 99.8842C289.401 99.8488 289.131 99.7995 288.804 99.7436C288.151 99.6319 287.277 99.4948 286.388 99.3922C275.677 98.1898 267.246 102.708 260.865 106.127C260.363 106.396 259.874 106.658 259.398 106.91L259.164 106.468L259.398 106.91C251.189 111.25 235.507 119.526 217.372 122.37L225.784 145.754ZM225.784 145.754C225.278 145.502 224.994 145.245 224.545 144.839C224.515 144.812 224.485 144.784 224.453 144.756C223.944 144.296 223.267 143.706 221.99 142.883C221.001 142.243 220.339 141.925 219.859 141.716C219.749 141.668 219.655 141.628 219.573 141.593C219.279 141.468 219.142 141.41 219.01 141.303L219 141.293C218.986 141.281 218.966 141.262 218.943 141.239C218.896 141.191 218.839 141.131 218.791 141.073L218.791 141.072M225.784 145.754L218.791 141.072M218.791 141.072C217.487 139.485 216.586 138.281 216.012 137.476C215.725 137.073 215.52 136.77 215.387 136.57C215.321 136.469 215.273 136.394 215.242 136.345C215.234 136.333 215.227 136.322 215.221 136.312C215.215 136.304 215.211 136.296 215.207 136.291L215.2 136.278L215.198 136.275L215.198 136.275L215.198 136.275M218.791 141.072L215.198 136.275M215.198 136.275L215.198 136.275L215.198 136.275ZM208.393 130.439C211.536 132.53 213.856 134.073 215.198 136.275L208.393 130.439ZM208.393 130.439L208.363 130.419M208.393 130.439L208.363 130.419M208.363 130.419L208.363 130.419C204.908 128.115 201.943 126.89 199.871 126.101C199.591 125.995 199.33 125.897 199.088 125.807C198.426 125.559 197.909 125.365 197.528 125.185C197.268 125.063 197.122 124.968 197.049 124.9C197.045 124.897 197.043 124.894 197.04 124.891C197.063 124.825 197.127 124.736 197.3 124.629C197.527 124.49 197.884 124.359 198.395 124.244C199.415 124.013 200.887 123.876 202.751 123.748C203.369 123.705 204.028 123.663 204.723 123.62C208.191 123.401 212.566 123.124 217.372 122.37L208.363 130.419Z" fill="#333333" fill-opacity="0.81" stroke="black"/>
<path d="M223.038 80.644L221.804 87.6754L219.655 99.9354C213.164 113.249 209.655 123.443 209.558 125.274C209.544 125.662 209.53 126.023 209.516 126.341C209.461 128.685 209.697 129.157 209.697 129.157C209.78 129.323 210.085 129.878 209.863 130.211C209.711 130.433 209.406 130.46 209.309 130.46C208.185 130.544 207.935 128.006 206.049 127.146C205.633 126.952 205.037 126.938 203.83 126.896C199.781 126.744 197.992 127.881 197.16 127.063C196.549 126.397 197.562 126.3 198.463 126.12C199.919 125.828 201.251 125.287 201.223 125.135C201.195 124.927 198.713 124.899 196.494 124.871C195.856 124.871 195.176 124.76 195.634 124.317C196.327 123.582 200.238 123.748 200.349 123.762C200.349 123.762 199.448 123.471 198.214 123.443C197.784 123.429 197.243 123.387 197.354 122.958C197.395 122.791 197.783 122.514 200.654 122.791C200.294 122.68 199.822 122.389 200.058 122.112C200.127 122.001 203.068 122.541 204.69 122.001C205.578 121.709 206.327 120.725 206.632 119.768C210.321 108.132 211.056 102.39 211.056 102.39C211.056 102.39 212.526 91.6974 215.702 84.9017C216.465 83.2652 217.325 81.8644 218.282 80.8797C219.1 80.0337 219.807 79.5761 220.39 79.382C222.276 78.7301 223.025 80.644 223.025 80.644H223.038Z" fill="#998675" stroke="black" stroke-width="0.75" stroke-linecap="round" stroke-linejoin="round"/>
<path d="M288.248 96.3434C288.248 96.3434 289.593 94.9842 292.09 93.9995C293.296 93.528 294.031 93.1119 294.808 93.1951C295.917 93.3199 296.292 94.0273 298.109 95.7609C300.758 98.3127 302.089 99.5886 303.961 100.393C304.96 100.823 305.667 100.962 305.778 101.489C305.958 102.349 304.502 103.694 302.977 103.957C296.985 105.011 290.578 100.989 289.912 100.837C289.621 100.767 288.234 96.3156 288.234 96.3156L288.248 96.3434Z" fill="#998675" stroke="black" stroke-width="0.75" stroke-linecap="round" stroke-linejoin="round"/>
<path d="M281.563 105.414C277.319 107.577 270.384 111.141 270.384 111.141C270.384 111.141 268.249 111.987 265.184 113.194C258.554 115.774 247.543 120.031 244.006 121.127C240.289 122.278 238.334 122.985 236.101 123.193C235.227 123.276 234.312 123.29 233.216 123.235C233.147 123.235 233.078 123.235 233.008 123.207C231.926 122.916 231.58 120.808 231.635 118.062C231.732 112.029 233.716 102.876 233.716 102.876C233.716 102.876 235.283 102.113 237.918 102.085C239.36 102.085 241.121 102.307 243.105 102.987C248.708 104.928 249.138 103.569 255.184 104.152C261.217 104.734 266.057 102.668 266.057 102.668C266.057 102.668 270.898 99.3806 273.38 99.1726C275.876 98.9646 287.748 96.4128 289.066 95.8164C290.397 95.22 292.061 96.3018 292.297 98.604C292.533 100.906 285.793 103.278 281.563 105.441V105.414Z" fill="#998675" stroke="black" stroke-width="0.75" stroke-linecap="round" stroke-linejoin="round"/>
<path d="M270.385 111.142C270.385 111.142 254.103 117.577 246.6 120.253C245.532 120.628 244.645 120.933 244.007 121.127C240.29 122.278 238.335 122.986 236.102 123.194C235.075 123.235 234.035 123.235 233.023 123.194C230.901 123.096 228.779 122.833 226.74 122.334C228.654 120.836 230.277 119.407 231.65 118.048C233.55 116.162 234.951 114.387 235.963 112.75C237.932 109.575 238.445 106.87 238.293 104.637C238.224 103.597 238.016 102.765 237.919 102.058C239.361 102.058 241.122 102.28 243.105 102.959C248.722 104.915 249.194 103.528 255.185 104.124C261.218 104.707 266.058 102.64 266.058 102.64C266.058 102.64 268.402 103.916 269.636 106.828C270.219 108.174 270.441 109.644 270.385 111.114V111.142Z" fill="#FD81B7" stroke="black" stroke-width="0.75" stroke-linecap="round" stroke-linejoin="round"/>
<path d="M270.386 111.141C270.386 111.141 254.104 117.576 246.601 120.253L235.95 112.764C237.919 109.588 238.432 106.884 238.28 104.651C238.211 103.611 238.003 102.778 237.906 102.071C239.348 102.071 241.109 102.293 243.092 102.973C246.851 104.276 248.279 104.096 250.637 104.013C251.968 105.095 253.854 106.065 257.863 106.662C267.529 108.104 269.027 107.161 269.623 106.842C270.123 108.007 270.441 109.422 270.372 111.127L270.386 111.141Z" fill="#ED68A3" stroke="black" stroke-width="0.75" stroke-linecap="round" stroke-linejoin="round"/>
<path d="M270.386 111.142C270.386 111.142 254.104 117.577 246.601 120.253L235.95 112.764C237.919 109.588 238.432 106.884 238.28 104.651C238.211 103.611 238.003 102.779 237.906 102.071C239.348 102.071 241.109 102.293 243.092 102.973C244.979 103.625 246.268 103.902 247.406 104.013C248.321 104.096 249.43 104.277 250.942 104.332C250.942 104.332 253.05 104.388 255.186 104.152C261.371 103.444 272.452 99.5473 272.452 99.5473C276.294 98.2021 281.842 96.621 289.081 95.8167C289.705 95.9415 291.3 96.3437 292.132 97.7167C292.132 97.7167 292.742 98.7291 292.632 100.144C292.354 103.902 272.771 110.379 270.4 111.155L270.386 111.142Z" fill="#333333" fill-opacity="0.81" stroke="black" stroke-width="0.75" stroke-linecap="round" stroke-linejoin="round"/>
<path d="M294.879 102.169C294.879 102.169 296.141 100.74 298.568 99.6028C299.747 99.0619 300.454 98.6042 301.23 98.6458C302.34 98.7013 302.756 99.3809 304.67 101.017C307.471 103.403 308.858 104.596 310.786 105.303C311.812 105.677 312.52 105.761 312.672 106.301C312.908 107.147 311.535 108.576 310.023 108.936C304.101 110.337 297.472 106.69 296.806 106.593C296.501 106.537 294.879 102.182 294.879 102.182V102.169Z" fill="#998675" stroke="black" stroke-width="0.75" stroke-linecap="round" stroke-linejoin="round"/>
<path d="M286.626 111.946C282.382 114.109 275.447 117.688 275.447 117.688C275.447 117.688 271.314 119.324 266.238 121.279C259.831 123.762 251.94 126.772 249.055 127.659C245.352 128.81 243.383 129.518 241.15 129.726C240.276 129.809 239.361 129.823 238.265 129.767C238.196 129.767 238.127 129.753 238.057 129.726C236.976 129.434 236.629 127.34 236.684 124.58C236.795 118.547 238.765 109.394 238.765 109.394C238.765 109.394 240.332 108.631 242.967 108.604C244.409 108.604 246.17 108.811 248.154 109.505C252.328 110.961 265.476 111.599 271.106 109.186C271.106 109.186 275.947 105.899 278.429 105.691C280.926 105.483 292.797 102.931 294.115 102.335C294.364 102.224 294.628 102.168 294.891 102.182C296.015 102.196 297.138 103.264 297.332 105.122C297.568 107.411 290.842 109.782 286.598 111.946H286.626Z" fill="#998675" stroke="black" stroke-width="0.75" stroke-linecap="round" stroke-linejoin="round"/>
<path d="M275.448 117.688C275.448 117.688 254.228 126.065 249.055 127.673C245.352 128.824 243.383 129.532 241.15 129.74C240.124 129.781 239.084 129.781 238.071 129.74C235.95 129.657 234.313 128.713 232.274 128.2C234.188 126.702 235.325 125.954 236.698 124.594C241.927 119.38 245.144 114.096 240.901 108.243C248.889 108.59 246.698 110.462 260.248 110.684L271.121 109.2C279.04 106.856 286.959 104.513 294.878 102.169C295.432 102.391 296.819 103.015 297.18 104.291C297.18 104.291 297.471 105.289 296.806 106.579C295.141 109.866 277.167 117.008 275.448 117.688Z" fill="#333333" fill-opacity="0.81" stroke="black" stroke-width="0.75" stroke-linecap="round" stroke-linejoin="round"/>
<path d="M235.631 129.281C226.922 127.367 223.441 123.235 222.192 121.432C219.779 117.964 217.283 110.878 216.603 108.409C216.354 107.48 215.993 106.162 215.466 105.039C215.203 104.484 214.911 103.985 214.551 103.583C214.065 103.042 213.386 102.459 212.928 101.322C212.887 101.225 212.803 101.017 212.72 100.712C212.72 100.712 212.47 99.838 212.54 98.8672C212.692 96.8423 215.258 93.6525 214.481 92.5846C214.093 92.0576 213.192 92.5014 212.72 91.8912C212.221 91.2532 212.72 90.1437 213.247 88.8956C215.674 83.1816 215.466 82.7656 216.465 82.1415C217.727 81.351 220.001 80.8101 220.181 80.7685C220.237 80.7685 221.36 80.4911 221.36 80.4911C221.832 80.4495 222.359 80.4911 223.052 80.6298C225.701 81.1984 228.308 82.2663 230.652 83.4867C231.595 83.9721 232.497 84.4853 233.343 84.9846C236.963 87.1481 239.431 89.2562 239.431 89.2562L239.112 97.2446L238.766 105.718C239.723 106.273 241.359 107.396 242.302 109.38C242.94 110.697 243.37 112.625 242.413 116.481C241.761 119.129 240.139 123.956 235.645 129.281H235.631Z" fill="#4D4D4D" stroke="black" stroke-width="0.75" stroke-linecap="round" stroke-linejoin="round"/>
<path d="M221.483 82.6272C221.843 83.4593 222.273 84.7075 222.426 86.2747C222.537 87.509 222.426 88.5768 222.301 89.3674C222.745 89.3674 223.41 89.409 224.215 89.4645C225.907 89.5754 226.503 89.7142 226.864 89.7003C227.918 89.6864 229.374 88.4382 231.177 83.0849V83.0155C231.135 82.3498 230.164 82.0447 229.832 81.5455C229.152 80.4221 227.835 81.2542 226.794 81.698C225.643 82.1973 223.91 82.6965 221.496 82.6272H221.483Z" fill="#998675" stroke="black" stroke-width="0.75" stroke-linecap="round" stroke-linejoin="round"/>
<path d="M219.252 67.6493C215.438 73.1275 216.464 81.2684 218.753 82.1837C219.737 82.572 222.816 83.4319 224.952 82.7801C225.812 82.5166 226.505 82.1838 226.991 81.9064C228.35 81.9342 229.986 81.7122 231.443 80.7553C236.033 77.718 236.657 68.6617 232.4 64.7785C232.15 64.5566 229.903 62.7814 226.838 62.6427C223.815 62.4902 220.916 65.2778 219.266 67.6493H219.252Z" fill="#998675" stroke="black" stroke-width="0.75" stroke-linecap="round" stroke-linejoin="round"/>
<path d="M231.165 84.0557C230.68 84.2776 229.431 82.5301 229.542 81.8922C229.64 81.3374 229.75 81.379 229.986 81.171C229.986 81.171 230.222 81.0045 230.472 80.4636C230.68 80.0198 230.832 76.8023 229.792 76.5526C229.057 76.3723 227.892 77.7315 227.046 79.8812C225.923 80.2002 225.507 80.0892 225.354 79.8812C224.952 79.3126 226.491 77.995 227.018 76.0812C227.268 75.1519 227.254 73.7234 225.95 71.6154C225.701 71.9066 225.451 72.1841 225.215 72.4614C224.716 71.6848 223.856 70.6307 222.511 69.7847C222.081 69.5212 221.679 69.3132 221.29 69.1468C221.221 69.1052 220.001 68.3008 218.739 68.8694C217.671 69.3409 217.047 70.5891 217.283 71.865C216.617 72.3781 216.187 72.7111 216.187 72.7111C216.187 72.7111 214.62 69.2715 214.592 66.4007C214.564 63.0167 216.658 60.4926 216.95 60.1598C220.209 56.332 225.534 56.5955 226.547 56.6372C233.315 56.9561 241.317 62.6978 241.123 69.9373C240.942 76.3308 234.466 80.7826 233.675 81.0739C233.634 81.0877 233.162 81.2542 232.58 81.6009C232.122 81.8644 231.859 82.0169 231.651 82.2666C231.04 83.0155 231.484 83.9031 231.151 84.0557H231.165Z" fill="#754C24" stroke="black" stroke-width="0.75" stroke-linecap="round" stroke-linejoin="round"/>
<path d="M233.549 143.65C233.327 143.844 232.19 142.956 231.233 142.152C231.663 142.832 232.079 143.248 232.398 143.511C232.606 143.678 232.925 143.913 233.036 144.343C233.05 144.413 233.147 144.801 233.008 144.912C232.564 145.259 230.193 142.942 230.123 143.026C230.054 143.109 232.412 145.175 232.107 145.633C232.01 145.786 231.663 145.73 231.413 145.675C230.872 145.55 230.484 145.259 229.513 144.413C228.861 143.83 228.612 143.594 228.584 143.622C228.542 143.65 228.861 144.163 229.333 144.621C229.957 145.231 230.539 145.453 230.484 145.772C230.47 145.883 230.373 145.952 230.345 145.994C229.999 146.271 229.347 145.994 228.834 145.799C227.28 145.189 226.254 144.288 226.115 144.177C225.311 143.456 224.132 142.249 223.05 140.405C220.36 141.237 219.694 140.89 219.694 140.89C219.167 140.626 218.723 140.058 218.834 139.697C218.959 139.295 219.639 139.475 220.623 139.018C221.303 138.713 221.455 138.407 223.05 136.868C223.633 136.299 224.132 135.842 224.479 135.523C224.479 135.523 224.84 130.877 225.783 126.328C226.74 121.779 229.957 108.409 230.401 101.933C230.845 95.456 235.865 89.1457 236.642 88.8406C237.127 88.6464 237.557 88.5493 237.945 88.5493C240.955 88.5077 240.678 94.0413 239.651 99.145C235.297 120.919 231.427 118.326 229.028 134.427C228.931 135.093 229.028 135.842 229.25 136.674C229.347 137.09 229.693 138.296 230.65 139.572C230.748 139.711 230.983 139.961 231.275 140.294C232.259 141.403 233.965 143.303 233.563 143.664L233.549 143.65Z" fill="#998675" stroke="black" stroke-width="0.75" stroke-linecap="round" stroke-linejoin="round"/>
<path d="M218.17 73.7371C218.392 73.6816 218.655 73.8203 218.725 74.0422C218.725 74.0699 218.725 74.0837 218.725 74.1115C218.725 74.1392 218.697 74.167 218.669 74.1809C218.489 74.3196 218.17 74.1808 218.156 73.9451" stroke="black" stroke-width="0.75" stroke-linecap="round" stroke-linejoin="round"/>
<path d="M222.356 75.4158C222.592 75.4851 222.717 75.7903 222.62 75.9983C222.412 76.0399 222.19 76.0954 221.996 76.0122C221.802 75.929 221.663 75.6793 221.774 75.5129" stroke="black" stroke-width="0.75" stroke-linecap="round" stroke-linejoin="round"/>
<path d="M217.81 79.7701C218.142 80.1169 218.642 80.2833 219.113 80.214" stroke="black" stroke-width="0.75" stroke-linecap="round" stroke-linejoin="round"/>
<path d="M230.11 102.487C233.037 102.085 236.143 103.43 237.849 105.857C240.068 102.141 241.066 97.7027 240.637 93.4034C240.512 92.1552 240.248 90.8515 239.402 89.9084C236.892 87.0931 234.174 91.3647 232.912 93.3202C232.024 94.6932 231.331 96.191 230.859 97.7582C230.748 98.1326 229.972 102.515 230.11 102.487Z" fill="#4D4D4D" stroke="black" stroke-width="0.75" stroke-linecap="round" stroke-linejoin="round"/>
<path d="M340.59 125.898C341.449 126.022 344.209 124.053 344.32 123.263C344.709 120.406 344.653 115.191 346.983 113.263C343.544 113.721 341.866 117.646 339.3 119.768C340.187 116.578 336.79 105.913 339.577 103.833C333.433 105.122 333.447 116.758 330.632 121.903C331.034 119.795 326.887 113.804 321.243 112.93C324.765 118.838 325.514 122.763 324.252 127.174C330.868 127.867 334.64 128.519 340.59 125.884V125.898Z" fill="#006837" stroke="black" stroke-width="0.75" stroke-linecap="round" stroke-linejoin="round"/>
<path d="M327.898 132.666C327.884 131.695 327.967 130.586 328.272 129.379C329.437 124.733 332.946 122.042 334.347 121.086C333.196 121.044 329.992 121.113 327.024 123.318C325.582 124.4 324.68 125.621 324.139 126.508C323.723 125.329 323.016 122.75 323.668 119.615C324.625 115.011 327.87 112.445 328.744 111.793C327.094 112.487 322.642 114.637 319.66 119.643C317.58 123.124 317.122 126.453 317.011 128.256C317.33 126.522 313.932 121.599 309.3 120.877C312.198 125.745 312.822 128.963 311.782 132.597C314.667 132.777 317.732 132.888 320.95 132.874C323.363 132.874 325.679 132.791 327.898 132.652V132.666Z" fill="#009245" stroke="black" stroke-width="0.75" stroke-linecap="round" stroke-linejoin="round"/>
</svg>
