<svg width="20" height="20" viewBox="0 0 20 20" fill="none" xmlns="http://www.w3.org/2000/svg">
<path d="M19.2066 11.9015C18.2776 16.5467 13.9923 19.6242 9.57932 19.3106C4.7831 19.0319 0.892731 15.037 0.892731 10.0782C0.892731 3.60969 7.38445 -0.826546 13.3652 1.41479C17.2091 2.8432 20.0428 6.82653 19.195 11.9015H19.2066Z" fill="#E9F5FB" stroke="black" stroke-width="0.75" stroke-linecap="round" stroke-linejoin="round"/>
<path d="M8.20898 13.2953L7.63995 9.62552L4.17927 8.47583C3.07602 9.56746 2.29792 11.0191 2.05405 12.6565C2.85535 13.7249 3.95859 14.5263 5.23603 14.956C6.42057 14.8863 7.5122 14.2824 8.20898 13.2953Z" fill="#E9F5FB" stroke="black" stroke-width="0.75" stroke-linecap="round" stroke-linejoin="round"/>
<path d="M7.33714 3.041L4.15516 5.31719C3.56289 5.2359 2.97066 5.16621 2.37839 5.08492C3.41195 3.48231 4.93327 2.21646 6.73331 1.50806L7.33714 3.05262V3.041Z" fill="#E9F5FB" stroke="black" stroke-width="0.75" stroke-linecap="round" stroke-linejoin="round"/>
<path d="M4.15562 5.305C4.06271 6.32696 4.06273 7.38373 4.17886 8.47536C5.25888 9.04441 6.42017 9.42763 7.63955 9.62505C8.7428 8.95149 9.76473 8.13861 10.6706 7.19795C10.7518 6.02502 10.6242 4.84049 10.2874 3.71401C9.38155 3.22626 7.3376 3.02881 7.3376 3.02881C7.3376 3.02881 4.88724 4.09724 4.15562 5.305Z" fill="black" stroke="black" stroke-width="0.75" stroke-linecap="round" stroke-linejoin="round"/>
<path d="M11.7732 14.9673C11.7732 14.9673 13.9797 13.7944 14.9436 12.2847C17.3823 13.7944 17.2778 13.8524 17.2778 13.8524C16.7901 14.9673 16.3139 16.0821 15.8262 17.2086C14.572 17.4293 13.3178 17.6383 12.0636 17.8589L11.7848 14.9788L11.7732 14.9673Z" fill="#E9F5FB" stroke="black" stroke-width="0.75" stroke-linecap="round" stroke-linejoin="round"/>
<path d="M8.20989 13.2949C9.17378 14.2588 10.428 14.8395 11.7868 14.9672C11.8332 16.175 11.9493 16.9414 12.0655 17.8473C11.09 18.1492 10.1144 18.4512 9.13893 18.7415C7.95439 18.4396 6.81631 17.975 5.73629 17.3363C5.34145 16.6163 5.15564 15.7801 5.23694 14.944C6.34018 14.6188 7.36213 14.0614 8.20989 13.2833V13.2949Z" fill="black" stroke="black" stroke-width="0.75" stroke-linecap="round" stroke-linejoin="round"/>
<path d="M16.4777 6.21084L14.4338 8.76574C14.4338 8.76574 15.0841 10.9258 14.9448 12.2846C17.0468 13.6781 17.279 13.8523 17.279 13.8523L19.0094 11.2626C18.9629 10.0897 18.812 8.91673 18.5565 7.76703C17.9526 7.13992 17.2558 6.60568 16.4777 6.19922V6.21084Z" fill="black" stroke="black" stroke-width="0.75" stroke-linecap="round" stroke-linejoin="round"/>
<path d="M10.7048 7.10542C10.7048 7.10542 13.2829 7.6396 14.4791 8.67316C16.4533 6.40861 16.523 6.11834 16.523 6.11834C16.2095 4.72476 15.443 3.47054 14.3514 2.5531C13.0042 2.70407 11.6455 3.06407 10.3216 3.63311C10.4493 4.79442 10.5771 5.95574 10.7048 7.11705V7.10542Z" fill="#E9F5FB" stroke="black" stroke-width="0.75" stroke-linecap="round" stroke-linejoin="round"/>
<path d="M15.7462 2.72733L14.3527 2.54155L13.3655 1.41504C14.2249 1.72859 15.0146 2.18151 15.7346 2.72733H15.7462Z" fill="#17CBE3" stroke="black" stroke-width="0.75" stroke-linecap="round" stroke-linejoin="round"/>
<path d="M2.05306 12.6561L1.82078 14.1194C1.44916 13.3645 1.18207 12.5632 1.0311 11.7155C1.57691 12.2148 2.04143 12.6561 2.04143 12.6561H2.05306Z" fill="black"/>
</svg>
