<svg width="86" height="93" viewBox="0 0 86 93" fill="none" xmlns="http://www.w3.org/2000/svg">
<path d="M47.6329 92.8992C66.1245 92.8992 81.1149 89.4362 81.1149 85.1643C81.1149 80.8925 66.1245 77.4296 47.6329 77.4296C29.1413 77.4296 14.1508 80.8925 14.1508 85.1643C14.1508 89.4362 29.1413 92.8992 47.6329 92.8992Z" fill="#333333" fill-opacity="0.5"/>
<path d="M62.3537 2.89651C63.4587 2.46878 64.4092 2.10045 65.6092 2.37372C66.1677 2.49254 67.3796 2.76582 67.7954 3.8708C68.033 4.50052 67.9736 5.28469 67.6647 5.86688C67.4389 6.28273 67.1419 6.49662 66.9756 6.62731C65.3478 7.88675 63.4587 8.74221 61.4982 9.07489C61.0586 9.14618 60.5477 9.18183 60.215 8.86103C59.9536 8.61152 59.8705 8.29072 59.8111 8.04121C59.3952 6.27087 59.1932 5.37975 59.2526 5.13023C59.5378 4.00149 60.7616 3.52623 62.3537 2.89651Z" fill="#EAD8C5" stroke="black" stroke-width="0.75" stroke-linecap="round" stroke-linejoin="round"/>
<path d="M18.581 62.5775C19.6028 63.1122 20.981 61.9953 21.4801 61.627C21.9672 61.2586 22.3118 60.8666 22.5019 60.6408C23.0841 59.9042 23.3455 59.2031 23.4049 59.0368C23.8326 57.8487 23.9514 56.1377 23.4524 55.9001C23.096 55.7219 22.7633 56.5179 21.8127 57.1001C19.8523 58.3001 17.975 56.6249 17.3216 57.7299C16.5255 59.0844 17.3097 61.9241 18.581 62.5775Z" fill="#EAD8C5" stroke="black" stroke-width="0.75" stroke-linecap="round" stroke-linejoin="round"/>
<path d="M71.9166 78.9857C71.9166 78.9857 72.0354 79.2114 72.1067 79.4609C72.1543 79.6272 72.178 79.7817 72.1899 79.9481C73.1166 79.9481 74.483 79.8411 76.0157 79.2232C76.9306 78.8549 77.6673 78.3915 78.2257 77.9757C74.9702 72.1657 71.3344 66.5933 68.4353 60.5694C68.3403 60.3674 67.3066 58.5851 65.2274 55.0326C64.4432 53.69 63.8135 52.6206 62.5897 51.6939C61.853 51.1355 60.7005 50.2681 59.3104 50.4938C58.3123 50.6483 57.6232 51.3018 56.5539 52.3117C55.6509 53.1672 55.1875 53.5949 55.1162 54.0702C54.8786 55.5078 56.9816 56.7316 59.3935 59.0485C60.855 60.4505 61.8174 61.6981 63.7303 64.2169C68.9581 71.0725 71.1324 77.5361 71.9047 78.9975L71.9166 78.9857Z" fill="#EAD8C5" stroke="black" stroke-width="0.75" stroke-linecap="round" stroke-linejoin="round"/>
<path d="M27.2669 80.3404C27.1481 80.6849 27.0293 81.0889 27.1719 81.4216C27.3264 81.7781 27.6709 81.9206 27.8373 81.9919C29.0373 82.4909 32.0789 82.2652 32.4948 82.2414C33.0176 80.8632 33.8493 78.8077 35.0255 76.4076C36.2612 73.8887 37.2949 72.1421 37.6395 71.5718C39.089 69.0886 40.9663 64.942 42.8317 57.7062C41.5841 58.0864 39.8257 58.8112 38.1623 60.3201C35.4889 62.7439 35.8335 64.1578 33.3503 69.1243C31.4373 72.9382 28.7403 76.2532 27.2669 80.3523V80.3404Z" fill="#EAD8C5" stroke="black" stroke-width="0.75" stroke-linecap="round" stroke-linejoin="round"/>
<path d="M24.2853 85.9363C24.8318 86.4235 25.5328 86.6967 26.2219 86.9225C28.5151 87.6829 31.1409 88.0631 33.2439 86.8987C33.7073 86.6373 34.135 86.2928 34.3489 85.8175C34.7053 85.0334 34.3489 84.0709 33.7429 83.4768C33.1251 82.8709 32.5548 82.6451 31.4855 82.2649C28.2062 81.0768 28.3488 80.4471 27.2557 80.5303C25.2358 80.6966 23.2041 82.9779 23.5249 84.6294C23.6556 85.3066 24.1665 85.8532 24.2734 85.9482L24.2853 85.9363Z" fill="#484F64" stroke="black" stroke-width="0.75" stroke-linecap="round" stroke-linejoin="round"/>
<path d="M18.3677 16.0142C18.9974 15.0756 19.1638 14.7072 19.5202 14.6834C20.0311 14.6597 20.1262 15.3963 20.8153 15.5745C21.647 15.7884 22.0153 14.8498 22.9539 15.0161C23.5599 15.1231 23.9758 15.634 24.3203 16.0379C24.4035 16.1449 24.8312 16.6439 25.0926 17.4994C25.3659 18.4262 25.4491 19.436 25.1996 20.3628C24.95 21.2896 24.3441 22.1331 23.5243 22.4896C22.7757 22.8104 21.944 22.7272 21.148 22.6203C18.843 22.3114 16.5498 21.848 14.2924 21.2301C13.9716 21.147 14.4231 19.3885 14.5062 19.1747C14.625 18.8776 14.7557 18.7113 14.9221 18.6044C15.3498 18.3192 15.7062 18.5449 16.1577 18.4855C16.7875 18.4023 17.334 17.6063 18.4033 16.0023L18.3677 16.0142Z" fill="#F4D8C7" stroke="black" stroke-width="0.75" stroke-linecap="round" stroke-linejoin="round"/>
<path d="M14.0308 1.24523C15.4566 1.74425 15.3734 2.76607 16.8586 3.63341C18.4151 4.54829 19.6626 4.09685 19.9478 4.95231C20.1141 5.45133 19.7814 5.68893 19.8408 6.85332C19.8646 7.29293 20.0309 7.72063 19.9597 8.14836C19.8765 8.62362 19.5082 8.96818 19.1517 9.26522C18.3319 9.97811 17.5121 10.691 16.6922 11.3921C18.1299 10.6198 19.5795 9.83555 21.0171 9.06326C21.3498 12.4614 19.4131 15.9783 16.5021 17.2258C16.0744 17.404 15.5992 17.5466 15.1833 17.3565C14.9219 17.2496 14.7199 17.0239 14.5298 16.8219C11.2981 13.3406 10.2406 11.0475 9.93169 9.44347C9.32573 6.283 9.97923 1.95817 11.9516 1.15023C12.7951 0.805664 13.7694 1.15024 14.0189 1.23341L14.0308 1.24523Z" fill="#EAD7BE" stroke="black" stroke-width="0.75" stroke-linecap="round" stroke-linejoin="round"/>
<path d="M14.6145 5.96033C14.9503 5.48252 14.9832 4.92694 14.6879 4.71942C14.3926 4.51189 13.881 4.73103 13.5452 5.20884C13.2094 5.68665 13.1765 6.2422 13.4718 6.44972C13.7671 6.65725 14.2786 6.43814 14.6145 5.96033Z" fill="black"/>
<path d="M42.4864 59.0845C47.0607 57.1003 47.8093 57.5755 52.6925 55.6032C55.4847 54.4744 59.1917 52.7517 63.4096 50.1021C61.6274 47.8328 59.5719 45.4327 57.2313 42.9732C54.8193 40.4425 52.4549 38.2562 50.2331 36.3671C47.4766 36.8067 31.8406 39.4919 30.3554 47.1674C30.1296 48.3317 30.1653 49.8169 30.2009 51.5635C30.3078 56.0428 30.4267 61.6152 32.8386 62.9935C34.6089 64.0153 36.0585 61.8767 42.4982 59.0845H42.4864Z" fill="#0B88C5" stroke="black" stroke-width="0.75" stroke-linecap="round" stroke-linejoin="round"/>
<path d="M22.9544 15.0161C24.8198 14.1369 27.7665 12.8181 31.4854 11.4874C37.0103 9.50317 36.9627 10.0853 43.5451 7.87536C47.1095 6.67533 50.7928 5.9743 54.3572 4.80992C55.2245 4.52476 57.7196 3.36044 58.789 4.50106C59.0385 4.76245 59.0385 4.96442 59.288 5.66542C60.2029 8.1843 61.3673 8.74269 61.2484 9.56251C61.0108 11.214 56.1394 11.5468 56.1394 11.5468C51.9928 11.8319 45.1728 13.5547 33.3389 19.7093C39.7073 28.1452 44.151 31.6621 47.1332 33.2542C47.9055 33.67 50.2818 34.87 50.2224 36.3671C50.1868 37.4959 48.7967 38.2088 46.955 39.2544C43.3787 41.2742 40.0044 43.7099 36.4399 45.7773C31.5923 48.5932 30.7725 49.1754 29.7031 48.6764C27.8496 47.8209 28.1942 45.1001 26.008 41.9277C24.2852 39.4207 21.9802 38.0899 20.2336 37.3533C20.9584 40.9415 21.2435 44.6367 21.1009 48.3081C21.0296 50.0427 22.4792 51.5279 23.1089 53.1081C23.3822 53.8091 23.6674 54.5933 23.4297 55.3062C23.204 55.9953 22.5624 56.3874 21.9445 56.6607C20.6257 57.231 19.1999 57.4806 17.786 57.3736C16.6692 53.8923 15.5998 50.1497 14.6493 46.1456C12.5582 37.4008 11.4532 29.2977 10.9066 22.1807C11.7146 21.8005 12.9265 21.3608 14.4236 21.3014C15.8612 21.242 17.0612 21.3727 18.1068 21.848C19.7346 22.5965 21.493 22.9767 23.2515 22.9767C23.5842 22.9767 23.9406 22.953 24.2139 22.751C24.4159 22.6084 24.5585 22.3708 24.6892 22.1569C24.9743 21.6698 25.4615 20.5886 25.4615 19.3529C25.4496 17.7133 24.4753 16.0498 22.9426 15.0399L22.9544 15.0161Z" fill="#FDCB67" stroke="black" stroke-width="0.75" stroke-linecap="round" stroke-linejoin="round"/>
<path d="M10.1936 9.37218C10.6094 12.3425 12.1183 15.1109 14.3045 16.9169C14.8273 17.3565 15.4214 17.7605 15.7303 18.4021C16.2531 19.507 15.4689 20.8259 15.2075 21.3724C12.7362 26.3389 13.0689 31.0559 11.6075 31.1272C10.954 31.1628 10.5856 30.236 9.49255 28.3588C6.54595 23.2972 5.55977 23.7844 3.57556 20.0417C1.99533 17.0595 0.652715 14.4218 1.08045 11.1187C1.42501 8.39786 3.02902 6.02158 5.02511 4.37005C6.10632 3.46706 10.4074 0.318471 11.6075 1.39969C10.5856 4.01361 9.78958 6.43744 10.1936 9.36029V9.37218Z" fill="black" stroke="black" stroke-width="0.75" stroke-linecap="round" stroke-linejoin="round"/>
<path d="M77.8261 77.9515C79.3944 77.2386 81.2479 76.6327 82.8044 77.3931C83.743 77.8446 84.4084 78.7476 84.7767 79.7219C84.9906 80.3041 85.1094 80.9575 84.8599 81.5278C84.7054 81.8724 84.4322 82.1338 84.1352 82.3833C81.8896 84.2487 78.7766 84.5695 75.8656 84.8071C75.0814 84.8665 74.226 84.914 73.5963 84.4388C73.1566 84.1061 72.919 83.5596 72.7289 83.0368C72.4913 82.3833 72.2774 81.706 72.2893 81.005C72.2893 79.4129 72.9428 79.4129 74.2022 79.2466C75.4617 79.0802 76.6498 78.4862 77.8142 77.9634L77.8261 77.9515Z" fill="#484F64" stroke="black" stroke-width="0.75" stroke-linecap="round" stroke-linejoin="round"/>
</svg>
