<svg width="69" height="114" viewBox="0 0 69 114" fill="none" xmlns="http://www.w3.org/2000/svg">
<path d="M45.4559 8.46388C45.874 8.46388 48.0921 8.16189 49.3695 9.79934C50.5889 11.3555 49.9966 13.9685 51.5412 15.1995C51.8896 14.4214 52.2496 13.6317 52.8187 12.993C53.3877 12.3542 54.2122 11.8898 55.06 11.9594C55.7684 13.4575 53.0509 15.0601 53.8406 16.5234C54.909 16.2563 55.7335 15.3737 56.1981 14.3865C56.6626 13.3878 56.8136 12.2846 56.9297 11.1929C57.1155 9.49742 57.2433 7.76704 56.8833 6.09476C56.5233 4.42247 55.6058 2.80831 54.131 1.94894C52.9464 1.26376 51.5296 1.11276 50.1592 1.04308C48.8586 0.9734 47.0121 0.868851 44.9449 1.80951C44.2714 2.11145 42.8314 2.78503 41.7049 4.29474C40.172 6.32703 39.5913 9.3697 40.4971 9.98519C41.3332 10.5542 42.6107 8.4987 45.4443 8.45225L45.4559 8.46388Z" fill="#603813" stroke="black" stroke-width="0.75" stroke-linecap="round" stroke-linejoin="round"/>
<path d="M42.1113 17.1272C42.7616 18.451 43.6558 19.6937 44.852 20.5647C46.0481 21.4356 47.5578 21.9234 49.0211 21.726C51.2508 21.424 53.1205 19.3801 53.2367 17.1272C53.2599 16.7671 53.2367 16.3955 53.3063 16.0471C53.4109 15.5013 53.736 15.0368 54.0031 14.5607C54.3631 13.922 54.6651 13.2484 54.8857 12.5516C54.9438 12.3658 55.0019 12.1567 54.909 11.9826C54.8044 11.7735 54.5373 11.7038 54.3051 11.7038C52.9695 11.7155 52.2147 13.2252 51.9128 14.5258C51.8199 14.9207 51.6573 15.3969 51.2508 15.4433C50.8443 15.4898 50.5657 15.0368 50.4147 14.6536C49.776 12.9116 49.474 10.8677 48.0108 9.71798C46.7449 8.71925 44.9449 8.69604 43.3888 9.07927C41.5539 9.5438 40.7177 10.078 40.7874 11.9594C40.8454 13.7478 41.31 15.5245 42.0881 17.1272H42.1113Z" fill="#A67C52" stroke="black" stroke-width="0.75" stroke-linecap="round" stroke-linejoin="round"/>
<path d="M44.863 22.7947C44.863 22.7947 46.9534 24.8386 49.3573 24.9664C49.7173 24.9896 50.089 24.9664 50.4258 24.8503C51.3432 24.56 52.0167 23.7354 52.3651 22.8412C52.7135 21.947 52.7716 20.9599 52.8297 20.0076C52.1445 20.0773 51.587 20.5418 51.0296 20.9367C50.2515 21.4825 49.3922 21.9122 48.4632 22.0864C47.1393 22.3302 46.0476 21.8076 45.7224 21.6567C44.6424 21.1225 44.0618 20.3096 43.8295 19.9496C44.1779 20.9019 44.5146 21.8541 44.863 22.818V22.7947Z" fill="#8C6239" stroke="black" stroke-width="0.75" stroke-linecap="round" stroke-linejoin="round"/>
<path d="M32.2874 25.2798C29.3957 28.1367 27.9325 30.6219 26.5156 34.6284C26.086 35.8478 24.6111 39.4014 25.5982 40.5163C26.4576 41.4801 27.9441 40.8879 28.5596 42.3744C29.117 43.7099 28.6757 45.5447 28.8847 46.9615C29.117 48.5641 29.6744 50.1435 30.8822 51.27C31.7532 52.0945 32.8796 52.6056 33.9945 53.0468C36.0849 53.8946 38.303 54.5914 40.5559 54.4172C43.9237 54.1617 46.8038 51.99 49.4748 49.9113C50.369 49.2145 51.2865 48.4945 51.9484 47.577C52.8775 46.288 53.0284 44.8595 53.5161 43.4079C53.8878 42.3047 54.7239 41.6544 55.1536 40.5511C56.0362 38.2866 56.222 35.7897 57.1511 33.5484C57.662 32.3058 58.6491 30.2735 58.6491 30.2735C58.6491 30.2735 60.7743 24.7689 59.2414 21.4708C58.6259 20.1469 57.1743 18.6488 53.5858 17.7313C53.5278 19.3339 53.3303 20.9249 53.0052 22.4927C52.7961 23.5146 52.4362 24.6295 51.5187 25.1289C51.031 25.3844 50.4619 25.4308 49.9045 25.4424C49.9045 25.4424 48.4761 25.5121 47.2799 25.1056C44.8179 24.2695 44.9573 20.8668 42.983 19.81C39.6385 18.01 33.0655 24.4901 32.2874 25.2566V25.2798Z" fill="#5989A0" stroke="black" stroke-width="0.75" stroke-linecap="round" stroke-linejoin="round"/>
<path d="M27.8147 50.0505C28.1283 50.2711 29.0341 50.8402 32.6806 50.7124C38.3826 50.515 46.0124 48.6104 48.1144 48.0762C48.6602 47.9369 49.2177 47.7859 49.7635 47.8905C50.228 47.9718 50.6461 48.2389 51.099 48.4014C52.5158 48.924 54.0836 48.4711 55.5236 48.0182C55.7558 47.9485 55.9881 47.8672 56.1507 47.693C56.5572 47.2633 56.1159 46.404 55.5352 46.4969C56.0346 46.2066 56.5107 45.8698 56.9288 45.4865C56.4875 45.1614 55.9184 45.022 55.3842 45.1033C55.3842 44.6039 55.5817 44.0929 55.9185 43.7213C55.6281 43.3845 55.1984 43.1871 54.7571 43.1639C55.2681 42.7575 55.4191 41.9677 55.1055 41.3987C54.4668 41.8052 53.8165 42.2116 53.1778 42.6181C52.8758 42.5948 52.8758 42.1071 53.0965 41.9097C53.3171 41.7123 53.6539 41.6658 53.9094 41.5033C54.1649 41.3291 54.2694 40.8877 54.0023 40.76C53.05 40.5858 52.1907 41.2477 51.3661 41.7587C47.1738 44.36 46.0357 42.3974 39.7646 43.5471C38.4291 43.791 37.082 44.0929 36.5594 43.4194C35.8975 42.5716 37.0239 40.7368 36.5245 40.4116C36.269 40.249 35.8742 40.6206 35.2471 40.9806C33.6329 41.8865 31.9722 41.8981 29.6032 41.7007C28.3838 41.5961 27.4314 41.3058 27.4314 41.3058C27.1527 41.2245 26.9438 41.1432 26.7696 41.0735C26.2237 40.8529 25.9334 40.7832 25.8986 40.7948C25.167 40.9806 24.4469 47.7162 27.8147 50.0737V50.0505Z" fill="#A67C52" stroke="black" stroke-width="0.75" stroke-linecap="round" stroke-linejoin="round"/>
<path d="M66.7898 47.356C67.2775 47.6579 67.8234 48.0876 67.7537 48.6683C67.6724 49.3999 66.6737 49.5973 65.9653 49.4231C64.7924 49.1328 63.5498 48.3663 62.4814 48.9354C62.3304 49.0166 62.191 49.1328 62.1097 49.2837C61.7962 49.9457 62.8413 50.4451 63.0155 51.1535C60.449 51.2116 59.0323 47.8321 56.5122 47.3444C56.489 46.6592 56.7329 45.9624 57.1858 45.4514C55.8503 45.0333 54.898 43.6514 54.9677 42.2462C54.9909 41.712 55.1534 41.1894 55.316 40.6784C55.7806 39.1804 55.8735 38.1584 57.1858 39.5404C58.1613 40.5623 58.9626 41.6888 60.0542 42.6411C62.0633 44.4063 64.9317 45.4863 66.7898 47.3444V47.356Z" fill="#A67C52" stroke="black" stroke-width="0.75" stroke-linecap="round" stroke-linejoin="round"/>
<path d="M40.2874 64.3347C42.6216 67.865 45.4553 71.0587 48.6721 73.7994C49.996 74.9259 51.4941 76.1801 51.6102 77.922C51.6915 79.153 51.0412 80.3027 50.5418 81.4408C48.4515 86.295 49.1947 92.1481 46.4656 96.654C46.1869 97.1069 45.8733 97.5598 45.8036 98.0824C45.6411 99.2553 46.6979 100.196 47.6502 100.904C48.3237 101.404 49.0553 101.926 49.9031 101.95C51.5522 101.996 52.5625 100.208 53.2012 98.6747C55.129 94.0178 57.5329 89.988 59.4607 85.3196C60.1923 84.9247 60.6917 84.2047 61.0749 83.4614C62.9446 79.8149 62.6543 75.3671 61.2839 71.5116C59.9136 67.656 57.5794 64.2185 55.3961 60.7578C53.2128 57.2971 51.1108 53.6622 50.3095 49.644C48.5095 50.7705 46.6166 51.9087 44.8166 53.0351C44.4914 53.2442 44.1546 53.4532 43.9107 53.7551C43.3533 54.4403 43.3649 55.4042 43.1675 56.2519C42.8307 57.7268 41.8436 58.9462 41.0655 60.2468C40.2875 61.5475 39.4513 63.0688 40.2874 64.3347Z" fill="#634848" stroke="black" stroke-width="0.75" stroke-linecap="round" stroke-linejoin="round"/>
<path d="M2.52216 87.5494L1.5815 87.5959C0.513089 89.8605 0.559533 92.5198 1.20987 94.947C1.8602 97.3741 3.05635 99.5923 4.2525 101.799C4.54283 102.321 4.83311 102.867 5.29764 103.25C5.76216 103.634 6.44734 103.808 6.96993 103.529C7.59704 103.204 7.78286 102.403 7.85254 101.706C8.14286 98.8606 7.57383 95.9225 6.26155 93.3909" fill="#FFC631"/>
<path d="M2.52216 87.5494L1.5815 87.5959C0.513089 89.8605 0.559533 92.5198 1.20987 94.947C1.8602 97.3741 3.05635 99.5923 4.2525 101.799C4.54283 102.321 4.83311 102.867 5.29764 103.25C5.76216 103.634 6.44734 103.808 6.96993 103.529C7.59704 103.204 7.78286 102.403 7.85254 101.706C8.14286 98.8606 7.57383 95.9225 6.26154 93.3909" stroke="black" stroke-width="0.75" stroke-linecap="round" stroke-linejoin="round"/>
<path d="M51.3202 101.288C53.0622 103.436 55.0016 105.434 57.092 107.245C57.9978 108.023 58.9384 108.79 59.612 109.777C60.2856 110.764 60.6456 112.041 60.2623 113.168C59.1591 113.342 58.0442 112.994 56.9874 112.622C54.3745 111.705 51.8196 110.636 49.346 109.417C48.2892 108.894 47.2208 108.337 46.3615 107.524C45.5021 106.711 44.8517 105.608 44.8169 104.435C44.7821 102.705 46.0479 101.067 45.7111 99.3599C46.4776 100.242 47.2557 101.206 48.3938 101.508C49.288 101.741 50.4725 101.624 51.3318 101.276L51.3202 101.288Z" fill="#FFC631" stroke="black" stroke-width="0.75" stroke-linecap="round" stroke-linejoin="round"/>
<path d="M36.526 40.4C37.0137 38.8438 38.1402 37.5896 38.9879 36.196C39.2667 35.7315 39.5106 35.2553 39.7312 34.7676" stroke="black" stroke-width="0.75" stroke-linecap="round" stroke-linejoin="round"/>
<path d="M43.6089 54.359C44.0734 55.9616 43.4811 57.6804 42.6682 59.132C41.8553 60.5837 40.7984 61.9192 40.2178 63.4753C39.9158 64.2766 39.7533 65.136 39.5094 65.9605C39.01 67.7141 38.2087 69.3748 37.3261 70.9658C34.4925 76.0756 30.7531 80.6627 26.4679 84.6344C25.4343 85.5983 24.3543 86.539 23.1117 87.2009C21.7994 87.9093 20.3362 88.2925 18.9078 88.7222C15.1683 89.8487 11.5334 91.2887 8.04945 93.0423C7.55008 93.2978 7.01588 93.5533 6.45845 93.5068C6.15651 93.4836 5.51784 93.2746 4.69331 92.0088C4.17072 91.2191 2.5681 88.7454 3.4507 86.597C3.85716 85.6099 4.60039 85.1338 6.203 84.1815L16.4458 78.0381C17.5839 77.353 18.7452 76.6446 19.5465 75.5878C20.6381 74.1245 20.8704 72.22 21.1607 70.4199C22.2523 63.6379 24.633 57.0649 28.1518 51.1538C28.9996 50.8751 30.3467 50.8635 31.1828 51.2003C32.019 51.5254 32.7738 52.0248 33.5519 52.4545C36.4784 54.0455 40.2991 54.7655 43.6089 54.3706V54.359Z" fill="#634848" stroke="black" stroke-width="0.75" stroke-linecap="round" stroke-linejoin="round"/>
<path d="M41.8907 13.7479C42.1345 13.7014 42.39 13.6549 42.6223 13.713C42.8546 13.7711 43.0636 13.9569 42.9939 14.1428C42.5875 14.2124 42.1462 14.1659 41.7746 14.0033" stroke="black" stroke-width="0.75" stroke-linecap="round" stroke-linejoin="round"/>
<path d="M46.4538 13.539C46.9067 13.4926 47.3829 13.6435 47.6151 13.8874C47.7197 14.0035 47.7545 14.1777 47.5687 14.2474C47.5106 14.2706 47.4294 14.2707 47.3597 14.2823C47.1506 14.2823 46.9416 14.3055 46.7558 14.2474C46.57 14.1893 46.4539 14.0268 46.57 13.9223" stroke="black" stroke-width="0.75" stroke-linecap="round" stroke-linejoin="round"/>
<path d="M43.9929 18.6603C44.5271 18.9158 45.1774 18.8809 45.6768 18.579" stroke="black" stroke-width="0.75" stroke-linecap="round" stroke-linejoin="round"/>
<path d="M44.3172 15.4778V16.0817C44.3172 16.0817 44.3172 16.1978 44.3404 16.2443C44.4101 16.3604 44.5843 16.3372 44.7236 16.3023" stroke="black" stroke-width="0.75" stroke-linecap="round" stroke-linejoin="round"/>
</svg>
