<svg width="36" height="34" viewBox="0 0 36 34" fill="none" xmlns="http://www.w3.org/2000/svg">
<g clip-path="url(#clip0_77_414)">
<path d="M24.887 32.7098C33.8173 29.1164 38.058 19.1709 34.359 10.4958C30.66 1.82069 20.4219 -2.29889 11.4917 1.29446C2.56142 4.8878 -1.67932 14.8333 2.01971 23.5084C5.71874 32.1835 15.9568 36.3031 24.887 32.7098Z" fill="black"/>
<path d="M10.979 19.5957C10.9866 20.0428 10.8801 20.5713 10.4769 20.8373C10.028 21.1329 9.41937 21.0738 8.92866 21.0738C8.72705 20.6526 8.53305 20.2128 8.35046 19.7842H9.20255C9.33188 19.7842 9.43459 19.6844 9.43459 19.5588C9.43459 19.5588 9.44219 13.7313 9.44219 13.0071H10.9676C10.9828 15.1725 10.9752 17.4266 10.979 19.5957Z" fill="white"/>
<path d="M16.6278 17.7149H17.6967C17.5103 18.1325 17.3087 18.5575 17.1185 18.9713C16.5099 18.9898 15.9165 18.9972 15.3193 18.975C14.9921 18.975 14.6498 18.7976 14.8362 18.3136C15.072 17.6891 15.3421 17.0904 15.6274 16.4807C15.2165 16.4807 14.7791 16.5103 14.5471 16.2923C14.3112 16.0669 14.471 15.616 14.5851 15.3648C14.9807 14.5259 15.3269 13.7684 15.7111 12.9259C16.236 12.9185 16.7571 12.9259 17.2745 12.9259C16.9626 13.6169 16.643 14.367 16.3501 15.0174H17.8565C17.5255 15.7675 16.6278 17.7186 16.6278 17.7186V17.7149Z" fill="white"/>
<path d="M22.8358 15.0136V13.5022V15.0136ZM22.2919 17.8479V16.3402V17.8479ZM29.9454 18.8567C29.9454 18.5758 29.8883 17.482 29.4851 16.9277C29.139 16.4547 28.5151 16.3291 27.9559 16.318C27.9217 15.5605 28.1081 14.6699 27.5337 14.0491C27.043 13.5133 26.2898 13.4912 25.5823 13.4912H25.4073V12.9258H23.8591V13.5022H22.8396V14.9766H23.8667V16.3365C23.8667 16.3365 22.7369 16.3439 22.2957 16.3439V17.8516H23.8667V21.0664H25.3845V17.8516H27.9902C28.1157 17.8516 28.2184 17.9513 28.2184 18.0733V19.5107C28.2184 19.6327 28.1157 19.7324 27.9902 19.7324C27.9902 19.7324 26.7501 19.7324 26.7082 19.7361C26.8984 20.1722 27.0886 20.6119 27.3093 21.0664C27.9711 21.0664 28.8575 21.1477 29.3824 20.6341C29.8959 20.1722 29.953 19.1412 29.9454 18.8567ZM26.4344 16.3365H25.3807V14.9766H26.1757C26.3164 14.9766 26.4344 15.0912 26.4344 15.2279V16.3365Z" fill="white"/>
<path d="M18.2825 13.4949H21.8924V15.0062H20.93V19.5403C21.4284 19.544 21.8848 19.5403 22.3831 19.544V21.0517H17.1489C17.381 20.5491 17.6168 20.0429 17.8565 19.544C18.3205 19.544 18.8303 19.544 19.2943 19.5403V15.0099H18.2863C18.2825 14.5037 18.2825 13.9974 18.2863 13.4949H18.2825Z" fill="white"/>
<path d="M28.5684 13.6355C28.6749 13.5505 28.8004 13.4951 28.9526 13.484C29.3482 13.4544 29.7362 13.75 29.797 14.138C29.8465 14.4447 29.6791 14.7293 29.4052 14.8771C29.0667 15.0655 28.6292 14.9953 28.2565 14.9916C28.2527 14.9916 28.2527 14.2932 28.2565 14.2304C28.2793 14.0013 28.3896 13.7759 28.5684 13.6355Z" fill="white"/>
<path d="M12.0098 14.9951H13.5542C13.5542 14.9951 13.7178 17.1125 13.7559 17.6077C13.7825 17.9624 13.8281 18.2913 13.9308 18.6349C13.6684 19.2151 13.3945 19.7842 13.1282 20.3717C12.5957 19.7435 12.2837 18.6978 12.2038 17.7776C12.124 16.8575 12.0821 15.9152 12.006 14.9951H12.0098Z" fill="white"/>
<path d="M8.15264 17.7776C8.07276 18.6941 7.76084 19.7435 7.22829 20.3717C6.96582 19.7842 6.68813 19.2151 6.42566 18.6349C6.52837 18.2913 6.57401 17.9624 6.60064 17.6077C6.63868 17.1162 6.80225 14.9951 6.80225 14.9951H8.34665C8.27057 15.9152 8.23253 16.8612 8.14884 17.7776H8.15264Z" fill="white"/>
<path d="M13.9232 20.9114C14.1591 20.4273 14.3987 19.9469 14.6384 19.4666C15.4638 19.5848 16.2322 19.5442 17.0767 19.5442C16.8446 20.0282 16.5898 20.5751 16.3539 21.0518C15.5399 21.0518 14.7487 21.0814 13.927 20.9114H13.9232Z" fill="white"/>
</g>
<defs>
<clipPath id="clip0_77_414">
<rect width="35" height="34" fill="white" transform="translate(0.685547)"/>
</clipPath>
</defs>
</svg>
