<svg width="102" height="96" viewBox="0 0 102 96" fill="none" xmlns="http://www.w3.org/2000/svg">
<g filter="url(#filter0_d_244_2)">
<mask id="path-1-outside-1_244_2" maskUnits="userSpaceOnUse" x="-1.7897" y="-1.34201" width="105.564" height="99.7645" fill="black">
<rect fill="white" x="-1.7897" y="-1.34201" width="105.564" height="99.7645"/>
<path d="M63.6446 17.6079C53.9745 14.3225 41.9364 13.3909 32.379 18.0843C28.1401 20.1692 24.7222 23.1854 21.5616 26.281C14.4875 33.2337 8.29391 40.999 5.84204 49.5002C4.42251 54.4585 4.49746 60.0418 8.53402 63.6487C10.3841 65.2937 12.8683 66.365 15.303 67.4363C21.4094 70.0751 27.506 72.6841 33.6125 75.3229C37.6406 77.0688 41.6983 78.8048 46.1527 79.7988C54.913 81.7371 65.0222 80.5386 73.2524 76.5666C82.5918 72.061 86.2996 65.3031 90.0173 58.6245C92.6644 53.8357 95.956 47.7111 94.427 40.4338C94.1015 38.909 93.2036 34.8692 89.5038 31.0349C87.4165 28.8749 85.0512 27.8136 78.5889 24.4024C73.8089 21.8836 68.9696 19.4342 63.6446 17.6079Z"/>
</mask>
<path d="M63.6446 17.6079C53.9745 14.3225 41.9364 13.3909 32.379 18.0843C28.1401 20.1692 24.7222 23.1854 21.5616 26.281C14.4875 33.2337 8.29391 40.999 5.84204 49.5002C4.42251 54.4585 4.49746 60.0418 8.53402 63.6487C10.3841 65.2937 12.8683 66.365 15.303 67.4363C21.4094 70.0751 27.506 72.6841 33.6125 75.3229C37.6406 77.0688 41.6983 78.8048 46.1527 79.7988C54.913 81.7371 65.0222 80.5386 73.2524 76.5666C82.5918 72.061 86.2996 65.3031 90.0173 58.6245C92.6644 53.8357 95.956 47.7111 94.427 40.4338C94.1015 38.909 93.2036 34.8692 89.5038 31.0349C87.4165 28.8749 85.0512 27.8136 78.5889 24.4024C73.8089 21.8836 68.9696 19.4342 63.6446 17.6079Z" fill="white"/>
<path d="M63.6446 17.6079C53.9745 14.3225 41.9364 13.3909 32.379 18.0843C28.1401 20.1692 24.7222 23.1854 21.5616 26.281C14.4875 33.2337 8.29391 40.999 5.84204 49.5002C4.42251 54.4585 4.49746 60.0418 8.53402 63.6487C10.3841 65.2937 12.8683 66.365 15.303 67.4363C21.4094 70.0751 27.506 72.6841 33.6125 75.3229C37.6406 77.0688 41.6983 78.8048 46.1527 79.7988C54.913 81.7371 65.0222 80.5386 73.2524 76.5666C82.5918 72.061 86.2996 65.3031 90.0173 58.6245C92.6644 53.8357 95.956 47.7111 94.427 40.4338C94.1015 38.909 93.2036 34.8692 89.5038 31.0349C87.4165 28.8749 85.0512 27.8136 78.5889 24.4024C73.8089 21.8836 68.9696 19.4342 63.6446 17.6079Z" stroke="black" stroke-width="2" stroke-miterlimit="10" mask="url(#path-1-outside-1_244_2)"/>
</g>
<g filter="url(#filter1_d_244_2)">
<mask id="path-2-inside-2_244_2" fill="white">
<path d="M52.0125 26.2819C48.9915 23.1004 43.0691 21.4274 37.6952 22.3445C33.7669 23.015 31.2644 24.8729 28.4229 26.9592C22.5007 31.3107 19.2604 37.3793 16.2096 43.2193C14.3153 46.8506 12.401 50.6712 12.9694 54.4162C13.8668 60.2927 19.2208 63.6475 20.1879 64.2565C21.833 65.3048 23.0593 66.0437 24.9237 66.1564C28.4133 66.3614 34.2259 61.7807 35.5121 60.6577C42.8202 54.3369 46.4792 51.1666 49.3705 45.9437C52.5011 40.293 57.217 31.7275 52.0424 26.272L52.0125 26.2819Z"/>
</mask>
<path d="M52.0125 26.2819C48.9915 23.1004 43.0691 21.4274 37.6952 22.3445C33.7669 23.015 31.2644 24.8729 28.4229 26.9592C22.5007 31.3107 19.2604 37.3793 16.2096 43.2193C14.3153 46.8506 12.401 50.6712 12.9694 54.4162C13.8668 60.2927 19.2208 63.6475 20.1879 64.2565C21.833 65.3048 23.0593 66.0437 24.9237 66.1564C28.4133 66.3614 34.2259 61.7807 35.5121 60.6577C42.8202 54.3369 46.4792 51.1666 49.3705 45.9437C52.5011 40.293 57.217 31.7275 52.0424 26.272L52.0125 26.2819Z" fill="#FEF058" fill-opacity="0.3" shape-rendering="crispEdges"/>
<path d="M52.0125 26.2819C48.9915 23.1004 43.0691 21.4274 37.6952 22.3445C33.7669 23.015 31.2644 24.8729 28.4229 26.9592C22.5007 31.3107 19.2604 37.3793 16.2096 43.2193C14.3153 46.8506 12.401 50.6712 12.9694 54.4162C13.8668 60.2927 19.2208 63.6475 20.1879 64.2565C21.833 65.3048 23.0593 66.0437 24.9237 66.1564C28.4133 66.3614 34.2259 61.7807 35.5121 60.6577C42.8202 54.3369 46.4792 51.1666 49.3705 45.9437C52.5011 40.293 57.217 31.7275 52.0424 26.272L52.0125 26.2819Z" stroke="#2D3648" stroke-width="2" stroke-miterlimit="10" shape-rendering="crispEdges" mask="url(#path-2-inside-2_244_2)"/>
</g>
<defs>
<filter id="filter0_d_244_2" x="0.00585938" y="13.8516" width="99.8105" height="75.8564" filterUnits="userSpaceOnUse" color-interpolation-filters="sRGB">
<feFlood flood-opacity="0" result="BackgroundImageFix"/>
<feColorMatrix in="SourceAlpha" type="matrix" values="0 0 0 0 0 0 0 0 0 0 0 0 0 0 0 0 0 0 127 0" result="hardAlpha"/>
<feOffset dy="4"/>
<feGaussianBlur stdDeviation="2"/>
<feComposite in2="hardAlpha" operator="out"/>
<feColorMatrix type="matrix" values="0 0 0 0 0 0 0 0 0 0 0 0 0 0 0 0 0 0 0.25 0"/>
<feBlend mode="normal" in2="BackgroundImageFix" result="effect1_dropShadow_244_2"/>
<feBlend mode="normal" in="SourceGraphic" in2="effect1_dropShadow_244_2" result="shape"/>
</filter>
<filter id="filter1_d_244_2" x="8.86719" y="22.0947" width="49.4805" height="52.0684" filterUnits="userSpaceOnUse" color-interpolation-filters="sRGB">
<feFlood flood-opacity="0" result="BackgroundImageFix"/>
<feColorMatrix in="SourceAlpha" type="matrix" values="0 0 0 0 0 0 0 0 0 0 0 0 0 0 0 0 0 0 127 0" result="hardAlpha"/>
<feOffset dy="4"/>
<feGaussianBlur stdDeviation="2"/>
<feComposite in2="hardAlpha" operator="out"/>
<feColorMatrix type="matrix" values="0 0 0 0 0 0 0 0 0 0 0 0 0 0 0 0 0 0 0.25 0"/>
<feBlend mode="normal" in2="BackgroundImageFix" result="effect1_dropShadow_244_2"/>
<feBlend mode="normal" in="SourceGraphic" in2="effect1_dropShadow_244_2" result="shape"/>
</filter>
</defs>
</svg>
