<svg width="39" height="30" viewBox="0 0 39 30" fill="none" xmlns="http://www.w3.org/2000/svg">
<path d="M12.0937 3.73598C7.57993 5.20615 3.15063 7.86421 1.6541 11.3926C0.99031 12.9569 0.95408 14.5682 1.02649 16.1324C1.20753 19.6491 1.99206 23.154 4.33342 25.9649C5.6972 27.5998 7.80924 29.0346 10.5127 28.9994C11.7437 28.9876 12.9988 28.67 14.2298 28.3525C17.2832 27.5645 20.3367 26.7882 23.3901 26.0002C25.4056 25.4827 27.4331 24.9652 29.3159 24.1419C33.021 22.5424 36.002 19.7902 37.3175 16.7793C38.8141 13.3568 37.5589 10.7105 36.3279 8.06415C35.4469 6.17057 34.2882 3.79479 31.0538 2.26581C30.3779 1.94825 28.5676 1.11319 25.8763 1.00734C24.3677 0.94853 23.1729 1.24257 19.697 1.91297C17.1384 2.40694 14.5799 2.9362 12.0937 3.74773V3.73598Z" fill="white" stroke="#2D3648" stroke-miterlimit="10"/>
<path d="M10.8712 7.10732C10.6011 7.04774 9.19188 6.78561 7.81788 7.39329C7.13676 7.69117 6.38513 8.35843 5.21078 10.5032C3.86027 12.9816 3.9425 15.6268 4.05994 18.1766C4.1304 19.7495 4.23608 21.4057 5.29299 22.6211C6.96058 24.5394 9.80255 24.8492 10.3193 24.9088C11.2 25.0161 11.8459 25.0756 12.5975 24.8135C14.4412 24.1701 15.1576 22.1683 15.5216 21.1793C15.9796 19.9163 16.2967 18.2005 15.5686 14.9595C14.7348 11.2181 13.948 7.72692 10.8712 7.09541V7.10732Z" fill="#4887F6" fill-opacity="0.3" stroke="#2D3648" stroke-miterlimit="10"/>
<path d="M20.94 7.57778C20.6659 7.61091 20.4705 7.86001 20.5036 8.13416C20.5367 8.40831 20.7858 8.60369 21.06 8.57055L20.94 7.57778ZM21.06 8.57055C24.789 8.11986 28.098 9.88254 29.5751 12.2636L30.4249 11.7364C28.7299 9.0042 25.0307 7.08336 20.94 7.57778L21.06 8.57055Z" fill="#2D3648"/>
</svg>
