<svg width="99" height="86" viewBox="0 0 99 86" fill="none" xmlns="http://www.w3.org/2000/svg">
<path d="M8.70804 60.0603C10.8651 64.6923 14.8663 69.3204 21.1168 70.757C23.9426 71.4171 26.9875 71.3586 29.904 71.2915L29.8925 70.7916L29.9041 71.2915C33.5295 71.2076 37.1535 71.1305 40.7779 71.0534L40.7923 71.0531C44.4215 70.9759 48.0511 70.8987 51.6825 70.8147L51.8297 70.8115C56.5652 70.708 61.3745 70.6029 66.0426 69.7153C75.3189 67.9972 83.6553 63.1685 88.3887 56.7661C93.7596 49.5058 92.485 42.528 91.2531 35.7835L91.2161 35.5807C90.3213 30.6811 89.0599 24.3716 82.5656 18.9347L82.5647 18.934C81.2155 17.81 77.5863 14.8317 71.5424 13.0911L71.5422 13.0911C68.6297 12.2534 66.0746 12.1559 60.3398 11.9368C59.3643 11.8996 58.2969 11.8588 57.1201 11.8103L57.12 11.8103C51.3578 11.5738 45.5521 11.4118 39.74 11.8755L39.7473 11.8456L39.0524 11.9066C33.56 12.389 27.9341 13.5788 22.9987 15.5859C18.0672 17.5914 13.7917 20.4269 11.047 24.2218C8.61174 27.5877 7.60015 31.4029 6.87092 35.0941L6.87045 35.0965C5.26993 43.415 5.01396 52.1123 8.70788 60.06L8.70804 60.0603Z" fill="white" stroke="black" stroke-miterlimit="10" stroke-linecap="round"/>
<path d="M34.0135 20.6334L34.5713 20.9058L34.5758 20.8874C37.4566 22.4608 38.9333 25.1243 39.6728 28.5103C40.4629 32.1286 40.3935 36.4934 40.312 41.0905L40.312 41.0914C40.1864 48.9455 38.4932 52.6489 36.7629 55.2275C36.7627 55.2277 36.7626 55.228 36.7624 55.2283L36.7168 55.2956C36.0081 56.3408 34.9931 57.8381 33.603 59.1396C32.1853 60.4671 30.4071 61.5623 28.2071 61.7669C26.4203 61.9327 25.0351 61.4664 23.0265 60.712L23.0236 60.7109L22.9886 60.6981C22.3684 60.4698 20.5209 59.7899 18.4804 58.5251C16.3957 57.2328 14.1464 55.3523 12.7898 52.7582L12.7898 52.7581C11.091 49.5112 11.7293 45.7848 12.4607 42.0653L12.4608 42.0647C13.6323 36.0677 14.9207 30.0195 19.3876 25.1592C23.3404 20.8761 25.3875 19.8627 26.9864 19.5906L26.9885 19.5902C30.3996 18.9952 33.4405 20.3537 34.0135 20.6334Z" fill="#4887F6" fill-opacity="0.3" stroke="black" stroke-miterlimit="10" stroke-linecap="round"/>
<path d="M61.5542 19.5566C70.2469 20.5845 76.8288 26.4571 78.8884 32.8814" stroke="black" stroke-miterlimit="10" stroke-linecap="round"/>
</svg>
