<svg width="64" height="43" viewBox="0 0 64 43" fill="none" xmlns="http://www.w3.org/2000/svg">
<g filter="url(#filter0_d_244_5)">
<mask id="path-1-outside-1_244_5" maskUnits="userSpaceOnUse" x="4" y="-1" width="57" height="36" fill="black">
<rect fill="white" x="4" y="-1" width="57" height="36"/>
<path d="M42.6249 33.8258C49.2309 33.3685 55.746 31.3316 57.9884 27.2371C58.9884 25.4081 59.0794 23.3089 58.9582 21.2512C58.746 16.6163 57.655 11.7528 54.2914 7.34646C52.3217 4.76919 49.2613 2.21269 45.3219 1.36053C43.5037 0.986414 41.6854 0.986386 39.8976 1.00717C35.4431 1.04874 30.9583 1.06956 26.5038 1.11113C23.5644 1.11113 20.5948 1.15268 17.8372 1.60994C12.413 2.50367 8.01908 5.12251 6.04939 8.63508C3.80699 12.6257 5.59483 16.4916 7.35239 20.3367C8.59481 23.0803 10.2615 26.5721 14.9584 29.6274C15.9281 30.2717 18.5644 31.9344 22.5038 32.9528C24.7159 33.514 26.4734 33.5348 31.534 33.7842C35.2612 33.9713 39.0189 34.1168 42.6552 33.8673L42.6249 33.8258Z"/>
</mask>
<path d="M42.6249 33.8258C49.2309 33.3685 55.746 31.3316 57.9884 27.2371C58.9884 25.4081 59.0794 23.3089 58.9582 21.2512C58.746 16.6163 57.655 11.7528 54.2914 7.34646C52.3217 4.76919 49.2613 2.21269 45.3219 1.36053C43.5037 0.986414 41.6854 0.986386 39.8976 1.00717C35.4431 1.04874 30.9583 1.06956 26.5038 1.11113C23.5644 1.11113 20.5948 1.15268 17.8372 1.60994C12.413 2.50367 8.01908 5.12251 6.04939 8.63508C3.80699 12.6257 5.59483 16.4916 7.35239 20.3367C8.59481 23.0803 10.2615 26.5721 14.9584 29.6274C15.9281 30.2717 18.5644 31.9344 22.5038 32.9528C24.7159 33.514 26.4734 33.5348 31.534 33.7842C35.2612 33.9713 39.0189 34.1168 42.6552 33.8673L42.6249 33.8258Z" fill="white"/>
<path d="M42.6249 33.8258C49.2309 33.3685 55.746 31.3316 57.9884 27.2371C58.9884 25.4081 59.0794 23.3089 58.9582 21.2512C58.746 16.6163 57.655 11.7528 54.2914 7.34646C52.3217 4.76919 49.2613 2.21269 45.3219 1.36053C43.5037 0.986414 41.6854 0.986386 39.8976 1.00717C35.4431 1.04874 30.9583 1.06956 26.5038 1.11113C23.5644 1.11113 20.5948 1.15268 17.8372 1.60994C12.413 2.50367 8.01908 5.12251 6.04939 8.63508C3.80699 12.6257 5.59483 16.4916 7.35239 20.3367C8.59481 23.0803 10.2615 26.5721 14.9584 29.6274C15.9281 30.2717 18.5644 31.9344 22.5038 32.9528C24.7159 33.514 26.4734 33.5348 31.534 33.7842C35.2612 33.9713 39.0189 34.1168 42.6552 33.8673L42.6249 33.8258Z" stroke="black" stroke-width="2" stroke-miterlimit="10" mask="url(#path-1-outside-1_244_5)"/>
<mask id="path-2-inside-2_244_5" fill="white">
<path d="M43.4617 27.5778C46.6951 28.4136 50.5385 27.9855 52.7348 26.4974C54.3515 25.417 54.5651 24.0716 54.8701 22.5631C55.4802 19.4238 53.833 16.0399 52.1858 12.8191C51.1791 10.8214 50.081 8.70135 47.7627 7.13171C44.1327 4.66513 39.6793 4.21666 38.8557 4.13512C37.483 3.99243 36.4762 3.89052 35.4696 4.21668C33.6089 4.82823 33.182 8.02866 33.1515 8.80329C32.9074 13.1045 32.7853 15.2653 34.1885 18.1804C35.6832 21.34 37.9406 26.1305 43.4617 27.5778Z"/>
</mask>
<path d="M43.4617 27.5778C46.6951 28.4136 50.5385 27.9855 52.7348 26.4974C54.3515 25.417 54.5651 24.0716 54.8701 22.5631C55.4802 19.4238 53.833 16.0399 52.1858 12.8191C51.1791 10.8214 50.081 8.70135 47.7627 7.13171C44.1327 4.66513 39.6793 4.21666 38.8557 4.13512C37.483 3.99243 36.4762 3.89052 35.4696 4.21668C33.6089 4.82823 33.182 8.02866 33.1515 8.80329C32.9074 13.1045 32.7853 15.2653 34.1885 18.1804C35.6832 21.34 37.9406 26.1305 43.4617 27.5778Z" fill="#FFBFA7" stroke="#2D3648" stroke-width="2" stroke-miterlimit="10" mask="url(#path-2-inside-2_244_5)"/>
<path d="M12.2852 17C11.0806 12.8145 13.826 8.90045 18 7" stroke="#2D3648" stroke-miterlimit="10" stroke-linecap="round"/>
</g>
<defs>
<filter id="filter0_d_244_5" x="0" y="0" width="64" height="43" filterUnits="userSpaceOnUse" color-interpolation-filters="sRGB">
<feFlood flood-opacity="0" result="BackgroundImageFix"/>
<feColorMatrix in="SourceAlpha" type="matrix" values="0 0 0 0 0 0 0 0 0 0 0 0 0 0 0 0 0 0 127 0" result="hardAlpha"/>
<feOffset dy="4"/>
<feGaussianBlur stdDeviation="2"/>
<feComposite in2="hardAlpha" operator="out"/>
<feColorMatrix type="matrix" values="0 0 0 0 0 0 0 0 0 0 0 0 0 0 0 0 0 0 0.25 0"/>
<feBlend mode="normal" in2="BackgroundImageFix" result="effect1_dropShadow_244_5"/>
<feBlend mode="normal" in="SourceGraphic" in2="effect1_dropShadow_244_5" result="shape"/>
</filter>
</defs>
</svg>
