<svg width="97" height="87" viewBox="0 0 97 87" fill="none" xmlns="http://www.w3.org/2000/svg">
<path d="M12.8095 19.478C4.75103 26.6362 -1.00504 36.7541 1.65855 46.872C2.83234 51.3688 5.5863 55.5215 8.52077 59.4448C15.112 68.2779 23.1705 76.6521 33.5991 82.0437C39.6938 85.1869 47.1654 87.2518 53.5083 85.141C56.3976 84.1774 58.7903 82.4108 61.1153 80.6901C66.9391 76.3768 72.7403 72.0864 78.5641 67.7731C82.4014 64.9282 86.2614 62.0833 89.2635 58.573C95.1776 51.69 97.3673 42.444 95.1551 33.7486C92.6496 23.8831 85.0425 18.0555 77.5032 12.2509C72.1083 8.09822 65.1784 2.89016 54.8852 1.4218C52.7182 1.12354 46.9847 0.366408 40.4838 2.11008C36.827 3.09663 34.502 4.74853 27.5044 9.06183C22.3353 12.2509 17.2338 15.5318 12.8095 19.4551V19.478Z" fill="white" stroke="black" stroke-miterlimit="10"/>
<path d="M19.7327 32.4595C14.3737 33.8242 9.9417 38.2825 9.12767 43.2411C8.53975 46.8578 10.0774 49.7238 11.7959 52.9538C15.3686 59.6866 22.2199 64.7818 28.8453 69.604C32.9606 72.6065 37.3247 75.7 42.5255 76.6326C50.6884 78.0883 57.1328 74.7901 58.3312 74.176C60.3437 73.1751 61.7909 72.4017 62.6276 70.855C64.2104 67.9207 60.2986 61.2334 59.2811 59.6866C53.6054 51.0203 50.7562 46.6758 44.8997 42.2176C38.5457 37.3954 28.9358 30.0939 19.7327 32.4595Z" fill="#FFCFCD" stroke="black" stroke-miterlimit="10"/>
<path d="M76 24C83.616 30.2962 84.6793 40.2401 80.8218 48" stroke="black" stroke-miterlimit="10"/>
</svg>
