<svg width="238" height="244" viewBox="0 0 238 244" fill="none" xmlns="http://www.w3.org/2000/svg">
<path d="M231.082 31.6134L231.593 31.1622C230.295 29.4894 228.388 27.1751 225.879 24.6075L225.878 24.6071C211.984 10.4092 196.019 5.40492 190.394 3.7219C181.189 0.959738 173.362 1.0975 155.47 1.4124C152.608 1.46278 149.488 1.51769 146.063 1.56598L146.074 2.31591L146.063 1.56598C127.695 1.82527 109.197 2.38542 91.014 5.71816L91.0139 5.71818C57.9422 11.7862 24.2429 29.245 10.4493 60.0609L10.4492 60.0611C4.3292 73.7425 2.62096 88.9052 1.79745 103.733C-0.0606256 137.047 2.34508 171.52 16.2944 201.99C24.4296 219.763 38.0743 237.073 57.4378 241.509C66.2639 243.531 75.435 242.668 84.2873 241.817L84.2884 241.817C106.39 239.692 128.493 237.568 150.595 235.435C167.201 233.837 176.589 232.545 182.555 231.384C188.032 230.319 190.629 229.365 193.24 228.404C193.485 228.314 193.73 228.224 193.977 228.134C211.322 221.809 223.785 212.278 231.503 205.304L231.75 205.08V204.747C231.75 147.039 231.75 89.3219 231.742 31.6133L231.082 31.6134Z" fill="white" stroke="black" stroke-width="1.5" stroke-miterlimit="10"/>
<path d="M56.7624 57.5692V57.5904C53.3412 57.1031 43.5048 56.2939 35.2776 62.0666L35.2775 62.0667C30.6291 65.3296 26.403 72.0219 22.1103 92.2053C17.1199 115.662 23.1145 139.887 29.0028 162.888L29.0029 162.889C32.6532 177.143 36.7304 192.32 47.1195 203.047L47.1196 203.047C63.2577 219.704 84.7563 221.162 88.9729 221.448L89.0771 221.456C95.6842 221.914 100.764 222.223 106 219.311C112.389 215.758 115.852 209.19 117.803 202.472C119.747 195.777 120.226 188.799 120.542 184.208L120.546 184.143L120.546 184.143C121.353 172.233 120.236 156.374 108.393 127.187L108.382 127.159C101.587 110.412 94.9808 94.1314 87.0796 81.5268C79.1767 68.9197 69.8812 59.8311 57.6398 57.7205L56.7624 57.5692Z" fill="#FFF7A4" stroke="black" stroke-width="1.5" stroke-miterlimit="10"/>
<path d="M223.58 116.212C231.925 140.824 220.742 170.211 201.523 189.082" stroke="black" stroke-width="1.5" stroke-miterlimit="10" stroke-linecap="round"/>
</svg>
