<svg width="56" height="35" viewBox="0 0 56 35" fill="none" xmlns="http://www.w3.org/2000/svg">
<path d="M39.5558 34.2528L39.5933 34.3042L38.6894 34.3662C35.0206 34.6178 31.2365 34.4707 27.5094 34.2836C26.8951 34.2534 26.3287 34.2265 25.8034 34.2015C22.0267 34.0222 20.377 33.9439 18.3808 33.4375L18.3786 33.4369C14.3672 32.3998 11.6792 30.7065 10.6838 30.0452C5.86781 26.9118 4.15208 23.3146 2.89728 20.5438M39.5558 34.2528L1.61328 8.39053C-0.74269 12.5837 1.11553 16.6473 2.83143 20.3998C2.85341 20.4478 2.87536 20.4958 2.89728 20.5438M39.5558 34.2528C42.5902 33.9768 45.5813 33.364 48.1264 32.3606C50.9131 31.262 53.226 29.6703 54.427 27.4773L54.4272 27.477C55.4969 25.5204 55.5797 23.3032 55.4575 21.2252C55.2421 16.5281 54.1334 11.5554 50.6888 7.04307L50.6887 7.04285C48.6708 4.40252 45.5165 1.75634 41.4276 0.871837L41.4276 0.871812L41.4227 0.870794C39.5455 0.484545 37.6775 0.486448 35.8923 0.507197C33.6659 0.527973 31.4319 0.543565 29.1972 0.559162L29.1969 0.559165C26.963 0.574756 24.7285 0.590351 22.5015 0.61113C19.5646 0.611152 16.5579 0.65199 13.7557 1.11663C8.24002 2.02549 3.68228 4.70123 1.6135 8.39014L39.5558 34.2528ZM2.89728 20.5438C2.89716 20.5435 2.89704 20.5433 2.89692 20.543L3.35239 20.3367L2.89765 20.5446C2.89752 20.5443 2.8974 20.5441 2.89728 20.5438Z" fill="white" stroke="black" stroke-miterlimit="10"/>
</svg>
