<svg width="13" height="15" viewBox="0 0 13 15" fill="none" xmlns="http://www.w3.org/2000/svg">
<path d="M1.79283 2.68644C1.23684 3.26007 0.905591 3.94847 1.02389 4.74008C1.10669 5.31371 1.4143 5.86434 2.91663 7.264C3.43713 7.74585 3.41341 7.65412 3.59085 7.88357C4.7383 9.31765 5.24699 10.7402 5.24699 10.7402C6.39445 13.7575 10.2863 15.1342 11.4811 12.8856C11.8478 12.4611 12.0489 11.8187 11.9898 10.9467C11.8715 9.60444 10.8541 9.35206 9.754 7.88357C8.12154 5.87586 8.85494 4.34997 7.58919 2.90442C7.00955 2.25048 6.07509 1.36713 4.0286 1.01148C3.99311 1.00001 3.95759 1.01147 3.92211 1C3.15319 1.36712 2.30149 1.96368 1.79283 2.69792V2.68644Z" fill="#009245" stroke="black" stroke-width="0.75" stroke-linecap="round" stroke-linejoin="round"/>
</svg>
