<svg width="23" height="22" viewBox="0 0 23 22" fill="none" xmlns="http://www.w3.org/2000/svg">
<path d="M21.0537 8.18431C20.5456 6.96888 19.5778 4.64421 17.0855 2.94496C14.206 0.986103 9.52387 0.0303101 5.64024 2.39038C1.1517 5.11626 0.268537 10.6742 1.51468 14.3323C2.49466 17.2116 4.96272 19.4891 5.9306 19.8195C6.19676 19.9139 6.87431 20.0319 7.62442 20.5629C7.98737 20.8107 8.21728 21.0585 8.33826 20.9877C8.49554 20.8933 8.37455 20.3859 8.10839 19.6425C5.95485 19.1705 5.89431 15.5595 6.62022 15.2763C6.65652 15.2409 6.68073 15.2173 6.71703 15.2173C6.74123 15.1937 6.75331 15.1819 6.77751 15.1819C6.92269 15.0875 7.21305 15.0404 7.38243 15.0876C8.27772 15.182 8.74958 15.9253 8.90686 16.8104C8.91895 17.0818 9.69326 18.0376 9.88683 16.9166C9.88683 16.8812 10.0199 16.1378 10.0441 16.1378C10.0925 15.9726 10.1288 15.7955 10.1893 15.6421C10.1893 15.6185 10.1893 15.6067 10.2135 15.5713C10.6491 14.4739 11.5201 13.5771 12.0524 13.3883C12.8025 13.1405 13.1413 13.5063 14.1213 13.4591C15.7062 13.3411 16.8435 12.7629 17.2185 11.2288C18.9365 11.5828 20.3036 12.81 20.5335 14.5919L20.5094 14.6155C20.5336 15.2881 20.4973 15.8782 20.4973 15.8782C20.5093 15.9726 20.5819 16.2558 20.7755 16.3266C20.957 16.3856 21.1748 16.2322 21.2474 16.1732C21.7676 15.772 22.7354 12.2437 21.0537 8.21975V8.18431Z" fill="black" stroke="black" stroke-width="0.75" stroke-linecap="round" stroke-linejoin="round"/>
</svg>
