<svg width="10" height="15" viewBox="0 0 10 15" fill="none" xmlns="http://www.w3.org/2000/svg">
<path d="M9 11.196C8.41278 11.6976 8.1304 11.8913 7.24956 12.3814C5.20557 13.5099 3.2745 13.8746 1.95324 14C1.79514 11.6405 1.59187 8.98471 1.3886 6.39727C1.26438 4.7787 1.14016 3.19434 1.03853 1.72395C1.03853 1.72395 0.903046 1.22237 1.14019 1.04C1.36605 0.869022 1.82906 1.23382 3.54556 2.37366C4.05374 2.71562 4.1102 2.74981 4.17796 2.7954C4.17796 2.7954 4.20051 2.80675 4.2118 2.81815C6.04123 4.09477 6.97858 7.7651 8.9887 11.1846L9 11.196Z" fill="#006837" stroke="black" stroke-width="0.75" stroke-linecap="round" stroke-linejoin="round"/>
</svg>
