<svg width="33" height="31" viewBox="0 0 33 31" fill="none" xmlns="http://www.w3.org/2000/svg">
<path d="M8.66207 11.5163C9.16551 14.685 11.5722 17.2153 13.7456 19.6391C16.2014 22.394 18.4975 25.2907 20.6095 28.3057C23.1635 27.4426 25.8527 26.9697 28.5663 26.8987C29.2908 26.8751 30.0398 26.8869 30.6783 26.544C31.7588 25.9765 32.0904 24.605 31.9798 23.4226C31.7097 20.5258 29.5241 18.173 28.1734 15.5718C26.9823 13.2662 27.5472 13.4317 25.5703 8.60771C23.5565 3.7364 22.8443 3.1334 22.4636 2.84964C21.5182 2.14022 20.8551 2.10473 14.5928 1.50173C9.28832 0.993318 8.76027 0.922382 7.55693 1.06427C4.63454 1.40715 2.38752 2.45941 1 3.23976C1.6999 6.8223 2.37525 9.80184 2.92781 12.0365C4.05748 16.6477 4.97837 19.6982 6.04664 22.4176C7.63063 26.4376 7.63062 24.8888 8.72345 27.7619C8.93219 28.3058 9.20237 29.0152 9.91455 29.5236C10.8723 30.2094 12.1984 30.0202 13.3649 29.7837C15.0472 29.429 16.7048 29.0152 18.3502 28.5304C19.1852 28.2821 19.6272 27.5845 19.9587 27.2298" fill="#603813"/>
<path d="M8.66207 11.5163C9.16551 14.685 11.5722 17.2153 13.7456 19.6391C16.2014 22.394 18.4975 25.2907 20.6095 28.3057C23.1635 27.4426 25.8527 26.9697 28.5663 26.8987C29.2908 26.8751 30.0398 26.8869 30.6783 26.544C31.7588 25.9765 32.0904 24.605 31.9798 23.4226C31.7097 20.5258 29.5241 18.173 28.1734 15.5718C26.9823 13.2662 27.5472 13.4317 25.5703 8.60771C23.5565 3.7364 22.8443 3.1334 22.4636 2.84964C21.5182 2.14022 20.8551 2.10473 14.5928 1.50173C9.28832 0.993318 8.76027 0.922382 7.55693 1.06427C4.63454 1.40715 2.38752 2.45941 1 3.23976C1.6999 6.8223 2.37525 9.80184 2.92781 12.0365C4.05748 16.6477 4.97837 19.6982 6.04664 22.4176C7.63063 26.4376 7.63062 24.8888 8.72345 27.7619C8.93219 28.3058 9.20237 29.0152 9.91455 29.5236C10.8723 30.2094 12.1984 30.0202 13.3649 29.7837C15.0472 29.429 16.7048 29.0152 18.3502 28.5304C19.1852 28.2821 19.6272 27.5845 19.9587 27.2298" stroke="black" stroke-width="0.75" stroke-linecap="round" stroke-linejoin="round"/>
</svg>
