<svg width="32" height="34" viewBox="0 0 32 34" fill="none" xmlns="http://www.w3.org/2000/svg">
<path d="M30.4807 8.7818C28.8946 13.3288 28.0949 15.5954 27.002 17.708C25.7491 20.1284 25.0693 21.2757 24.0697 23.0805C22.8168 25.347 21.0574 28.7048 19.0981 33C17.5387 32.8461 16.2592 32.5803 15.3396 32.3565C12.1674 31.559 9.04851 30.09 9.04851 30.09C9.04851 30.09 2.74417 29.1245 1.31802 25.7247C0.50499 23.766 1.45126 21.3736 1.93108 20.1424C2.5042 18.6733 2.86412 18.1417 4.14365 16.2109C4.97001 14.9518 5.75641 13.5946 5.91635 12.0836C4.37025 11.2722 2.41095 10.8664 1.55793 9.28545C1.42464 9.03361 1.31802 8.75384 1.31802 8.46003C1.31802 8.16623 1.41134 7.91437 1.50464 7.64854C2.21105 5.61986 2.93075 3.59122 3.63716 1.56254C6.00962 1.85635 8.40874 1.9962 10.7945 1.94024C11.8475 1.92625 12.9004 1.64651 13.9001 1.32472C15.4595 0.821049 17.1256 0.988871 18.7383 1.2547C19.698 1.42259 20.7642 1.67447 21.3107 2.52792C21.5373 2.87769 21.6439 3.28343 21.8172 3.67518C22.4836 5.1722 24.2562 5.70382 24.936 5.91368C27.9615 6.85107 30.0542 5.14422 30.8139 6.12358C31.2004 6.62725 30.9338 7.45266 30.4807 8.7818Z" fill="#C73F69" stroke="black" stroke-width="0.75" stroke-linecap="round" stroke-linejoin="round"/>
</svg>
