<svg width="25" height="40" viewBox="0 0 25 40" fill="none" xmlns="http://www.w3.org/2000/svg">
<path d="M20.8102 39.5021C17.9102 39.5508 15.741 39.1122 14.2794 38.6979C13.3979 38.442 12.2959 38.0642 10.7531 38.1495C9.48872 38.2226 8.81593 38.5516 7.56314 38.9415C4.83717 39.7701 3.08557 40.3185 2.02998 39.7945C1.13679 39.3558 -0.359608 37.6134 1.43837 23.2225C2.04157 18.4093 2.72599 14.4004 3.28279 11.5003C2.1924 9.1729 1.09039 6.83334 0 4.50595C2.14598 0.691951 3.73514 -0.100096 4.83713 0.0095715C7.3543 0.253277 7.42392 5.13958 11.7391 7.08922C13.6763 7.96656 15.0335 7.60101 16.1818 9.07543C17.4926 10.7692 17.2258 13.2063 17.423 13.1941C17.6898 13.1941 16.8778 8.83173 18.8266 6.8699C20.091 5.59044 22.1906 5.66354 23.9885 6.01691C24.3017 6.99173 24.6846 8.47829 24.8818 10.3061C25.4965 16.0941 23.571 20.2372 22.3994 24.1486C21.367 27.6093 20.381 32.6905 20.8218 39.5143L20.8102 39.5021Z" fill="#0071BC"/>
</svg>
