<svg width="29" height="27" viewBox="0 0 29 27" fill="none" xmlns="http://www.w3.org/2000/svg">
<path d="M4.54435 1.01402C5.90509 2.32433 7.30584 3.63468 8.94674 4.49413C9.60043 4.83227 10.2808 5.09996 10.9745 5.36766L14.2696 6.64975C15.2435 7.03017 16.2307 7.41058 17.2713 7.53739C17.8449 7.60784 18.4186 7.59377 18.9789 7.65013C20.0462 7.76284 21.3001 8.01645 22.3407 8.35459C23.3679 10.4398 24.3952 11.9755 25.1289 13.0041C26.8499 15.3852 28.344 16.7236 27.9305 17.9353C27.797 18.3157 27.6237 18.2735 26.4764 19.4148C25.0356 20.8519 24.9288 21.3027 24.542 21.345C24.0083 21.4014 23.0077 20.7109 21.3268 15.4556C22.274 17.7381 22.7543 19.9502 23.7148 22.2326C23.8349 22.5144 23.955 22.8384 23.8616 23.1202C23.7815 23.3879 23.5414 23.557 23.3146 23.712C21.9406 24.6278 20.4597 25.3463 18.9122 25.8535C18.6453 25.9381 18.3786 26.0227 18.1118 25.9945C17.7782 25.9663 17.4848 25.769 17.2046 25.5858C14.95 24.0219 12.7222 22.4158 10.5476 20.711C7.83948 18.5976 7.9195 19.457 5.26471 17.3154C1.82283 14.5398 1.30253 12.8068 1.16912 12.2433C0.822267 10.8484 1.06239 9.70717 1.40925 8.08689C1.76944 6.45253 2.55656 3.84605 4.51764 1L4.54435 1.01402Z" fill="#333333" fill-opacity="0.72" stroke="black" stroke-width="0.75" stroke-linecap="round" stroke-linejoin="round"/>
</svg>
