<svg width="28" height="42" viewBox="0 0 28 42" fill="none" xmlns="http://www.w3.org/2000/svg">
<path d="M3.79422 14.6209C3.72421 16.1448 3.29248 17.6333 2.93074 19.1217C1.21543 26.2688 1.16876 33.8293 2.79072 41C9.18523 38.1057 16.7582 38.0113 23.2227 40.752C22.5343 34.1247 22.581 27.2847 24.6113 20.9528C25.9066 16.9126 26.1049 12.5771 26.8868 8.40703C26.9801 7.89905 27.1901 6.77678 26.595 6.11523C25.8716 5.32374 24.1679 5.40641 22.1726 5.50092C21.9625 5.50092 21.7409 5.52457 21.3908 5.52457C20.1422 5.50094 19.8271 5.25282 19.5121 5.40639C18.9053 5.71354 19.127 7.17842 19.1854 8.38338C19.3604 11.9038 18.0768 14.6917 18.0885 14.5263C18.2752 12.9788 18.3569 11.1595 17.19 10.1436C16.6999 9.71827 16.0581 9.50566 15.4397 9.2812C12.009 7.99355 9.04514 5.47734 7.17813 2.29955C6.82807 1.70888 6.38471 1.01185 5.70792 1.00004C3.35082 0.988223 0.585259 3.82342 1.05201 6.09158C1.6938 9.17487 4.00425 11.1713 3.78254 14.6444L3.79422 14.6209Z" fill="#0071BC" stroke="black" stroke-width="0.75" stroke-linecap="round" stroke-linejoin="round"/>
</svg>
