<svg width="15" height="19" viewBox="0 0 15 19" fill="none" xmlns="http://www.w3.org/2000/svg">
<path d="M12.2921 1C12.8526 2.94815 13.4131 4.88475 13.9736 6.8329C14.0203 7.55186 14.0787 8.79266 13.4364 10.0334C12.9226 11.0191 12.1753 11.854 11.3696 12.6078C9.53622 14.3356 7.38754 15.7387 5.06373 16.7128C4.16457 17.0838 3.23039 17.4086 2.45968 18C1.84078 16.9447 1.35032 15.8199 1 14.6487C3.00852 12.9441 4.45651 12.1671 5.43742 11.7844C5.75271 11.6684 6.61682 11.3438 7.38753 10.5437C7.38753 10.5437 7.98307 9.91745 8.32171 9.12891C8.9523 7.64461 8.42685 5.44138 6.8971 3.51642" fill="#603813"/>
<path d="M12.2921 1C12.8526 2.94815 13.4131 4.88475 13.9736 6.8329C14.0203 7.55186 14.0787 8.79266 13.4364 10.0334C12.9226 11.0191 12.1753 11.854 11.3696 12.6078C9.53622 14.3356 7.38754 15.7387 5.06373 16.7128C4.16457 17.0838 3.23039 17.4086 2.45968 18C1.84078 16.9447 1.35032 15.8199 1 14.6487C3.00852 12.9441 4.45651 12.1671 5.43742 11.7844C5.75271 11.6684 6.61682 11.3438 7.38753 10.5437C7.38753 10.5437 7.98307 9.91745 8.32171 9.12891C8.9523 7.64461 8.42685 5.44138 6.8971 3.51642" stroke="black" stroke-width="0.75" stroke-linecap="round" stroke-linejoin="round"/>
</svg>
