<svg width="22" height="40" viewBox="0 0 22 40" fill="none" xmlns="http://www.w3.org/2000/svg">
<path d="M15.0577 24.7727C14.5086 23.0444 14.2101 21.2561 13.6968 19.5159C12.6104 15.8193 10.5212 12.1588 11.1898 8.36625C11.4046 7.15407 11.8941 6.01388 12.1209 4.8137C12.2283 4.21361 12.2642 3.56553 11.9776 3.02545C11.6911 2.48537 10.9749 2.14935 10.4496 2.4614C10.0795 2.67743 9.91237 3.13344 9.55422 3.37347C9.00506 3.75753 8.21709 3.50554 7.71569 3.04948C7.21428 2.59341 6.88002 1.99331 6.37861 1.53724C5.88914 1.08117 5.1132 0.805135 4.5521 1.16519C4.61179 1.87329 4.5282 2.60541 4.30137 3.27751C3.47763 2.94146 2.84495 2.18534 2.63006 1.32122C2.0809 2.31736 1.94955 3.5535 2.29576 4.64566C1.93761 4.30961 1.50785 4.05758 1.04226 3.90155C0.910937 4.8617 1.08997 5.85789 1.51974 6.72202C1.05415 6.97405 0.982522 7.64613 1.22129 8.1262C1.46005 8.60627 1.88986 8.93034 2.29576 9.26639C5.97273 12.3148 7.84703 17.0195 9.16024 21.6402C9.98398 24.5086 10.9987 27.221 13.8042 35.2022C13.8042 35.2022 15.201 39.1628 16.0247 38.9948C16.5619 38.8868 16.1799 37.0865 17.2902 36.2343C18.5676 35.2622 20.4896 36.5224 20.9313 35.8743C21.3372 35.2862 19.8807 33.9541 18.2333 31.4217C16.3948 28.6013 15.4636 26.1289 15.0338 24.7847L15.0577 24.7727Z" fill="#C7B299" stroke="black" stroke-width="0.75" stroke-linecap="round" stroke-linejoin="round"/>
</svg>
