<svg width="6" height="11" viewBox="0 0 6 11" fill="none" xmlns="http://www.w3.org/2000/svg">
<path d="M2.4248 10C2.91001 9.54213 4.22521 8.16847 4.77426 5.8219C5.29777 3.53257 4.77422 1.67249 4.56992 1C4.34008 1.42925 4.09747 1.72976 3.91871 1.93008C3.6378 2.23055 3.51013 2.28781 3.06323 2.75998C3.01216 2.81722 2.80785 3.01754 2.57802 3.30371C2.39926 3.53264 2.22052 3.74723 2.04176 3.97616C2.00345 4.01908 1.77362 4.3339 1.64593 4.54853C1.4544 4.83469 0.803176 5.86483 1.05855 6.72333C1.1607 7.06673 1.45437 7.53893 1.45437 7.55324C1.97789 8.58344 2.0928 8.84103 2.0928 8.84103C2.20772 9.11289 2.33543 9.51352 2.43758 10H2.4248Z" fill="#998675" stroke="black" stroke-width="0.75" stroke-linecap="round" stroke-linejoin="round"/>
</svg>
