<svg width="14" height="44" viewBox="0 0 14 44" fill="none" xmlns="http://www.w3.org/2000/svg">
<path d="M2.44581 28.0561C2.79206 26.1654 3.28347 24.2989 3.6744 22.4203C4.29987 19.4025 4.6685 16.324 4.76902 13.2335C4.80253 12.2154 4.81366 11.1973 4.59028 10.2156C4.15468 8.32491 2.89261 6.66443 2.89261 4.71313C3.79731 5.2464 4.95885 4.73737 5.69601 3.9617C6.43318 3.18602 6.91349 2.15586 7.61714 1.34383C7.77351 1.16203 7.98569 0.968073 8.20907 1.00443C8.53298 1.05291 8.66704 1.48923 8.65587 1.84071C8.6447 2.19219 8.55533 2.58001 8.7117 2.88301C8.94625 3.3678 9.64991 3.36785 10.0408 3.00425C10.4318 2.65277 10.5881 2.08313 10.7333 1.56198C11.0796 2.39825 11.2695 3.31932 11.2583 4.24043C11.3477 3.5496 11.7609 2.90731 12.3194 2.56795C12.4869 3.65874 12.2635 4.81007 11.7274 5.75542C12.297 5.30698 13.1012 6.17966 12.9895 6.93109C12.8778 7.69465 12.2859 8.24002 11.8056 8.79753C10.0967 10.7488 9.35954 13.4516 8.87926 16.0816C8.39899 18.7601 8.16445 20.8205 8.11977 21.9356C7.94106 26.6623 7.5948 32.8799 7.1257 40.8063C7.28207 41.5335 7.42723 42.2728 7.5836 43C7.28204 42.6849 6.80179 42.2728 6.14281 42.1273C5.26044 41.9213 4.80249 42.3455 3.89779 42.3455C2.97075 42.3455 1.90968 41.8849 1.38473 41.2183C0.558213 40.1518 1.23952 38.7459 1.7868 35.3645C2.35643 31.8739 1.75335 31.8739 2.46818 28.0682L2.44581 28.0561Z" fill="#C7B299" stroke="black" stroke-width="0.75" stroke-linecap="round" stroke-linejoin="round"/>
</svg>
