<svg width="8" height="10" viewBox="0 0 8 10" fill="none" xmlns="http://www.w3.org/2000/svg">
<path d="M7 4.83666C6.94737 4.97559 6.84209 5.15722 6.65263 5.2534C6.33686 5.41371 6.05268 5.20001 5.88427 5.29619C5.70533 5.40306 5.66321 5.89464 6.20003 7.47632C6.20003 7.49769 6.02108 7.77555 5.72635 7.74349C5.49479 7.71143 5.22111 7.30536 5.12638 7.11299C5.12638 7.08093 5.22111 6.64274 4.92638 6.35419C4.78955 6.21526 4.62115 6.17252 4.54747 6.16184C4.49484 6.77099 4.6317 7.1771 4.76854 7.43359C4.94747 7.77557 5.18954 7.98933 5.13691 8.32063C5.10534 8.49162 5.01064 8.70531 4.84222 8.73737C4.70539 8.76943 4.56855 8.59846 4.11594 7.95724C3.92648 7.67938 3.75803 7.4443 3.62119 7.25193C3.58962 7.4443 3.55805 7.73279 3.63173 8.06409C3.74751 8.56638 4.01069 8.81218 3.92648 8.94043C3.83175 9.06867 3.40014 8.98318 3.08437 8.74807C3.08437 8.74807 2.81074 8.53432 2.33708 7.4015C2.33708 7.4015 2.68441 8.33127 2.45285 8.54501C2.34759 8.6412 2.10551 8.56637 1.94763 8.4595C1.51607 8.19233 1.53713 7.63663 1.29503 6.41831C1.07399 5.26412 0.884514 5.63819 1.0845 2.03667C1.0845 1.95118 1.09503 1.89774 1.0845 1.89774C1.11608 1.89774 1.14762 1.90843 1.1792 1.90843C2.22125 2.03668 3.80018 1.47025 4.58961 1.02139C4.60014 1.02139 4.61063 1.01069 4.62116 1H4.63169C4.64222 1.01069 4.65271 1.02141 4.66324 1.03209C4.66324 1.03209 4.66676 1.03567 4.67377 1.04279C4.67377 1.04279 4.67377 1.04273 4.67377 1.05342C5.6211 2.19693 6.40002 3.46871 6.98946 4.82596L7 4.83666Z" fill="#0071BC" stroke="black" stroke-width="0.75" stroke-linecap="round" stroke-linejoin="round"/>
</svg>
