<svg width="4" height="4" viewBox="0 0 4 4" fill="none" xmlns="http://www.w3.org/2000/svg">
<path d="M2.616 2.54498C2.616 2.12171 2.616 1.70901 2.616 1.28573C2.616 1.22224 2.616 1.13761 2.49061 1.11645C2.38611 1.09529 2.26082 1.13761 2.19812 1.17994C1.69654 1.46565 1.44565 1.84657 1.17396 2.20636C1.09037 2.30159 1.02776 2.40745 1.00686 2.51327C0.985963 2.61909 1.00688 2.73546 1.15317 2.80953C1.32036 2.91535 1.59196 2.94711 1.84275 2.9577C2.09353 2.96828 2.36521 2.95767 2.616 3C2.99218 2.3545 3.09671 1.66666 2.90861 1C2.63693 1.04233 2.38621 1.1164 2.19812 1.20106" stroke="black" stroke-width="0.75" stroke-linecap="round" stroke-linejoin="round"/>
</svg>
