<svg width="10" height="9" viewBox="0 0 10 9" fill="none" xmlns="http://www.w3.org/2000/svg">
<path d="M8.15355 2.18303C8.37568 2.64116 8.50895 3.1612 8.63112 3.66885C8.69776 3.95363 9.07539 4.85748 8.98654 5.1175C8.90879 5.32799 8.25353 5.55091 8.04251 5.63758C7.19841 5.94713 7.02069 6.39285 6.28766 6.77668C6.20991 6.81383 6.08774 6.87573 5.94336 6.99954C5.73233 7.17289 5.6546 7.33384 5.54354 7.45766C5.23255 7.81673 4.65499 7.92817 4.54392 7.7672C4.39953 7.55671 5.01041 6.80141 5.18812 6.59092C5.16591 6.51663 5.08816 6.34334 4.97709 6.33096C4.91045 6.33096 4.8549 6.39286 4.82158 6.40524C4.62167 6.5043 4.29958 6.67764 4.06635 7.02433C3.75536 7.45769 3.86646 7.79199 3.61101 7.94057C3.4333 8.03962 3.16669 8.01486 3.06673 7.86628C2.81128 7.47006 3.82202 6.36804 3.66653 6.1947C3.58878 6.09565 3.18895 6.28139 2.91129 6.60332C2.47813 7.09859 2.60027 7.6434 2.24486 7.7796C2.03383 7.85389 1.7562 7.77958 1.65624 7.60624C1.47854 7.29669 1.8006 6.71474 2.04495 6.28138C2.16712 6.07089 2.27816 5.90999 2.36701 5.79855C2.18931 5.8976 1.94501 6.03379 1.65624 6.24428C1.34526 6.47953 1.21199 6.61574 1.11203 6.56621C0.989862 6.49192 0.967584 6.19472 1.04533 5.67469C1.38963 4.99369 1.6784 4.47364 1.87832 4.10218C2.0116 3.86693 2.05605 3.79271 2.11158 3.70604C2.57806 3.03742 3.12228 2.75263 3.08896 2.69072C3.07786 2.65358 2.87791 2.75263 2.43365 2.8393C2.23373 2.87644 2.14493 2.87644 2.06718 2.8393C1.91169 2.76501 1.78947 2.55453 1.81168 2.38118C1.85611 2.10878 2.30037 2.03448 2.92234 1.82399C3.67758 1.55159 3.92193 1.34109 4.31066 1.19251C4.98816 0.932492 5.73232 0.969628 6.42093 1.10583C6.99847 1.22964 7.59823 1.31631 7.95364 1.87349C8.02028 1.98492 8.0869 2.09638 8.14243 2.20782L8.15355 2.18303Z" fill="#0071BC" stroke="black" stroke-width="0.75" stroke-linecap="round" stroke-linejoin="round"/>
</svg>
