<svg width="28" height="29" viewBox="0 0 28 29" fill="none" xmlns="http://www.w3.org/2000/svg">
<path d="M27 22.7508C26.8399 24.2639 26.413 25.7365 25.7327 27.101C25.5592 27.4388 25.3591 27.8035 25.0123 27.9386C24.6921 28.0602 24.3453 27.9792 24.0251 27.8846C22.611 27.4658 21.2504 26.8984 19.9697 26.1689C18.9158 25.5609 17.9154 24.8584 16.9149 24.1559C15.6475 23.2642 14.3535 22.3455 13.4731 21.0621C12.9528 20.292 12.5926 19.4275 12.1924 18.5898C11.7522 17.6442 11.2586 16.712 10.765 15.7933C10.4048 15.1313 10.0446 14.4558 9.53772 13.8884C8.80401 13.0778 7.81683 12.5644 7.10981 11.7403C5.88251 10.3218 3.70808 10.1462 1.86714 9.84893C1.61368 8.79517 2.62752 7.63335 3.69473 7.76845C2.84097 7.24156 1.93381 6.79576 1 6.44451C1.61365 6.09325 2.29406 5.86356 2.98775 5.74197L1.18678 4.01267C2.16061 3.63439 3.17449 3.41828 4.21502 3.37775L3.46797 2.08077C4.34842 1.66197 5.37561 2.08076 6.29608 2.40499C7.21655 2.72923 8.35047 2.95893 9.0575 2.26993C9.49772 1.85112 9.71115 1.1351 10.2981 1C11.432 3.08052 10.2047 5.72845 10.8584 8.01161C11.1519 9.03836 11.8056 9.90301 12.4726 10.7271C13.94 12.5644 15.5141 14.3343 17.1149 16.0635C19.8496 19.0222 23.0246 22.278 27 22.7779V22.7508Z" fill="#998675" stroke="black" stroke-width="0.75" stroke-linecap="round" stroke-linejoin="round"/>
</svg>
