<svg width="233" height="244" viewBox="0 0 233 244" fill="none" xmlns="http://www.w3.org/2000/svg">
<path d="M231.082 31.6134L231.593 31.1622C230.295 29.4894 228.388 27.1751 225.879 24.6075L225.878 24.6071C211.984 10.4092 196.019 5.40492 190.394 3.7219C181.189 0.959738 173.362 1.0975 155.47 1.4124C152.608 1.46278 149.488 1.51769 146.063 1.56598L146.074 2.31591L146.063 1.56598C127.695 1.82527 109.197 2.38542 91.014 5.71816L91.0139 5.71818C57.9422 11.7862 24.2429 29.245 10.4493 60.0609L10.4492 60.0611C4.3292 73.7425 2.62096 88.9052 1.79745 103.733C-0.0606256 137.047 2.34508 171.52 16.2944 201.99C24.4296 219.763 38.0743 237.073 57.4378 241.509C66.2639 243.531 75.435 242.668 84.2873 241.817L84.2884 241.817C106.39 239.692 128.493 237.568 150.595 235.435C167.201 233.837 176.589 232.545 182.555 231.384C188.032 230.319 190.629 229.365 193.24 228.404C193.485 228.314 193.73 228.224 193.977 228.134C211.322 221.809 223.785 212.278 231.503 205.304L231.75 205.08V204.747C231.75 147.039 231.75 89.3219 231.742 31.6133L231.082 31.6134Z" fill="white" stroke="black" stroke-width="1.5" stroke-miterlimit="10"/>
</svg>
