<svg width="24" height="32" viewBox="0 0 24 32" fill="none" xmlns="http://www.w3.org/2000/svg">
<path d="M23 25.5434C22.1687 27.6367 20.7169 29.0949 18.6327 30.0122C17.0755 30.6355 16.209 30.8118 14.6635 31C12.7433 27.2485 11.0573 24.9318 9.82786 23.4618C8.35258 21.6978 6.94753 20.0279 6.94753 20.0279C6.2333 19.1812 5.57766 18.3932 4.71122 17.323C2.97835 15.1474 2.62711 14.5359 2.45148 14.1713C1.80751 12.96 1.5148 11.8546 1.36259 11.1373C1.12842 9.77309 0.952804 8.06783 1.01135 6.09214C1.06989 4.09292 1.36255 2.36417 1.69039 1C1.69039 1 8.85603 3.54018 15.9514 3.35202C16.1856 4.25754 16.3964 5.50413 16.3495 6.97415C16.3027 8.42064 17.5907 13.6892 18.4805 15.7237C19.9675 19.1341 21.4779 22.4151 23 25.5551V25.5434Z" fill="#006837" stroke="black" stroke-width="0.75" stroke-linecap="round" stroke-linejoin="round"/>
</svg>
