<svg width="21" height="26" viewBox="0 0 21 26" fill="none" xmlns="http://www.w3.org/2000/svg">
<path d="M8.31994 4.02014C8.01584 5.72972 7.46295 7.39825 7.46295 9.13518C7.46295 9.69592 7.49059 10.3113 7.11739 10.7353C6.66124 10.5165 6.17748 10.2977 5.67987 10.243C5.16844 10.1883 4.61554 10.3387 4.29762 10.7353C4.1041 10.9678 4.02119 11.2824 3.97973 11.5696C3.62034 13.7441 4.96107 16.0966 7.03445 16.9035C5.74896 16.5069 4.79524 15.1118 3.44063 15.1939C2.66657 15.2486 1.98926 15.823 1.62988 16.5068C1.25667 17.1906 1.14609 17.9702 1.02168 18.7361C0.994038 18.9549 0.966403 19.2148 1.11845 19.3789C1.21521 19.4747 1.35338 19.5157 1.4916 19.543C2.94297 19.8986 4.422 20.1174 5.91483 20.1995C7.11739 20.2542 8.52734 20.309 9.24611 21.28C9.9787 22.2647 9.70219 23.8922 10.7389 24.5486C11.0983 24.7675 11.5268 24.8222 11.9553 24.8633C12.8123 24.9453 13.6831 24.9863 14.5539 25C15.3142 25 15.1759 24.8359 16.0329 24.7675C17.0005 24.6718 18.0649 24.7128 18.0649 24.7128C18.0649 24.8769 18.0234 24.918 17.982 24.9316C17.6917 25.041 16.2818 23.1947 16.0606 21.1569C15.9777 20.4457 15.9086 19.7619 16.1435 18.955C16.2265 18.6814 16.3094 18.4899 16.3094 18.148C16.3094 18.0796 16.3094 17.136 15.7289 16.6436C14.9272 15.9735 13.3237 16.5889 13.4343 16.6025C14.2775 16.6573 15.1068 16.6846 15.95 16.6846C16.2817 16.6846 16.6135 16.6847 16.9314 16.5889C17.429 16.4248 17.8023 16.0282 18.1478 15.6453C19.0463 14.6469 19.9309 13.5117 20 12.185C20 11.9936 20 11.7884 19.9032 11.6106C19.7097 11.2414 19.226 11.1593 18.8113 11.1183C17.9681 11.0499 17.1249 11.0773 16.2956 11.1867C16.8761 11.0089 17.429 10.7353 17.9266 10.366C18.1201 10.2156 18.2999 10.0515 18.4105 9.8327C18.5487 9.55917 18.5348 9.24457 18.5625 8.94369C18.6178 8.32824 18.8113 7.72643 19.1292 7.19304C19.2259 7.01525 19.3504 6.85118 19.3642 6.64603C19.378 6.39985 19.2259 6.16736 19.0462 5.97589C18.3828 5.29206 17.4429 4.97746 16.572 4.56716C15.1068 3.85598 13.849 2.81655 12.5635 1.83184C11.6788 1.14801 10.891 0.696691 9.85431 1.24375C8.72086 1.84553 8.52735 2.84396 8.30619 4.02014H8.31994Z" fill="#998675" stroke="black" stroke-width="0.75" stroke-linecap="round" stroke-linejoin="round"/>
</svg>
