<svg width="17" height="25" viewBox="0 0 17 25" fill="none" xmlns="http://www.w3.org/2000/svg">
<path d="M8.47017 21.3242C9.54746 20.3217 9.9727 19.7175 12.3683 16.6277C15.189 12.9886 15.1607 13.1121 15.3025 12.81C16.9042 9.17086 15.3024 5.32574 14.8913 4.32326C14.2676 2.81268 13.4739 1.70036 12.9069 1C12.3824 1.50811 11.5319 2.1947 10.3554 2.59294C9.19303 2.99119 8.7536 2.75771 8.22914 3.0873C6.82583 3.96618 8.34257 6.60287 7.73305 9.63777C7.02431 13.2082 4.16097 13.5241 2.21902 17.9186C1.2126 20.1844 1.02835 22.2443 1 23.5214C1.68039 23.796 2.7577 24.1119 4.03344 23.9608C5.83364 23.7411 7.01016 22.6837 8.47017 21.3242Z" fill="#998675" stroke="black" stroke-width="0.75" stroke-linecap="round" stroke-linejoin="round"/>
</svg>
