<svg width="21" height="20" viewBox="0 0 21 20" fill="none" xmlns="http://www.w3.org/2000/svg">
<path d="M19.7284 6.72255C17.7736 9.04625 13.9461 10.815 10.938 12.9075C10.1303 13.474 5.3547 17.4624 3.55214 19C3.38828 18.9191 0.801507 17.5318 1.0122 16.0289C1.07072 15.5665 1.64424 14.7919 1.93686 14.4567C2.39335 13.9249 2.88499 13.4971 3.43512 13.1503C4.38322 11.8902 5.23765 10.8728 5.89313 10.0983C7.39136 8.32947 8.44482 7.20808 10.6688 6.2601C11.1253 5.19652 10.9731 5.54335 11.3125 4.75722L12.6 1.71676C12.7054 1.46242 12.7756 1.30058 12.9044 1C13.4779 1.28902 18.4876 3.21968 19.8337 5.43934C19.9039 5.60118 19.9508 5.68207 19.9742 5.83236C20.0444 6.08669 19.9742 6.4104 19.7284 6.71098V6.72255Z" fill="#603813" stroke="black" stroke-width="0.75" stroke-linecap="round" stroke-linejoin="round"/>
</svg>
