<svg width="97" height="87" viewBox="0 0 97 87" fill="none" xmlns="http://www.w3.org/2000/svg">
<path d="M12.8095 19.478C4.75103 26.6362 -1.00504 36.7541 1.65855 46.872C2.83234 51.3688 5.5863 55.5215 8.52077 59.4448C15.112 68.2779 23.1705 76.6521 33.5991 82.0437C39.6938 85.1869 47.1654 87.2518 53.5083 85.141C56.3976 84.1774 58.7903 82.4108 61.1153 80.6901C66.9391 76.3768 72.7403 72.0864 78.5641 67.7731C82.4014 64.9282 86.2614 62.0833 89.2635 58.573C95.1776 51.69 97.3673 42.444 95.1551 33.7486C92.6496 23.8831 85.0425 18.0555 77.5032 12.2509C72.1083 8.09822 65.1784 2.89016 54.8852 1.4218C52.7182 1.12354 46.9847 0.366408 40.4838 2.11008C36.827 3.09663 34.502 4.74853 27.5044 9.06183C22.3353 12.2509 17.2338 15.5318 12.8095 19.4551V19.478Z" fill="white" stroke="black" stroke-miterlimit="10"/>
</svg>
