<svg width="22" height="26" viewBox="0 0 22 26" fill="none" xmlns="http://www.w3.org/2000/svg">
<path d="M20.6226 5.65286C21.2506 4.84614 21.0769 3.51511 20.235 2.93696C19.4065 2.34537 18.0701 2.66804 17.6292 3.59577C17.9632 2.0899 16.1592 0.583995 14.7427 1.21592C14.2349 1.44449 14.128 1.92853 13.4732 2.06299C12.5913 2.23777 12.0835 1.32351 11.0812 1.06805C10.3997 0.893256 9.3841 0.987384 7.88743 2.17057C8.40859 2.86973 8.43531 3.79744 7.9676 4.42937C7.44644 5.15542 6.53772 5.14193 6.44418 5.14193C7.1257 5.58563 7.74044 6.06966 7.6469 6.32513C7.43309 6.91672 3.81167 5.57222 3.14351 6.60751C2.87625 7.02431 3.03656 7.91165 4.60005 9.83433C5.13458 10.2646 5.30837 10.6142 5.25492 10.8966C5.14801 11.4613 4.0656 11.9184 1.00543 12.0798C2.50211 12.9671 3.99877 13.868 5.49544 14.7554C4.92083 14.594 4.31947 14.4326 3.73149 14.5402C3.25042 14.6343 3.25043 15.0109 2.5689 15.71C1.59339 16.7184 1.05889 16.7452 1.00543 17.2427C0.925255 17.8881 1.75376 18.4797 2.07447 18.7083C3.29052 19.5822 4.70704 19.5016 5.34847 19.4075C4.68031 20.0125 4.01215 20.631 3.34399 21.236C4.02551 21.3705 4.93417 21.4511 5.9765 21.3032C6.36403 21.2494 6.71145 21.1688 7.03216 21.0881C6.96535 21.1419 5.73596 22.2309 6.05668 23.2931C6.11013 23.4544 6.28385 23.952 7.31282 24.4495C9.1703 25.3369 11.1881 24.9603 12.3106 24.6376" fill="black"/>
<path d="M20.6226 5.65286C21.2506 4.84614 21.0769 3.51511 20.235 2.93696C19.4065 2.34537 18.0701 2.66804 17.6292 3.59577C17.9632 2.0899 16.1592 0.583995 14.7427 1.21592C14.2349 1.44449 14.128 1.92853 13.4732 2.06299C12.5913 2.23777 12.0835 1.32351 11.0812 1.06805C10.3997 0.893256 9.3841 0.987384 7.88743 2.17057C8.40859 2.86973 8.43531 3.79744 7.9676 4.42937C7.44644 5.15542 6.53772 5.14193 6.44418 5.14193C7.1257 5.58563 7.74044 6.06966 7.6469 6.32513C7.43309 6.91672 3.81167 5.57222 3.14351 6.60751C2.87625 7.02431 3.03656 7.91165 4.60005 9.83433C5.13458 10.2646 5.30837 10.6142 5.25492 10.8966C5.14801 11.4613 4.0656 11.9184 1.00543 12.0798C2.50211 12.9671 3.99877 13.868 5.49544 14.7554C4.92083 14.594 4.31947 14.4326 3.73149 14.5402C3.25042 14.6343 3.25043 15.0109 2.5689 15.71C1.59339 16.7184 1.05889 16.7452 1.00543 17.2427C0.925255 17.8881 1.75376 18.4797 2.07447 18.7083C3.29052 19.5822 4.70704 19.5016 5.34847 19.4075C4.68031 20.0125 4.01215 20.631 3.34399 21.236C4.02551 21.3705 4.93417 21.4511 5.9765 21.3032C6.36403 21.2494 6.71145 21.1688 7.03216 21.0881C6.96535 21.1419 5.73596 22.2309 6.05668 23.2931C6.11013 23.4544 6.28385 23.952 7.31282 24.4495C9.1703 25.3369 11.1881 24.9603 12.3106 24.6376" stroke="black" stroke-width="0.75" stroke-linecap="round" stroke-linejoin="round"/>
</svg>
