<svg width="9" height="15" viewBox="0 0 9 15" fill="none" xmlns="http://www.w3.org/2000/svg">
<path d="M4.7149 2.23966L2.89057 2.89354C2.39301 3.50231 3.02085 4.37037 3.08008 5.64428C3.08008 5.73446 3.08011 5.99372 3.2578 6.24173C3.35258 6.38829 3.5066 6.48975 3.64876 6.59121C4.06339 6.88432 4.50166 7.15487 4.92813 7.42544C4.15811 7.09851 3.4829 6.59121 2.9735 5.9599C2.72472 5.65551 2.42851 5.28349 2.03758 5.32859C1.69403 5.37368 1.48079 5.71188 1.36232 6.02754C0.556758 8.11313 1.12545 10.6158 2.76027 12.2054C2.93797 12.3745 3.2104 12.3858 3.61319 12.6338C4.78599 13.3553 4.91633 14.043 5.27172 13.9979C6.05359 13.8964 5.89953 10.5708 7.28557 10.1424C7.46327 10.086 7.84237 10.0296 7.96083 9.75906C8.10299 9.45467 7.81867 9.07141 7.73575 8.9474C6.94203 7.78623 6.63407 5.31734 6.75254 3.95325C6.90654 2.22841 7.81871 1.41669 7.47516 1.10103C7.04868 0.717729 5.57968 1.49562 4.70304 2.25095L4.7149 2.23966Z" fill="#C7B299" stroke="black" stroke-width="0.75" stroke-linecap="round" stroke-linejoin="round"/>
</svg>
