<svg width="19" height="25" viewBox="0 0 19 25" fill="none" xmlns="http://www.w3.org/2000/svg">
<path d="M7.79544 1.0251C8.05618 1.0251 8.31691 1.06123 8.55282 1.18164C8.75148 1.29002 8.91293 1.45859 9.06193 1.62717C12.6254 5.73326 15.4191 10.4655 17.2815 15.5228C17.5299 16.2092 17.7658 16.9076 17.8899 17.6301C18.0886 18.7981 17.9768 19.9902 17.8775 21.1582C17.8527 21.4351 17.8279 21.7362 17.6664 21.965C17.4678 22.254 17.1325 22.3864 16.8097 22.5309C16.0027 22.9042 15.2452 23.41 14.5871 24C14.2519 23.0487 13.867 22.1095 13.3952 21.2064C12.3398 19.1594 10.8622 17.3411 9.39712 15.547C8.50314 14.4512 7.60919 13.3434 6.70279 12.2476C4.79068 9.91162 2.84135 7.50334 1.69905 4.70975C1.52522 4.2883 0.854689 3.02395 1.02852 2.59046C1.21476 2.12085 2.51849 1.8198 2.97789 1.67531C4.51752 1.16957 6.1689 0.940799 7.79544 1.01305V1.0251Z" fill="#C7B299" stroke="black" stroke-width="0.75" stroke-linecap="round" stroke-linejoin="round"/>
</svg>
