<svg width="1760" height="973" viewBox="0 0 1760 973" fill="none" xmlns="http://www.w3.org/2000/svg">
<path d="M3 970.995L1.5 970.995L1.5 969.495L1.50004 34.1219L1.50004 33.0239L2.54667 32.6921C62.3744 13.7211 154.862 -4.31873 237.893 3.27941C320.902 10.8756 394.987 44.1879 416.889 128.418C438.498 211.519 471.969 248.519 504.619 261.362C537.197 274.177 569.48 263.148 589.364 248.883C602.598 232.129 619.546 214.506 637.971 200.787C656.432 187.041 676.523 177.103 695.939 176.054C715.483 174.999 734.133 182.965 749.499 204.552C764.802 226.05 776.858 261.051 783.536 314.168C796.831 419.909 837.567 462.05 882.474 472.418C927.646 482.847 977.81 461.359 1010.31 438.104L1010.41 438.033L1010.52 437.979C1022.24 432.186 1034.31 425.938 1046.54 419.604C1067.51 408.744 1088.96 397.633 1110.03 388.135C1143.39 373.091 1176.1 361.926 1204.91 362.085C1219.34 362.165 1232.84 365.087 1244.95 371.815C1257.06 378.546 1267.7 389.039 1276.5 404.131C1294.06 434.261 1304.3 482.79 1304.3 556.719C1304.3 628.687 1317.31 673.809 1337.33 700.376C1357.27 726.835 1384.32 735.087 1413.09 732.951C1441.93 730.808 1472.43 718.212 1498.9 703.012C1525.35 687.82 1547.64 670.109 1560.04 657.897L1560.16 657.783L1560.3 657.697C1601.28 631.903 1640.98 629.695 1673.97 642.299C1706.92 654.885 1733.05 682.184 1747.1 715.152C1761.15 748.129 1763.17 786.87 1747.77 822.384C1732.37 857.921 1699.6 890.058 1644.43 909.954C1619.81 918.832 1605.03 926.392 1596.69 932.778C1588.33 939.183 1586.84 944.081 1587.72 947.728C1588.18 949.647 1589.34 951.456 1590.96 953.174C1592.58 954.89 1594.6 956.442 1596.65 957.856C1597.91 958.72 1599.1 959.478 1600.22 960.195C1600.99 960.685 1601.73 961.156 1602.44 961.63C1603.27 962.185 1604.04 962.729 1604.66 963.254C1605.25 963.753 1605.86 964.355 1606.19 965.055C1606.37 965.43 1606.49 965.892 1606.45 966.407C1606.4 966.936 1606.17 967.393 1605.86 967.759C1605.29 968.424 1604.41 968.825 1603.49 969.113C1601.6 969.709 1598.49 970.137 1593.89 970.464C1584.63 971.121 1568.76 971.397 1543.09 971.475C1519.96 971.546 1488.81 971.455 1447.26 971.334C1396.57 971.187 1330.42 970.995 1244.48 970.995L3 970.995Z" fill="#FFF057" stroke="black" stroke-width="3"/>
</svg>
