<svg width="11" height="20" viewBox="0 0 11 20" fill="none" xmlns="http://www.w3.org/2000/svg">
<path d="M7.84063 5.65605C7.93668 6.06218 7.96071 6.50313 8.23686 6.82804C8.66908 7.31539 9.53352 7.32703 9.86969 7.8724C10.506 8.90514 8.56098 10.3324 9.38941 11.2259C9.49747 11.3419 9.6536 11.4347 9.73764 11.5624C9.96576 11.9221 9.61755 12.3514 9.41345 12.7344C9.06526 13.3726 9.1013 14.15 8.82515 14.823C8.54901 15.496 7.64851 16.0646 7.07221 15.5888C6.78406 16.2851 6.83208 17.0625 6.61597 17.782C6.38785 18.5014 5.66751 19.186 4.93513 18.954C4.23877 18.7335 4.05866 17.8864 3.86656 17.2134C3.55439 16.0878 2.96604 15.0551 2.61786 13.9411C1.53729 10.5412 1.35726 11.0634 1.10513 9.6942C0.925035 8.69628 0.997058 7.39661 1.16515 4.78577C1.36925 1.67597 1.56134 1.31629 1.89751 1.13063C3.13416 0.457615 5.53542 2.59266 5.81157 2.82473C6.59197 3.52096 7.55247 4.36803 7.82861 5.65605H7.84063Z" fill="black" stroke="black" stroke-width="0.75" stroke-linecap="round" stroke-linejoin="round"/>
</svg>
