<svg width="26" height="34" viewBox="0 0 26 34" fill="none" xmlns="http://www.w3.org/2000/svg">
<path d="M22.3199 17.0826C20.0144 21.7993 19.5628 28.7362 19.9431 30.6804C18.4101 31.5087 15.5817 32.7626 11.8382 32.9697C6.52606 33.2688 2.55681 31.2786 1 30.3928C1 30.3928 1.93881 27.9079 3.19851 22.2479C4.44633 16.5879 2.74694 16.3578 3.5194 11.1695C3.57882 10.7554 3.63821 10.3643 3.70952 9.99616C4.44632 5.77418 5.40892 4.58922 8.67702 2.97866C12.2185 1.21854 22.6289 1 22.6289 1C22.6289 1 24.364 1.98936 24.8512 4.32468C25.3385 6.6715 24.661 12.389 22.3436 17.1056L22.3199 17.0826Z" fill="#006837" stroke="black" stroke-width="0.75" stroke-linecap="round" stroke-linejoin="round"/>
</svg>
