<svg width="16" height="9" viewBox="0 0 16 9" fill="none" xmlns="http://www.w3.org/2000/svg">
<path d="M1.42734 5.1723C1.76029 5.59432 2.25974 5.87123 2.75915 6.10861C4.28515 6.83396 5.89432 7.38786 7.54517 7.74394C8.41916 7.94176 9.30706 8.07369 10.1949 7.955C11.0273 7.8363 11.8041 7.49343 12.5671 7.15053C13.0804 6.92633 13.5799 6.70211 14.0931 6.46472C14.3429 6.35922 14.5925 6.2405 14.7451 6.02949C14.9116 5.80529 14.9394 5.51518 14.9671 5.23823C15.0365 4.44693 15.0504 3.52373 14.44 2.98301C14.107 2.69287 13.6492 2.57423 13.2192 2.45553C10.2643 1.70381 7.25386 0.952029 4.17411 1.00478C3.24464 1.01797 2.20422 0.859699 1.60769 1.65099C0.941803 2.5346 0.733719 4.23591 1.44123 5.1459L1.42734 5.1723Z" fill="#553171" stroke="black" stroke-width="0.75" stroke-linecap="round" stroke-linejoin="round"/>
</svg>
