<svg width="92" height="69" viewBox="0 0 92 69" fill="none" xmlns="http://www.w3.org/2000/svg">
<path d="M59.8066 4.13494L59.8052 4.13447C50.0656 0.825433 37.8787 -0.137948 28.1584 4.63553L28.1581 4.63566C23.8455 6.75679 20.3814 9.819 17.2115 12.9238L17.2108 12.9244C10.1194 19.8941 3.84974 27.7338 1.36135 36.3617L1.36108 36.3626C-0.0771005 41.386 -0.0526193 47.221 4.20059 51.0216L4.20152 51.0224C6.06557 52.6798 8.53655 53.7663 10.887 54.7997C10.9586 54.8312 11.03 54.8626 11.1013 54.894L11.1044 54.8953C14.1577 56.2148 17.2085 57.5267 20.2589 58.8385L20.2599 58.8389C23.3107 60.1509 26.3611 61.4627 29.4139 62.7819C33.4376 64.5259 37.5365 66.281 42.0435 67.2868L42.0444 67.287C50.9161 69.2499 61.1397 68.0369 69.4693 64.0169C78.879 59.4774 82.668 52.6698 86.3545 46.0463L86.4539 45.8677L86.4546 45.8664C89.0941 41.0912 92.4878 34.8118 90.9161 27.331L90.9157 27.3294C90.5839 25.7751 89.6612 21.6237 85.8634 17.6877L85.8631 17.6874C84.0119 15.7718 81.9317 14.6836 77.3342 12.2787C76.5699 11.8789 75.736 11.4426 74.822 10.9602L74.8217 10.96C70.0397 8.44017 65.171 5.97477 59.8066 4.13494Z" fill="white" stroke="black" stroke-miterlimit="10"/>
</svg>
