<svg width="20" height="24" viewBox="0 0 20 24" fill="none" xmlns="http://www.w3.org/2000/svg">
<path d="M6.89069 1.13037C7.03621 1.0711 7.19387 1 7.36364 1C7.89721 1.01185 8.07911 1.69939 8.12762 2.22094C8.26101 3.50111 8.6248 4.75757 9.18262 5.91921C10.941 9.58193 14.5304 12.0593 16.9921 15.319C17.271 15.6864 17.5256 16.0539 17.8652 16.3621C18.6413 17.0733 18.8596 17.583 18.9323 17.8438C19.187 18.6617 18.6898 19.4677 17.9985 20.5701C17.6105 21.1864 16.9678 22.0873 15.9492 23C15.4277 22.7511 14.7001 22.3244 13.9968 21.625C13.4026 21.0205 13.3542 20.736 12.8327 20.0485C11.9354 18.8632 10.6014 18.0809 9.50999 17.0496C8.90366 16.4807 8.38223 15.8287 7.84866 15.1886C6.02968 12.9602 4.17431 10.6843 3.05867 8.05282C2.6585 7.11639 2.36752 6.1563 2.05223 5.19617C1.87033 4.6272 0.83953 2.83727 1.02143 2.31572C1.1912 1.81787 3.10719 2.05498 3.67714 1.98386C4.78065 1.84162 5.85993 1.55709 6.87855 1.13037H6.89069Z" fill="#C7B299" stroke="black" stroke-width="0.75" stroke-linecap="round" stroke-linejoin="round"/>
</svg>
