<svg width="10" height="15" viewBox="0 0 10 15" fill="none" xmlns="http://www.w3.org/2000/svg">
<path d="M4.10642 1.44758C4.55565 1.19861 5.05346 0.949564 5.5634 1.00884C5.91549 1.05627 6.21899 1.24602 6.51038 1.43572C7.73666 2.24193 8.97514 3.36823 8.99943 4.81467C9.01157 5.38376 8.8294 5.94102 8.64728 6.47454C8.10092 8.12253 7.5546 9.75864 7.02038 11.4066C6.71684 12.3433 6.32832 13.3629 5.42986 13.8016C4.42212 14.2995 3.1351 13.8016 2.4309 12.9598C1.7267 12.118 1.47174 10.9799 1.30176 9.88909C0.973943 7.73129 0.913207 5.53791 1.11961 3.35639C1.14389 3.15484 1.16819 2.94138 1.28961 2.78725C1.45959 2.57384 2.3095 2.41978 2.6009 2.26566C3.09869 1.99297 3.60862 1.72026 4.10642 1.43572V1.44758Z" fill="#534741" stroke="black" stroke-width="0.75" stroke-miterlimit="10"/>
</svg>
