<svg width="43" height="45" viewBox="0 0 43 45" fill="none" xmlns="http://www.w3.org/2000/svg">
<path d="M39.8682 4.85636L39.6496 4.62621C36.7685 1.59203 31.0281 -0.0583801 25.779 0.837348C22.0034 1.48181 19.5938 3.25108 16.7688 5.32539L16.7187 5.36212C10.9024 9.63577 7.70831 15.6013 4.65262 21.4506L39.8682 4.85636ZM39.8682 4.85636L39.8918 4.84853M39.8682 4.85636L39.8918 4.84853M39.8918 4.84853C42.1036 7.36247 42.2127 10.5609 41.3369 13.9081C40.4321 17.3665 38.5038 20.8658 36.9329 23.7014L36.9328 23.7015C34.0925 28.8322 30.5086 31.9451 23.1847 38.2795L23.1829 38.281C22.5565 38.8281 20.8041 40.2364 18.7821 41.4791C17.7715 42.1001 16.7046 42.6729 15.6851 43.0767C14.6582 43.4835 13.7202 43.7021 12.9536 43.6573C11.2305 43.5531 10.1012 42.883 8.45634 41.8348L8.45408 41.8334C7.47588 41.2174 2.32317 37.9694 1.46345 32.3412C1.19569 30.5768 1.50921 28.7713 2.13864 26.9375C2.769 25.1009 3.7038 23.2694 4.65249 21.4508L39.8918 4.84853Z" fill="#FEF058" fill-opacity="0.3" stroke="#2D3648" stroke-miterlimit="10"/>
</svg>
