<svg width="39" height="30" viewBox="0 0 39 30" fill="none" xmlns="http://www.w3.org/2000/svg">
<path d="M12.0937 3.73598C7.57993 5.20615 3.15063 7.86421 1.6541 11.3926C0.99031 12.9569 0.95408 14.5682 1.02649 16.1324C1.20753 19.6491 1.99206 23.154 4.33342 25.9649C5.6972 27.5998 7.80924 29.0346 10.5127 28.9994C11.7437 28.9876 12.9988 28.67 14.2298 28.3525C17.2832 27.5645 20.3367 26.7882 23.3901 26.0002C25.4056 25.4827 27.4331 24.9652 29.3159 24.1419C33.021 22.5424 36.002 19.7902 37.3175 16.7793C38.8141 13.3568 37.5589 10.7105 36.3279 8.06415C35.4469 6.17057 34.2882 3.79479 31.0538 2.26581C30.3779 1.94825 28.5676 1.11319 25.8763 1.00734C24.3677 0.94853 23.1729 1.24257 19.697 1.91297C17.1384 2.40694 14.5799 2.9362 12.0937 3.74773V3.73598Z" fill="white" stroke="#2D3648" stroke-miterlimit="10"/>
</svg>
