<svg width="103" height="167" viewBox="0 0 103 167" fill="none" xmlns="http://www.w3.org/2000/svg">
<path d="M37.7624 1.56924V1.59038C34.3412 1.10314 24.5048 0.293926 16.2776 6.06665L16.2775 6.06672C11.6291 9.32955 7.40303 16.0219 3.11033 36.2053C-1.88005 59.6623 4.11452 83.887 10.0028 106.888L10.0029 106.889C13.6532 121.143 17.7304 136.32 28.1195 147.047L28.1196 147.047C44.2577 163.704 65.7563 165.162 69.9729 165.448L70.0771 165.456C76.6842 165.914 81.7638 166.223 87.0004 163.311C93.3895 159.758 96.8524 153.19 98.8029 146.472C100.747 139.777 101.226 132.799 101.542 128.208L101.546 128.143L101.546 128.143C102.353 116.233 101.236 100.374 89.3932 71.1871L89.3817 71.1589C82.5867 54.4121 75.9808 38.1314 68.0796 25.5268C60.1767 12.9197 50.8812 3.83115 38.6398 1.72053L37.7624 1.56924Z" fill="#FFF7A4" stroke="black" stroke-width="1.5" stroke-miterlimit="10"/>
</svg>
