<svg width="1692" height="576" viewBox="0 0 1692 576" fill="none" xmlns="http://www.w3.org/2000/svg">
<path d="M1692 575.699L494.406 575.699C-109.118 575.699 299.388 581.769 109.08 539.393C-102.577 492.262 32.2478 329.826 188.98 390.731C237.205 420.055 438.143 501.602 438.143 329.826C438.143 153.881 596.215 222.304 719.457 259.899C782.418 287.72 914.769 311.781 940.49 185.461C966.21 59.1408 1074.45 107.263 1125.35 147.114C1164.2 164.407 1252.35 174.182 1294.14 74.9308C1335.94 -24.3206 1576.8 -4.01923 1692 18.5379L1692 575.699Z" fill="url(#paint0_linear_77_4)"/>
<defs>
<linearGradient id="paint0_linear_77_4" x1="846" y1="158" x2="846" y2="594" gradientUnits="userSpaceOnUse">
<stop offset="0.322932" stop-color="#FEF058"/>
<stop offset="0.747932" stop-color="#FFF9C0"/>
<stop offset="1" stop-color="white"/>
</linearGradient>
</defs>
</svg>
