<svg width="16" height="13" viewBox="0 0 16 13" fill="none" xmlns="http://www.w3.org/2000/svg">
<path d="M2.94306 6.8416C2.03214 6.70261 1.32232 6.07713 1.08572 5.46324C0.257605 3.332 5.66399 -1.30111 7.22558 2.37065C7.2729 2.42856 7.89988 3.57527 7.9472 3.61002C8.4559 4.45556 9.10657 4.88415 10.0293 5.22005C10.053 5.22005 10.0648 5.24317 10.0885 5.24317C10.1831 5.27792 10.2659 5.28949 10.3487 5.31266C11.094 5.57907 11.4608 5.42849 12.1587 5.53274C13.0933 5.6949 13.7913 6.15824 14.2409 6.7258C16.181 8.46323 14.0042 10.6524 12.1587 11.4979C10.3132 12.3435 8.00636 12.1118 6.70505 10.8725C6.6104 10.7914 6.52754 10.7103 6.4329 10.6292C5.17891 9.59834 4.40999 8.10413 2.93122 6.8416H2.94306Z" fill="#009245" stroke="black" stroke-width="0.75" stroke-linecap="round" stroke-linejoin="round"/>
</svg>
