<svg width="19" height="24" viewBox="0 0 19 24" fill="none" xmlns="http://www.w3.org/2000/svg">
<path d="M7.16714 1.01205C7.16714 1.01205 7.16714 1.02404 7.16714 1.03609C9.37298 6.76771 12.4565 12.8485 16.3484 17.7373C16.3831 17.8336 17.9307 19.6759 18 19.7602C17.9885 20.29 18.0115 20.4586 17.5957 21.1931C16.8797 22.6019 15.2976 23.204 14.3852 22.9391C14.3852 22.9391 13.9578 22.6862 11.6712 19.9649C10.6087 18.7488 10.6665 18.6645 9.98507 17.8577C6.61279 13.8119 2.25883 11.1627 1 3.95004C3.18274 3.66105 5.2038 2.6978 6.56657 1.51776C6.786 1.34919 6.97078 1.18062 7.14402 1L7.16714 1.01205Z" fill="#603813" stroke="black" stroke-width="0.75" stroke-linecap="round" stroke-linejoin="round"/>
</svg>
