<svg width="22" height="24" viewBox="0 0 22 24" fill="none" xmlns="http://www.w3.org/2000/svg">
<path d="M19.457 22.0817L19.4543 22.0835C17.4093 23.4691 13.7247 23.9045 10.5878 23.094C5.31934 21.7125 3.14594 17.149 1.64048 13.9666L1.64049 13.9666L1.63902 13.9635C0.299497 11.1807 0.405861 9.1466 0.650672 4.83161L0.650747 4.83162L0.651088 4.82296C0.664805 4.47461 0.772572 3.53189 1.09576 2.61506C1.42874 1.67049 1.9301 0.920834 2.62477 0.691994C3.51222 0.404746 4.40794 0.487322 5.80396 0.63245L5.8064 0.632691C6.62439 0.713676 10.9648 1.15552 14.4817 3.54527L14.4824 3.54574C16.6821 5.03512 17.7317 7.04448 18.7392 9.04412L18.7406 9.04679C19.5656 10.66 20.3719 12.279 20.8996 13.8784C21.4266 15.4754 21.6616 17.0129 21.3796 18.466C21.3699 18.5139 21.3604 18.5614 21.3509 18.6086C21.0583 20.0618 20.8373 21.1592 19.457 22.0817Z" fill="#FFBFA7" stroke="#2D3648" stroke-miterlimit="10"/>
</svg>
